<?xml version="1.0" encoding="UTF-8"?>
<svg version="1.1" xmlns="http://www.w3.org/2000/svg" width="480" height="480">
<path d="M0 0 C1.59804643 -0.00407429 3.19609005 -0.00942095 4.79412842 -0.01593018 C9.09994275 -0.02950774 13.40553939 -0.02434502 17.71135712 -0.01479292 C22.23807826 -0.00714639 26.76478196 -0.0142557 31.29150391 -0.01895142 C38.89033318 -0.02439452 46.4890747 -0.01725544 54.08789062 -0.00292969 C62.84710791 0.01339403 71.60611562 0.0081045 80.36532784 -0.0084089 C87.91390832 -0.02206511 95.46242608 -0.02392329 103.01101494 -0.0160929 C107.50715439 -0.01143903 112.00319565 -0.01072806 116.49932861 -0.02070236 C120.72826089 -0.02943022 124.95692551 -0.02324503 129.18582916 -0.00601959 C130.72884936 -0.00208559 132.27189247 -0.00313518 133.81490326 -0.00980759 C145.88724929 -0.05716009 156.91256944 1.34898449 167.7734375 6.88818359 C168.4449585 7.22785156 169.11647949 7.56751953 169.80834961 7.91748047 C176.85207491 11.67324133 182.26743016 16.67918981 187.7734375 22.38818359 C188.76923828 23.33757813 188.76923828 23.33757813 189.78515625 24.30615234 C202.7883834 37.54314537 206.27240468 55.81318509 206.12109375 73.60302734 C205.65316956 93.32972612 197.82303791 108.83812453 183.7734375 122.38818359 C183.14050781 123.05205078 182.50757813 123.71591797 181.85546875 124.39990234 C174.15585947 131.96353619 160.76775846 139.04799972 149.8359375 139.51318359 C149.1553125 139.47193359 148.4746875 139.43068359 147.7734375 139.38818359 C147.7734375 140.04818359 147.7734375 140.70818359 147.7734375 141.38818359 C148.9284375 141.40880859 150.0834375 141.42943359 151.2734375 141.45068359 C163.10607062 142.79657551 174.23171902 149.41491573 182.7734375 157.38818359 C183.54042969 158.06494141 184.30742187 158.74169922 185.09765625 159.43896484 C196.31249339 169.85410222 204.96504113 185.4428181 205.93457031 200.96850586 C206.25842882 222.07014734 204.22563315 240.84713024 189.2734375 256.95068359 C187.47297097 258.80203486 185.63308902 260.59465301 183.7734375 262.38818359 C182.82404297 263.38398437 182.82404297 263.38398437 181.85546875 264.39990234 C168.61847572 277.40312949 150.348436 280.88715077 132.55859375 280.73583984 C112.83189497 280.26791565 97.32349657 272.43778401 83.7734375 258.38818359 C83.10957031 257.75525391 82.44570313 257.12232422 81.76171875 256.47021484 C74.13400305 248.70537167 69.67388564 237.70051935 66.7734375 227.38818359 C66.76985497 228.41522211 66.76985497 228.41522211 66.76620007 229.46300888 C66.70692015 246.16607244 66.63128768 262.86897519 66.53772259 279.57188034 C66.49286356 287.64946941 66.45342642 295.72701535 66.42700195 303.8046875 C66.40394138 310.84976486 66.37045432 317.89470464 66.32473594 324.93967271 C66.3009117 328.66579327 66.28211255 332.39177849 66.27582359 336.11797333 C66.26858606 340.28994443 66.23805823 344.46144793 66.20581055 348.63330078 C66.20724564 349.85250717 66.20868073 351.07171356 66.2101593 352.3278656 C66.09426833 362.97964203 64.13209234 372.86167837 59.2734375 382.38818359 C58.76393555 383.39546509 58.76393555 383.39546509 58.24414062 384.4230957 C54.48837977 391.466821 49.48243128 396.88217626 43.7734375 402.38818359 C42.82404297 403.38398437 42.82404297 403.38398437 41.85546875 404.39990234 C28.61847572 417.40312949 10.348436 420.88715077 -7.44140625 420.73583984 C-27.16810503 420.26791565 -42.67650343 412.43778401 -56.2265625 398.38818359 C-56.89042969 397.75525391 -57.55429688 397.12232422 -58.23828125 396.47021484 C-71.2415084 383.23322182 -74.72552968 364.96318209 -74.57421875 347.17333984 C-74.10629456 327.44664107 -66.27616291 311.93824266 -52.2265625 298.38818359 C-51.27716797 297.39238281 -51.27716797 297.39238281 -50.30859375 296.37646484 C-42.60898447 288.812831 -29.22088346 281.72836746 -18.2890625 281.26318359 C-17.6084375 281.30443359 -16.9278125 281.34568359 -16.2265625 281.38818359 C-16.2265625 280.72818359 -16.2265625 280.06818359 -16.2265625 279.38818359 C-17.4228125 279.34693359 -18.6190625 279.30568359 -19.8515625 279.26318359 C-35.88633467 277.42271446 -50.05055362 266.30527041 -60.2265625 254.38818359 C-73.51753347 236.27049158 -76.16054367 216.62562606 -73.8359375 194.70458984 C-70.71827567 180.29539638 -62.65731851 168.44806828 -52.2265625 158.38818359 C-51.59363281 157.72431641 -50.96070313 157.06044922 -50.30859375 156.37646484 C-42.60898447 148.812831 -29.22088346 141.72836746 -18.2890625 141.26318359 C-17.6084375 141.30443359 -16.9278125 141.34568359 -16.2265625 141.38818359 C-16.2265625 140.72818359 -16.2265625 140.06818359 -16.2265625 139.38818359 C-17.4228125 139.34693359 -18.6190625 139.30568359 -19.8515625 139.26318359 C-35.88633467 137.42271446 -50.05055362 126.30527041 -60.2265625 114.38818359 C-73.51753347 96.27049158 -76.16054367 76.62562606 -73.8359375 54.70458984 C-70.71827567 40.29539638 -62.65731851 28.44806828 -52.2265625 18.38818359 C-51.59363281 17.72431641 -50.96070313 17.06044922 -50.30859375 16.37646484 C-46.21800933 12.35812033 -41.53382681 9.74446877 -36.4765625 7.13818359 C-35.84532471 6.80850586 -35.21408691 6.47882812 -34.5637207 6.13916016 C-23.44482343 0.68918517 -12.17757047 -0.05265921 0 0 Z M65.7734375 140.38818359 C65.7734375 159.52818359 65.7734375 178.66818359 65.7734375 198.38818359 C66.1034375 198.38818359 66.4334375 198.38818359 66.7734375 198.38818359 C66.9590625 197.36724609 66.9590625 197.36724609 67.1484375 196.32568359 C70.95040618 178.45643082 80.50132004 163.76694885 95.2734375 152.97802734 C104.21196866 147.29368018 113.34008932 143.39459671 123.7734375 141.38818359 C123.7734375 141.05818359 123.7734375 140.72818359 123.7734375 140.38818359 C104.6334375 140.38818359 85.4934375 140.38818359 65.7734375 140.38818359 Z " fill="#7B4CFF" transform="translate(184.2265625,29.61181640625)"/>
<path d="M0 0 C1.59804643 -0.00407429 3.19609005 -0.00942095 4.79412842 -0.01593018 C9.09994275 -0.02950774 13.40553939 -0.02434502 17.71135712 -0.01479292 C22.23807826 -0.00714639 26.76478196 -0.0142557 31.29150391 -0.01895142 C38.89033318 -0.02439452 46.4890747 -0.01725544 54.08789062 -0.00292969 C62.84710791 0.01339403 71.60611562 0.0081045 80.36532784 -0.0084089 C87.91390832 -0.02206511 95.46242608 -0.02392329 103.01101494 -0.0160929 C107.50715439 -0.01143903 112.00319565 -0.01072806 116.49932861 -0.02070236 C120.72826089 -0.02943022 124.95692551 -0.02324503 129.18582916 -0.00601959 C130.72884936 -0.00208559 132.27189247 -0.00313518 133.81490326 -0.00980759 C145.88724929 -0.05716009 156.91256944 1.34898449 167.7734375 6.88818359 C168.4449585 7.22785156 169.11647949 7.56751953 169.80834961 7.91748047 C176.85207491 11.67324133 182.26743016 16.67918981 187.7734375 22.38818359 C188.76923828 23.33757813 188.76923828 23.33757813 189.78515625 24.30615234 C202.7883834 37.54314537 206.27240468 55.81318509 206.12109375 73.60302734 C205.65316956 93.32972612 197.82303791 108.83812453 183.7734375 122.38818359 C183.14050781 123.05205078 182.50757813 123.71591797 181.85546875 124.39990234 C177.76488433 128.41824686 173.08070181 131.03189842 168.0234375 133.63818359 C167.39219971 133.96786133 166.76096191 134.29753906 166.1105957 134.63720703 C154.99169843 140.08718202 143.72444547 140.8290264 131.546875 140.77636719 C129.94882857 140.78044148 128.35078495 140.78578813 126.75274658 140.79229736 C122.44693225 140.80587493 118.14133561 140.80071221 113.83551788 140.79116011 C109.30879674 140.78351357 104.78209304 140.79062289 100.25537109 140.7953186 C92.65654182 140.80076171 85.0578003 140.79362263 77.45898438 140.77929688 C68.69976709 140.76297316 59.94075938 140.76826269 51.18154716 140.78477609 C43.63296668 140.7984323 36.08444892 140.80029048 28.53586006 140.79246008 C24.03972061 140.78780622 19.54367935 140.78709525 15.04754639 140.79706955 C10.81861411 140.80579741 6.58994949 140.79961221 2.36104584 140.78238678 C0.81802564 140.77845278 -0.72501747 140.77950237 -2.26802826 140.78617477 C-14.34037429 140.83352728 -25.36569444 139.4273827 -36.2265625 133.88818359 C-36.8980835 133.54851562 -37.56960449 133.20884766 -38.26147461 132.85888672 C-45.30519991 129.10312586 -50.72055516 124.09717738 -56.2265625 118.38818359 C-56.89042969 117.75525391 -57.55429688 117.12232422 -58.23828125 116.47021484 C-71.2415084 103.23322182 -74.72552968 84.96318209 -74.57421875 67.17333984 C-74.10629456 47.44664107 -66.27616291 31.93824266 -52.2265625 18.38818359 C-51.59363281 17.72431641 -50.96070313 17.06044922 -50.30859375 16.37646484 C-46.21800933 12.35812033 -41.53382681 9.74446877 -36.4765625 7.13818359 C-35.84532471 6.80850586 -35.21408691 6.47882812 -34.5637207 6.13916016 C-23.44482343 0.68918517 -12.17757047 -0.05265921 0 0 Z " fill="#FF6F43" transform="translate(184.2265625,29.61181640625)"/>
<path d="M0 0 C1.61604501 0.00442181 3.23209435 0.00747558 4.84814453 0.00915527 C10.77903773 0.02475697 16.70983839 0.06664031 22.640625 0.10546875 C42.564375 0.19828125 42.564375 0.19828125 62.890625 0.29296875 C62.890625 46.49296875 62.890625 92.69296875 62.890625 140.29296875 C42.966875 140.38578125 42.966875 140.38578125 22.640625 140.48046875 C16.38303223 140.52143677 16.38303223 140.52143677 9.99902344 140.56323242 C4.84814453 140.57678223 4.84814453 140.57678223 2.42584229 140.57929993 C0.75801176 140.58386343 -0.90980976 140.59432336 -2.57757568 140.60969543 C-15.59230998 140.72350757 -27.29589129 139.81801555 -39.109375 133.79296875 C-39.780896 133.45330078 -40.45241699 133.11363281 -41.14428711 132.76367188 C-48.18801241 129.00791102 -53.60336766 124.00196253 -59.109375 118.29296875 C-59.77324219 117.66003906 -60.43710938 117.02710938 -61.12109375 116.375 C-74.1243209 103.13800697 -77.60834218 84.86796725 -77.45703125 67.078125 C-76.98910706 47.35142622 -69.15897541 31.84302782 -55.109375 18.29296875 C-54.47644531 17.62910156 -53.84351563 16.96523438 -53.19140625 16.28125 C-49.10082183 12.26290548 -44.41663931 9.64925392 -39.359375 7.04296875 C-38.72813721 6.71329102 -38.09689941 6.38361328 -37.4465332 6.04394531 C-25.28665852 0.0837308 -13.22711428 -0.12191647 0 0 Z " fill="#E64918" transform="translate(187.109375,29.70703125)"/>
<path d="M0 0 C1.82130582 0.00560703 3.64261622 0.00987188 5.46392822 0.01286316 C10.21831122 0.02422488 14.97241184 0.05361565 19.72668457 0.0869751 C24.59379255 0.11786475 29.4609469 0.13140857 34.328125 0.14648438 C43.84908124 0.17849509 53.36982949 0.22958429 62.890625 0.29296875 C62.96042317 10.7771492 63.01358679 21.2612735 63.04606152 31.7456398 C63.06165511 36.61501579 63.08277691 41.48423172 63.11694336 46.35351562 C63.14976334 51.06086531 63.16752533 55.76806192 63.17525673 60.47551727 C63.18075989 62.26308345 63.19150513 64.05064215 63.20781517 65.8381424 C63.321498 78.82475019 62.40206791 90.50615859 56.390625 102.29296875 C55.88112305 103.30025024 55.88112305 103.30025024 55.36132812 104.32788086 C51.60556727 111.37160616 46.59961878 116.78696141 40.890625 122.29296875 C40.25769531 122.95683594 39.62476563 123.62070312 38.97265625 124.3046875 C25.73566322 137.30791465 7.4656235 140.79193593 -10.32421875 140.640625 C-30.05091753 140.17270081 -45.55931593 132.34256916 -59.109375 118.29296875 C-59.77324219 117.66003906 -60.43710938 117.02710938 -61.12109375 116.375 C-74.1243209 103.13800697 -77.60834218 84.86796725 -77.45703125 67.078125 C-76.98910706 47.35142622 -69.15897541 31.84302782 -55.109375 18.29296875 C-54.47644531 17.62910156 -53.84351563 16.96523438 -53.19140625 16.28125 C-49.10082183 12.26290548 -44.41663931 9.64925392 -39.359375 7.04296875 C-38.72813721 6.71329102 -38.09689941 6.38361328 -37.4465332 6.04394531 C-25.28659302 0.0836987 -13.22617032 -0.12068215 0 0 Z " fill="#65BA69" transform="translate(187.109375,309.70703125)"/>
<path d="M0 0 C3.65455465 2.99795193 6.95094584 6.28367305 10.22998047 9.68359375 C10.89384766 10.31652344 11.55771484 10.94945312 12.24169922 11.6015625 C25.24492636 24.83855553 28.72894765 43.10859525 28.57763672 60.8984375 C28.10971253 80.62513628 20.27958088 96.13353468 6.22998047 109.68359375 C5.59705078 110.34746094 4.96412109 111.01132812 4.31201172 111.6953125 C-8.92498131 124.69853965 -27.19502103 128.18256093 -44.98486328 128.03125 C-64.71156206 127.56332581 -80.21996047 119.73319416 -93.77001953 105.68359375 C-94.43388672 105.05066406 -95.09775391 104.41773438 -95.78173828 103.765625 C-108.78496543 90.52863197 -112.26898671 72.25859225 -112.11767578 54.46875 C-111.64975159 34.74205122 -103.81961995 19.23365282 -89.77001953 5.68359375 C-89.13708984 5.01972656 -88.50416016 4.35585937 -87.85205078 3.671875 C-65.41851309 -18.36548542 -24.48371452 -18.20912948 0 0 Z " fill="#28B5F6" transform="translate(361.77001953125,182.31640625)"/>
</svg>
