<?xml version="1.0" encoding="UTF-8"?>
<svg version="1.1" xmlns="http://www.w3.org/2000/svg" width="480" height="480">
<path d="M0 0 C-5.10048856 6.16729758 -10.66214836 11.7999691 -16.3263855 17.44664001 C-17.37535161 18.49604273 -18.42409773 19.5456654 -19.47264397 20.59548765 C-22.34144615 23.46651729 -25.21334254 26.33443392 -28.08577013 29.20183575 C-31.18771326 32.29944938 -34.28675454 35.39996386 -37.38615417 38.50012207 C-42.75211886 43.86661041 -48.11990744 49.23126877 -53.48894882 54.59467888 C-61.251623 62.34921655 -69.01152542 70.10652305 -76.77076007 77.86450214 C-89.36051683 90.45207176 -101.95250386 103.03740786 -114.54589844 115.62133789 C-126.77721505 127.84347164 -139.00747806 140.06665809 -151.23632812 152.29125977 C-151.99046167 153.04513058 -152.74459521 153.7990014 -153.52158128 154.57571679 C-157.30494471 158.35777516 -161.08828746 162.13985421 -164.87161994 165.92194355 C-196.24454152 197.28450305 -227.62108486 228.64343726 -259 260 C-262.94756642 258.17171647 -265.66011334 255.60889867 -268.68652344 252.54052734 C-269.24306107 251.98428177 -269.79959869 251.42803619 -270.3730011 250.85493469 C-272.20657442 249.01997095 -274.03296672 247.17803069 -275.859375 245.3359375 C-277.13117525 244.06040611 -278.40341853 242.78531633 -279.67608643 241.51065063 C-283.02106258 238.15804605 -286.35998851 234.79947827 -289.69769287 231.43963623 C-293.10602831 228.01082544 -296.52004745 224.58768427 -299.93359375 221.1640625 C-306.62797297 214.44824728 -313.31597466 207.72611906 -320 201 C-318.66073232 198.07443946 -317.15328398 195.82969934 -315.01527309 193.43118668 C-314.39968263 192.73699355 -313.78409217 192.04280043 -313.14984745 191.32757115 C-312.4716928 190.57270571 -311.79353816 189.81784026 -311.09483337 189.0401001 C-310.01364057 187.82828383 -310.01364057 187.82828383 -308.91060549 186.59198642 C-306.48267758 183.87661256 -304.04664192 181.16868734 -301.60913086 178.46191406 C-300.75676346 177.51302244 -299.90439606 176.56413082 -299.02619934 175.58648491 C-282.5397747 157.25118051 -265.70938682 139.24615579 -248.7215628 121.37522312 C-245.92151114 118.42926772 -243.12411503 115.48080336 -240.32836914 112.53076172 C-239.7720886 111.94387261 -239.21580805 111.35698351 -238.64267052 110.75230989 C-230.86840013 102.53874277 -223.25856829 94.19820389 -215.76308198 85.72977537 C-202.82222356 71.10920888 -189.61286828 56.79596398 -175.83984375 42.953125 C-175.3051215 42.41444487 -174.77039925 41.87576474 -174.2194733 41.32076097 C-122.53890344 -10.58965438 -70.0140406 -11.92777523 0 0 Z " fill="#3FC3FF" transform="translate(380,40)"/>
<path d="M0 0 C1.01626331 0.06784289 1.01626331 0.06784289 2.05305719 0.13705635 C19.46076327 1.32076648 36.65871577 3.49900072 53.8125 6.6875 C48.79186067 12.75133664 43.3431721 18.29185507 37.76806641 23.84545898 C36.76205304 24.85118978 35.7562608 25.85714181 34.75067139 26.86329651 C32.03847093 29.57578222 29.32321267 32.28518773 26.60736895 34.99402499 C23.76284242 37.83227271 20.92117395 40.67337908 18.07919312 43.51417542 C12.70525488 48.88501364 7.32877409 54.25329905 1.95136106 59.62065798 C-4.17398362 65.73480011 -10.296467 71.85180404 -16.41871905 77.96904266 C-29.00514547 90.54503481 -41.59513676 103.11745255 -54.1875 115.6875 C-52.67988861 119.22056369 -50.63381332 121.48589071 -47.92282104 124.18595886 C-47.02817139 125.08191269 -46.13352173 125.97786652 -45.21176147 126.90097046 C-44.21792291 127.88613658 -43.22399283 128.8712104 -42.22998047 129.85620117 C-41.18492707 130.89905291 -40.14032137 131.94235348 -39.09613037 132.98606873 C-36.84874683 135.23052074 -34.59824513 137.4717817 -32.34527206 139.71062279 C-28.78634466 143.24729275 -25.2345111 146.79102948 -21.68362427 150.33576965 C-16.07050216 155.93751409 -10.45272523 161.53456356 -4.83290684 167.12958938 C5.24231094 177.16044298 15.31190433 187.19693541 25.37634742 197.2385996 C28.91124772 200.76506807 32.44893682 204.2887085 35.98885751 207.81013715 C38.18424967 209.9949261 40.37764455 212.18171193 42.57053375 214.36901283 C43.59201353 215.38700688 44.61436456 216.40412752 45.63762283 217.42033386 C47.02794217 218.80127745 48.41496726 220.18553536 49.80178833 221.56999207 C50.58087114 222.34555545 51.35995396 223.12111883 52.16264534 223.92018414 C53.8125 225.6875 53.8125 225.6875 53.8125 226.6875 C36.021851 230.06793358 18.18774275 232.26548586 0.125 233.5 C-0.8836512 233.57100859 -0.8836512 233.57100859 -1.9126792 233.64345169 C-37.53383912 236.08220217 -66.04941103 231.7132829 -93.61249965 207.731574 C-106.18787136 196.55649789 -117.87285508 184.5680634 -129.25 172.1875 C-130.14970433 171.21079747 -130.14970433 171.21079747 -131.06758451 170.21436357 C-146.71373936 153.20583992 -161.73478711 135.72071131 -176.1875 117.6875 C-166.58538728 96.61552341 -143.70394942 76.830019 -128.125 59.9375 C-127.54256263 59.30401752 -126.96012527 58.67053504 -126.36003828 58.01785612 C-88.3465723 16.75512141 -57.12723694 -3.91959066 0 0 Z " fill="#3FC3FF" transform="translate(326.1875,213.3125)"/>
<path d="M0 0 C3.54804995 1.51243444 5.827685 3.57856327 8.54315186 6.2959137 C9.448965 7.19753235 10.35477814 8.099151 11.28804016 9.02809143 C12.28424604 10.02978038 13.2803517 11.031569 14.27636719 12.03344727 C15.33070908 13.08671604 16.38548383 14.13955166 17.44065857 15.19198608 C20.30236462 18.04884694 23.1577853 20.91191507 26.01198864 23.7762692 C28.99691591 26.76997738 31.98711133 29.75841496 34.97662354 32.74754333 C39.99352908 37.76538519 45.00654696 42.78708445 50.01708984 47.8112793 C55.81802182 53.62795782 61.62418512 59.43937192 67.43336177 65.24781567 C73.0154399 70.82928456 78.59466071 76.41359995 84.17227936 81.99952507 C86.54949846 84.38028336 88.92757276 86.76018262 91.3062973 89.13943672 C94.10263805 91.93677829 96.89642762 94.736643 99.68821907 97.53852463 C100.71616217 98.56940051 101.74496526 99.59941962 102.77466393 100.62854195 C104.1736834 102.02707442 105.5693373 103.42897129 106.96478271 104.83106995 C108.14057199 106.00937299 108.14057199 106.00937299 109.34011459 107.21148014 C111 109 111 109 111 110 C91.87346209 111.49352404 72.73730203 112.49472817 53.5625 113.0625 C52.86400767 113.08378086 52.16551534 113.10506172 51.44585657 113.12698746 C-11.49019414 114.9936348 -11.49019414 114.9936348 -32.63789368 95.83668518 C-36.01890107 92.58478715 -39.08527418 89.12181418 -42.0625 85.5 C-42.54485485 84.91406696 -43.0272097 84.32813393 -43.52418137 83.72444534 C-49.34468255 76.54561493 -54.46513168 69.06486947 -59 61 C-57.39140496 56.98428745 -54.56359635 54.29520386 -51.54052734 51.31347656 C-50.98428177 50.75693893 -50.42803619 50.20040131 -49.85493469 49.6269989 C-48.01997095 47.79342558 -46.17803069 45.96703328 -44.3359375 44.140625 C-43.06040611 42.86882475 -41.78531633 41.59658147 -40.51065063 40.32391357 C-37.15804605 36.97893742 -33.79947827 33.64001149 -30.43963623 30.30230713 C-27.01082544 26.89397169 -23.58768427 23.47995255 -20.1640625 20.06640625 C-13.44824728 13.37202703 -6.72611906 6.68402534 0 0 Z " fill="#01569A" transform="translate(269,330)"/>
<path d="M0 0 C4.01571255 1.60859504 6.70479614 4.43640365 9.68652344 7.45947266 C10.24306107 8.01571823 10.79959869 8.57196381 11.3730011 9.14506531 C13.20657442 10.98002905 15.03296672 12.82196931 16.859375 14.6640625 C18.13117525 15.93959389 19.40341853 17.21468367 20.67608643 18.48934937 C24.02106258 21.84195395 27.35998851 25.20052173 30.69769287 28.56036377 C34.10602831 31.98917456 37.52004745 35.41231573 40.93359375 38.8359375 C47.62797297 45.55175272 54.31597466 52.27388094 61 59 C55.31978209 65.94103433 48.94998244 72.17673906 42.6015625 78.49609375 C41.39922532 79.69656287 40.19711095 80.89725518 38.99520874 82.09815979 C35.85090837 85.23866548 32.70361521 88.37615481 29.55566406 91.51300049 C26.33605827 94.72232618 23.11932679 97.93453005 19.90234375 101.14648438 C13.60435365 107.43379102 7.30319435 113.71791106 1 120 C-5.85907115 114.38062338 -12.03009491 108.09685489 -18.27734375 101.8203125 C-19.45539258 100.64039553 -20.63366466 99.46070142 -21.81214905 98.28121948 C-24.89347142 95.19610309 -27.97177716 92.10799411 -31.04943848 89.01922607 C-34.19844034 85.85994267 -37.35032171 82.70353484 -40.50195312 79.546875 C-46.6707711 73.36737473 -52.83640129 67.1847061 -59 61 C-57.39140496 56.98428745 -54.56359635 54.29520386 -51.54052734 51.31347656 C-50.98428177 50.75693893 -50.42803619 50.20040131 -49.85493469 49.6269989 C-48.01997095 47.79342558 -46.17803069 45.96703328 -44.3359375 44.140625 C-43.06040611 42.86882475 -41.78531633 41.59658147 -40.51065063 40.32391357 C-37.15804605 36.97893742 -33.79947827 33.64001149 -30.43963623 30.30230713 C-27.01082544 26.89397169 -23.58768427 23.47995255 -20.1640625 20.06640625 C-13.44824728 13.37202703 -6.72611906 6.68402534 0 0 Z " fill="#03A9F4" transform="translate(209,270)"/>
<path d="M0 0 C4.1725131 2.08625655 6.86737361 4.61158887 10.078125 7.8828125 C10.64956238 8.45707977 11.22099976 9.03134705 11.80975342 9.62301636 C13.62792945 11.4523581 15.43901492 13.28854193 17.25 15.125 C18.48391329 16.36894774 19.71828322 17.6124427 20.953125 18.85546875 C23.97406743 21.89842367 26.98867092 24.94753254 30 28 C27.24435711 30.75564289 24.00666731 31.52223987 20.38500977 32.72143555 C19.59949738 32.9866803 18.81398499 33.25192505 18.00466919 33.52520752 C15.40229614 34.4019474 12.79703616 35.26971006 10.19140625 36.13671875 C8.38532255 36.7413367 6.57932902 37.34622406 4.77342224 37.95137024 C0.98596455 39.21883472 -2.80301345 40.48162649 -6.59301758 41.74145508 C-11.45683585 43.35886185 -16.31596873 44.98986839 -21.1739645 46.62466717 C-24.90270973 47.87738807 -28.63418265 49.12181521 -32.36650276 50.3638401 C-34.15964603 50.96189754 -35.95184154 51.56280422 -37.7430706 52.16657066 C-40.24448457 53.00857061 -42.7494229 53.83909833 -45.25561523 54.66674805 C-45.99909714 54.91967117 -46.74257904 55.1725943 -47.5085907 55.43318176 C-52.65741745 57.11419418 -52.65741745 57.11419418 -56 56 C-37.52 37.52 -19.04 19.04 0 0 Z " fill="#074994" transform="translate(270,331)"/>
</svg>
