<?xml version="1.0" encoding="UTF-8"?>
<svg version="1.1" xmlns="http://www.w3.org/2000/svg" width="480" height="480">
<path d="M0 0 C0.81176193 -0.00979385 1.62352386 -0.01958771 2.45988464 -0.02967834 C20.42209711 -0.20170332 37.75572087 -0.02748286 55.3125 4.23828125 C56.18745117 4.44195312 57.06240234 4.645625 57.96386719 4.85546875 C101.27108341 15.18416809 139.81787087 41.70916841 166.3125 77.23828125 C166.93769531 78.0684375 167.56289063 78.89859375 168.20703125 79.75390625 C178.44026406 93.8455711 185.97688889 109.06414951 192.3125 125.23828125 C192.57401855 125.90005371 192.83553711 126.56182617 193.10498047 127.24365234 C199.58468047 143.99374431 203.37112499 162.96779541 203.55078125 180.92578125 C203.5605751 181.7375885 203.57036896 182.54939575 203.58045959 183.38580322 C204.07142197 234.65241848 190.22579898 283.22068741 154.3125 321.23828125 C153.20390313 322.54704145 152.09959026 323.85944484 151 325.17578125 C132.64769235 346.08400389 108.43887453 360.08277969 83.3125 371.23828125 C82.05783936 371.79721069 82.05783936 371.79721069 80.77783203 372.36743164 C78.3125 373.23828125 78.3125 373.23828125 74.3125 373.23828125 C74.31694122 372.66802216 74.32138245 372.09776306 74.32595825 371.51022339 C74.37064225 365.50667866 74.40055079 359.50318212 74.42236328 353.49951172 C74.43234247 351.26707028 74.4459306 349.03464165 74.46337891 346.80224609 C74.66012977 320.95844147 72.40037876 298.3341816 53.79296875 278.62890625 C50.8144626 275.758283 47.77068303 273.49361801 44.3125 271.23828125 C44.3125 270.90828125 44.3125 270.57828125 44.3125 270.23828125 C44.9202124 270.14329346 45.5279248 270.04830566 46.15405273 269.95043945 C75.64562646 265.26989865 106.60064018 257.7190146 125.3125 232.23828125 C136.6126638 215.19184239 140.25538761 195.13140844 136.65234375 174.9921875 C133.89343847 163.51466379 129.21933315 153.28210535 121.125 144.67578125 C118.8924673 141.83061753 117.31454237 139.75882249 117.30957031 136.05712891 C117.77964642 132.57700351 118.56876806 129.21719798 119.41552734 125.81152344 C121.18921976 118.60182768 121.77344325 111.84757006 121.75 104.42578125 C121.75894287 103.43030273 121.76788574 102.43482422 121.77709961 101.40917969 C121.69762961 94.03286233 120.47119793 88.47632814 116.3125 82.23828125 C105.92101629 79.84943442 92.91273121 84.92822964 83.9375 89.98828125 C77.79203446 93.98804187 72.48261433 99.06816692 67.3125 104.23828125 C63.01867919 103.8928625 58.97643771 102.93967348 54.82250977 101.82885742 C29.90595336 95.28270031 3.14416868 95.65417872 -21.45703125 103.4296875 C-24.80230061 104.26701611 -26.47774664 104.43094645 -29.6875 103.23828125 C-31.46875 101.671875 -31.46875 101.671875 -33.1875 99.67578125 C-43.40726356 89.03654979 -58.20060119 82.28183325 -73 81.67578125 C-75.50826244 81.56237848 -75.50826244 81.56237848 -77.6875 82.23828125 C-83.06881843 87.9978783 -83.61832578 96.69829167 -83.6875 104.23828125 C-83.52738251 107.33197996 -83.25145034 110.40666727 -82.9375 113.48828125 C-82.8542749 114.30723877 -82.7710498 115.12619629 -82.68530273 115.9699707 C-82.23894979 119.87469243 -81.66322919 123.59725863 -80.56640625 127.375 C-77.93589532 136.75041076 -77.93589532 136.75041076 -80.21875 141.26953125 C-81.77424072 143.25118381 -83.39139862 145.18557938 -85.05859375 147.07421875 C-96.96152254 160.64888268 -100.33443914 179.56817604 -99.5078125 197.03515625 C-97.56881757 215.79196432 -89.28003392 233.03127202 -74.6875 245.23828125 C-54.56785392 260.96312906 -30.49875943 266.59218219 -5.6875 270.23828125 C-8.53645633 273.14145647 -11.39879855 275.87250352 -14.5625 278.42578125 C-21.71403901 284.64977103 -26.09406483 292.52228351 -29.9375 301.0859375 C-31.6875 303.23828125 -31.6875 303.23828125 -34.83422852 303.85791016 C-40.70320626 304.43725929 -46.55634523 304.5008305 -52.44799805 304.53344727 C-53.89764143 304.54498979 -55.34724156 304.56547779 -56.79663086 304.5949707 C-73.78438127 304.93953811 -73.78438127 304.93953811 -80.26489258 298.72583008 C-81.80502371 297.03603648 -83.21855212 295.29044322 -84.625 293.48828125 C-95.06578193 280.36133198 -95.06578193 280.36133198 -109.96484375 274.00390625 C-111.87394782 273.99048548 -113.78320048 274.10225986 -115.6875 274.23828125 C-113.93654432 277.74019261 -111.88399002 279.99541878 -109 282.55078125 C-101.04024611 290.3352745 -97.20606451 301.51579 -93.5 311.80078125 C-89.78671992 322.01900633 -85.65023844 327.39923686 -75.6875 332.23828125 C-71.05308413 334.06285776 -66.81546415 334.56987044 -61.8828125 334.65234375 C-60.7968428 334.68139297 -60.7968428 334.68139297 -59.68893433 334.71102905 C-57.39690602 334.77038011 -55.10482626 334.81703003 -52.8125 334.86328125 C-51.24997919 334.90150212 -49.68747852 334.94055619 -48.125 334.98046875 C-44.31266535 335.07604433 -40.5002322 335.16023731 -36.6875 335.23828125 C-36.66244385 336.21587402 -36.6373877 337.1934668 -36.61157227 338.20068359 C-36.51648346 341.87233735 -36.41652248 345.54384586 -36.31518555 349.21533203 C-36.27221615 350.79602632 -36.23051955 352.3767558 -36.19018555 353.95751953 C-35.97316132 362.42950236 -35.69191277 370.81471872 -34.6875 379.23828125 C-82.22920424 368.2892827 -124.91534516 337.56027627 -151.1015625 296.5078125 C-161.50271826 279.76534964 -169.77931932 262.05184177 -174.875 242.98828125 C-175.11299316 242.10906006 -175.35098633 241.22983887 -175.59619141 240.32397461 C-179.64130335 224.49644656 -181.24555943 208.85128137 -181.125 192.55078125 C-181.12229095 191.68386658 -181.11958191 190.8169519 -181.11679077 189.92376709 C-181.04973593 175.71042478 -179.99016354 162.10450998 -176.6875 148.23828125 C-176.51621582 147.46581055 -176.34493164 146.69333984 -176.16845703 145.89746094 C-166.42970462 102.58293294 -138.98291779 63.55864023 -103.6875 37.23828125 C-102.85734375 36.61308594 -102.0271875 35.98789063 -101.171875 35.34375 C-87.08021015 25.11051719 -71.86163174 17.57389236 -55.6875 11.23828125 C-55.02572754 10.9767627 -54.36395508 10.71524414 -53.68212891 10.44580078 C-36.9320364 3.96610057 -17.95798621 0.17965746 0 0 Z " fill="#000000" transform="translate(228.6875,47.76171875)"/>
</svg>
