<?xml version="1.0" encoding="UTF-8"?>
<svg version="1.1" xmlns="http://www.w3.org/2000/svg" width="100" height="100">
<path d="M0 0 C2.22265625 2.3671875 2.22265625 2.3671875 4.0625 5.875 C4.8011779 7.22835917 5.54084504 8.58117866 6.28125 9.93359375 C6.69503906 10.71331543 7.10882813 11.49303711 7.53515625 12.29638672 C9.26741632 15.4935614 11.0795583 18.64141572 12.90625 21.78515625 C13.41834267 22.66657288 13.41834267 22.66657288 13.94078064 23.5657959 C14.63440605 24.75907476 15.32820828 25.95225086 16.02218628 27.14532471 C18.69755214 31.75424652 21.34578342 36.37888029 24 41 C27.72922289 41 30.11543973 40.51880519 33.640625 39.46875 C34.71054687 39.15292969 35.78046875 38.83710937 36.8828125 38.51171875 C37.99398437 38.17785156 39.10515625 37.84398437 40.25 37.5 C41.93996094 36.99919922 41.93996094 36.99919922 43.6640625 36.48828125 C46.44418018 35.66367007 49.22270961 34.83407443 52 34 C51.41089844 33.19175781 50.82179688 32.38351563 50.21484375 31.55078125 C49.08755859 29.94783203 49.08755859 29.94783203 47.9375 28.3125 C47.18339844 27.25675781 46.42929688 26.20101562 45.65234375 25.11328125 C44 22 44 22 44.25390625 19.10546875 C44.50011719 18.41066406 44.74632813 17.71585938 45 17 C46.87256417 16.49095343 48.74819341 15.99317545 50.625 15.5 C51.66914062 15.2215625 52.71328125 14.943125 53.7890625 14.65625 C57.10261146 13.97902832 59.64473563 13.50563635 63 14 C65.23046875 16.265625 65.23046875 16.265625 67.1875 19.25 C67.84105469 20.22453125 68.49460937 21.1990625 69.16796875 22.203125 C69.77253906 23.12609375 70.37710938 24.0490625 71 25 C71.56976563 25.721875 72.13953125 26.44375 72.7265625 27.1875 C74.38553955 29.5487434 74.23502342 31.17971891 74 34 C72.75336669 34.50833591 71.50250613 35.00631145 70.25 35.5 C69.55390625 35.7784375 68.8578125 36.056875 68.140625 36.34375 C66 37 66 37 62 37 C64.37236388 41.45196797 66.72261238 45.75080259 69.8125 49.75 C72.10988869 53.1632632 72.23229654 54.09741817 72 58 C67.39562727 59.71935196 62.78747427 61.4279958 58.17553711 63.12695312 C56.60805299 63.70607527 55.04163038 64.28807919 53.47631836 64.87304688 C51.22263927 65.71468759 48.96531185 66.545798 46.70703125 67.375 C46.01100296 67.63748535 45.31497467 67.8999707 44.59785461 68.17041016 C37.82876175 70.63330629 37.82876175 70.63330629 34 70 C32.1803584 67.59698493 30.79106596 65.43710502 29.375 62.8125 C28.9934375 62.13896484 28.611875 61.46542969 28.21875 60.77148438 C27.47551343 59.45800595 26.73925084 58.1405516 26.01074219 56.81884766 C24.72887 54.51209698 23.373693 52.25303152 22 50 C17.21401012 50.92189149 12.45566196 51.84827001 7.75 53.125 C4.30469266 53.92890505 1.50791232 54.0693655 -2 54 C-6.02956934 46.68263896 -10.02423177 39.34672161 -14 32 C-14.57621094 30.9378125 -15.15242187 29.875625 -15.74609375 28.78125 C-17.42598277 25.67288392 -19.09015744 22.55660826 -20.75 19.4375 C-21.53745605 17.98525024 -21.53745605 17.98525024 -22.34082031 16.50366211 C-22.82131836 15.59366455 -23.30181641 14.68366699 -23.796875 13.74609375 C-24.43641113 12.55004517 -24.43641113 12.55004517 -25.08886719 11.32983398 C-26.10570013 8.72971696 -26.17294983 6.76750386 -26 4 C-23.93771534 3.51990738 -21.87516299 3.04096456 -19.8125 2.5625 C-18.08966797 2.16224609 -18.08966797 2.16224609 -16.33203125 1.75390625 C-15.23246094 1.50511719 -14.13289062 1.25632812 -13 1 C-12.19949219 0.80277344 -11.39898437 0.60554688 -10.57421875 0.40234375 C-6.7987468 -0.18775278 -3.84862405 -0.41957249 0 0 Z M-13.75 6.5 C-14.92046875 6.7784375 -16.0909375 7.056875 -17.296875 7.34375 C-18.18890625 7.5603125 -19.0809375 7.776875 -20 8 C-13.20565596 21.77342854 -6.11189246 35.38841095 1 49 C3.62728858 48.38357466 6.25153582 47.75732213 8.875 47.125 C9.62136719 46.95097656 10.36773437 46.77695312 11.13671875 46.59765625 C15.48883671 45.61076121 15.48883671 45.61076121 19 43 C16.83266704 39.19464718 14.66381416 35.39016571 12.49365234 31.58642578 C11.75822539 30.29694081 11.02318784 29.00723366 10.28857422 27.71728516 C8.52664848 24.62369931 6.75949018 21.53342285 4.97949219 18.45019531 C3.72489561 16.26347123 2.48875994 14.0659647 1.27832031 11.85449219 C0.76624023 10.94086914 0.25416016 10.02724609 -0.2734375 9.0859375 C-0.92578369 7.89170166 -0.92578369 7.89170166 -1.59130859 6.67333984 C-2.05617676 6.1211377 -2.52104492 5.56893555 -3 5 C-6.90618999 5 -9.96796393 5.59231134 -13.75 6.5 Z M53.8125 19.9375 C52.554375 20.288125 51.29625 20.63875 50 21 C51.06825188 22.82142946 52.15515702 24.63192912 53.25 26.4375 C53.85328125 27.44683594 54.4565625 28.45617187 55.078125 29.49609375 C56.74364504 32.07317518 56.74364504 32.07317518 59 32.90625 C62.20303896 33.05639245 64.983747 31.98608271 68 31 C66.90630138 29.18116422 65.79968608 27.37009022 64.6875 25.5625 C63.76517578 24.04849609 63.76517578 24.04849609 62.82421875 22.50390625 C60.0779939 18.73446271 58.00791906 18.76828485 53.8125 19.9375 Z M55 39 C50.70538541 40.11394627 46.41489017 41.24300804 42.125 42.375 C40.90167969 42.69210938 39.67835937 43.00921875 38.41796875 43.3359375 C37.25136719 43.6453125 36.08476563 43.9546875 34.8828125 44.2734375 C33.80402832 44.55622559 32.72524414 44.83901367 31.61376953 45.13037109 C28.87734044 45.82418297 28.87734044 45.82418297 27 48 C30.3 53.61 33.6 59.22 37 65 C40.71012994 63.73422633 44.4180736 62.46259336 48.125 61.1875 C49.69507813 60.65286133 49.69507813 60.65286133 51.296875 60.10742188 C56.38564256 58.35211914 61.27569086 56.59101383 66 54 C64.92333797 52.2458877 63.83836661 50.49687413 62.75 48.75 C62.14671875 47.77546875 61.5434375 46.8009375 60.921875 45.796875 C59.13369217 43.19456015 57.25548881 41.18987459 55 39 Z " fill="#FF0000" transform="translate(26,16)"/>
</svg>
