<?xml version="1.0" encoding="UTF-8"?>
<svg version="1.1" xmlns="http://www.w3.org/2000/svg" width="2048" height="2048">
<path d="M0 0 C4.98259317 0.00916783 9.96471662 0.00229393 14.94726562 -0.02050781 C45.09232137 -0.15781838 74.7654343 0.68587009 104.73890686 3.99214172 C110.50199549 4.62071473 116.2774724 5.06993683 122.05761719 5.50854492 C130.28273228 6.19673263 138.36623668 7.35514354 146.50292969 8.72729492 C150.90284055 9.45776002 155.31156788 9.96974237 159.74511719 10.44604492 C166.23632687 11.15436788 172.56138525 12.25825249 178.94433594 13.66479492 C182.41055711 14.3857097 185.89337745 14.85519003 189.40136719 15.32885742 C197.61581288 16.47629971 205.69461422 18.11779988 213.80761719 19.82104492 C215.32802824 20.13736232 216.8484548 20.45360523 218.36889648 20.76977539 C227.60333452 22.69755594 236.81181718 24.69963685 245.97216797 26.95581055 C248.28716979 27.51681992 250.60735397 28.05257594 252.92871094 28.58666992 C265.40963919 31.4730293 277.71457832 34.80388174 289.99511719 38.44604492 C291.30971924 38.83542236 291.30971924 38.83542236 292.65087891 39.23266602 C301.78799154 41.94537772 310.91205654 44.70154257 320.01464844 47.52807617 C322.00825028 48.14209509 324.00574844 48.74359783 326.00683594 49.33276367 C333.27453891 51.49392503 340.36726837 54.00388548 347.46508789 56.65917969 C354.37720915 59.24081534 361.33418056 61.6785433 368.3215332 64.04882812 C372.73885011 65.56868232 376.83332554 67.30116841 380.99511719 69.44604492 C382.27495133 69.89775109 383.56677421 70.31748057 384.87011719 70.69604492 C390.09740821 72.36771667 395.04414266 74.59981543 400.05249023 76.82568359 C403.73712676 78.46181248 407.42414727 80.04691773 411.18261719 81.50854492 C416.09068314 83.43376271 420.85146164 85.64621659 425.62402344 87.88354492 C431.14090979 90.44061855 436.70378312 92.89047399 442.28417969 95.30541992 C450.81695319 99.01379718 459.09672687 102.97516462 467.26074219 107.43432617 C471.24645703 109.60439722 475.30233573 111.62266684 479.37011719 113.63354492 C484.2669502 116.06073659 489.10939336 118.5372637 493.86230469 121.23901367 C496.36692479 122.65646351 498.8992959 124.01809181 501.43261719 125.38354492 C505.8574352 127.78980896 510.17234722 130.33803042 514.47558594 132.95385742 C517.05280646 134.48021128 519.66717098 135.90720252 522.30761719 137.32104492 C527.52495009 140.13488739 532.54140456 143.21901285 537.56933594 146.35620117 C542.32105106 149.29022964 547.2124481 151.97879115 552.09667969 154.68432617 C554.54101673 156.17003507 556.02816429 157.45782766 557.99511719 159.44604492 C559.80091246 160.5148364 561.63762433 161.53236252 563.49511719 162.50854492 C566.43930418 164.06374047 569.22195013 165.59726689 571.99511719 167.44604492 C571.99511719 168.10604492 571.99511719 168.76604492 571.99511719 169.44604492 C572.73375 169.72061523 573.47238281 169.99518555 574.23339844 170.27807617 C576.80626485 171.36617668 578.8850817 172.56018572 581.18261719 174.13354492 C581.9625 174.66463867 582.74238281 175.19573242 583.54589844 175.74291992 C586.82773476 178.0250262 590.09139347 180.33256116 593.35449219 182.64135742 C597.13071078 185.22214587 601.02806966 187.59756879 604.94042969 189.96557617 C605.61847656 190.45413086 606.29652344 190.94268555 606.99511719 191.44604492 C606.99511719 192.10604492 606.99511719 192.76604492 606.99511719 193.44604492 C607.71699219 193.69483398 608.43886719 193.94362305 609.18261719 194.19995117 C612.26406788 195.56520502 614.41779715 197.22101233 616.99511719 199.38354492 C619.54702748 201.51678243 621.92593785 203.40597855 624.80761719 205.07495117 C625.89042969 205.75364258 625.89042969 205.75364258 626.99511719 206.44604492 C626.99511719 207.10604492 626.99511719 207.76604492 626.99511719 208.44604492 C627.73246094 208.70901367 628.46980469 208.97198242 629.22949219 209.24291992 C632.02187874 210.45768695 633.90681512 211.76147846 636.24511719 213.69604492 C637.10363281 214.39987305 637.96214844 215.10370117 638.84667969 215.82885742 C639.89639916 216.70096409 640.9458505 217.57339355 641.99511719 218.44604492 C644.12114693 220.20505041 646.24855438 221.9623675 648.37695312 223.71850586 C649.83793674 224.92507352 651.29702198 226.1339447 652.75390625 227.34545898 C656.91101099 230.78869786 661.13132165 234.06253935 665.53955078 237.17993164 C666.26005615 237.80665771 666.26005615 237.80665771 666.99511719 238.44604492 C666.99511719 239.10604492 666.99511719 239.76604492 666.99511719 240.44604492 C668.07792969 240.78635742 668.07792969 240.78635742 669.18261719 241.13354492 C671.89917111 242.40127009 673.38284022 243.70676982 675.39355469 245.87963867 C678.3439116 248.76523165 681.70708343 251.1750352 684.98339844 253.67651367 C685.64726563 254.26045898 686.31113281 254.8444043 686.99511719 255.44604492 C686.99511719 256.10604492 686.99511719 256.76604492 686.99511719 257.44604492 C687.57849854 257.70724121 688.16187988 257.9684375 688.76293945 258.23754883 C691.12981785 259.51897157 692.77105392 260.92174469 694.70996094 262.78198242 C695.39638672 263.43424805 696.0828125 264.08651367 696.79003906 264.75854492 C697.49708984 265.43916992 698.20414063 266.11979492 698.93261719 266.82104492 C700.33592909 268.16390251 701.74083843 269.50509304 703.14746094 270.84448242 C704.13721924 271.78759277 704.13721924 271.78759277 705.14697266 272.74975586 C706.69871876 274.1740005 708.34050445 275.49926096 709.99902344 276.79760742 C710.65773438 277.3415918 711.31644531 277.88557617 711.99511719 278.44604492 C711.99511719 279.10604492 711.99511719 279.76604492 711.99511719 280.44604492 C712.95417969 280.84823242 712.95417969 280.84823242 713.93261719 281.25854492 C715.99511719 282.44604492 715.99511719 282.44604492 716.99511719 285.44604492 C717.65511719 285.77604492 718.31511719 286.10604492 718.99511719 286.44604492 C719.65511719 286.77604492 720.31511719 287.10604492 720.99511719 287.44604492 C721.32511719 288.43604492 721.65511719 289.42604492 721.99511719 290.44604492 C723.31850351 291.13224524 724.65461666 291.79390953 725.99511719 292.44604492 C730.36232683 295.74571443 733.84905277 299.40448834 737.38183594 303.57885742 C738.95277881 305.45974577 738.95277881 305.45974577 740.70214844 307.06323242 C741.99511719 308.44604492 741.99511719 308.44604492 741.99511719 310.44604492 C742.95417969 310.84823242 742.95417969 310.84823242 743.93261719 311.25854492 C745.99511719 312.44604492 745.99511719 312.44604492 746.99511719 315.44604492 C747.65511719 315.77604492 748.31511719 316.10604492 748.99511719 316.44604492 C749.65511719 316.77604492 750.31511719 317.10604492 750.99511719 317.44604492 C751.32511719 318.43604492 751.65511719 319.42604492 751.99511719 320.44604492 C753.32613776 321.1173172 754.65988859 321.78318233 755.99511719 322.44604492 C758.00292969 324.44213867 758.00292969 324.44213867 760.12011719 326.88354492 C762.65254131 329.77834587 765.18236286 332.66674862 767.80371094 335.48120117 C768.49279541 336.22382202 768.49279541 336.22382202 769.19580078 336.98144531 C770.50352939 338.38787484 771.81372399 339.7920102 773.12402344 341.19604492 C774.99511719 343.44604492 774.99511719 343.44604492 774.99511719 345.44604492 C775.65511719 345.44604492 776.31511719 345.44604492 776.99511719 345.44604492 C778.47280936 347.08037247 779.87781038 348.7808086 781.24511719 350.50854492 C783.95460328 353.90525124 786.67311864 357.2591814 789.55761719 360.50854492 C791.99511719 363.44604492 791.99511719 363.44604492 791.99511719 365.44604492 C792.56101562 365.65616211 793.12691406 365.8662793 793.70996094 366.08276367 C796.76485857 367.90525816 798.50634291 370.4286607 800.55761719 373.25854492 C804.09467989 378.00694867 807.75067041 382.5894975 811.62011719 387.07104492 C816.40628412 392.64320013 820.7410261 398.45636013 824.99511719 404.44604492 C825.98987127 405.78329661 826.9895184 407.1169291 827.99511719 408.44604492 C828.99600173 409.77871439 829.99590492 411.11212115 830.99511719 412.44604492 C832.05859375 413.86530273 832.05859375 413.86530273 833.14355469 415.31323242 C833.87832031 416.30581055 834.61308594 417.29838867 835.37011719 418.32104492 C836.05847656 419.2465918 836.74683594 420.17213867 837.45605469 421.12573242 C838.99511719 423.44604492 838.99511719 423.44604492 838.99511719 425.44604492 C839.65511719 425.44604492 840.31511719 425.44604492 840.99511719 425.44604492 C842.44042969 427.46557617 842.44042969 427.46557617 844.12011719 430.25854492 C846.60305284 434.2817249 849.17868591 438.14879419 851.99511719 441.94604492 C862.99511719 456.87768555 862.99511719 456.87768555 862.99511719 460.44604492 C863.65511719 460.44604492 864.31511719 460.44604492 864.99511719 460.44604492 C866.61621094 462.67651367 866.61621094 462.67651367 868.43261719 465.63354492 C869.02945312 466.59647461 869.62628906 467.5594043 870.24121094 468.55151367 C871.33421032 470.3553278 872.42232766 472.16212051 873.50292969 473.97338867 C875.10038748 476.62048497 876.75999772 479.22084806 878.43261719 481.82104492 C886.04636076 493.78779378 886.04636076 493.78779378 887.99511719 500.44604492 C888.65511719 500.44604492 889.31511719 500.44604492 889.99511719 500.44604492 C890.54039062 501.46311523 890.54039062 501.46311523 891.09667969 502.50073242 C893.63188202 507.194107 896.20154911 511.838454 898.99511719 516.38354492 C901.83099383 521.03824298 904.22017941 525.85857405 906.61621094 530.75073242 C908.20187531 533.85018969 910.01969122 536.58508318 911.99511719 539.44604492 C913.01459759 541.43618555 914.01134764 543.43801168 914.99511719 545.44604492 C918.69551516 552.92218833 922.40056098 560.38369857 926.36425781 567.72460938 C930.6615763 575.69116245 934.47444715 583.77859564 938.08105469 592.07885742 C939.89010854 596.23986533 941.80321659 600.34572155 943.74511719 604.44604492 C945.99853331 609.22017894 948.07498293 614.0245587 949.97558594 618.94995117 C951.16433297 621.86033183 952.51349461 624.6726078 953.87011719 627.50854492 C956.60515645 633.33777002 958.79478051 639.2531968 960.81494141 645.35839844 C961.99074852 648.85285714 963.28317626 652.1221395 964.98730469 655.39526367 C967.1637766 659.60934942 968.56394181 663.93570224 969.99511719 668.44604492 C970.56496319 670.11335982 971.14072259 671.77866271 971.72167969 673.44213867 C972.02702637 674.31789551 972.33237305 675.19365234 972.64697266 676.09594727 C973.1286792 677.47580811 973.1286792 677.47580811 973.62011719 678.88354492 C973.96059082 679.86274902 974.30106445 680.84195313 974.65185547 681.85083008 C976.57269533 687.37487655 978.50440062 692.89489275 980.44824219 698.41088867 C981.25558784 700.71425517 982.06288069 703.01764017 982.87011719 705.32104492 C983.25119629 706.39539795 983.63227539 707.46975098 984.02490234 708.57666016 C985.85303069 713.80779974 987.4333961 718.93934026 988.54296875 724.3684082 C989.28871902 727.79515487 990.35948141 731.11009982 991.43261719 734.44604492 C991.65288574 735.14318604 991.8731543 735.84032715 992.10009766 736.55859375 C993.22428531 740.10172596 994.39422997 743.62452384 995.62011719 747.13354492 C997.52991443 752.78783225 998.71262979 758.62449219 999.99511719 764.44604492 C1001.47566471 771.13682524 1003.05059091 777.74810248 1004.99511719 784.32104492 C1006.35538461 788.98316678 1007.48468925 793.61099814 1008.40136719 798.37963867 C1009.4474235 803.74218941 1010.54820347 809.08868006 1011.71386719 814.42651367 C1014.68509691 828.08814311 1017.56068699 841.69232558 1019.44824219 855.55541992 C1019.87979916 858.62563949 1020.39641844 861.60805974 1021.05761719 864.63354492 C1022.0987188 869.53184269 1022.62516669 874.47879614 1023.17504883 879.45043945 C1023.71769123 884.28773872 1024.3733158 889.09541692 1025.1027832 893.90795898 C1026.63207519 904.04487139 1027.6748497 914.15355116 1028.4284668 924.37597656 C1028.79181161 929.12623055 1029.23457502 933.86031769 1029.73364258 938.59814453 C1032.35113108 964.53099774 1032.49146216 990.40403639 1032.44116211 1016.45092773 C1032.43199428 1021.43352091 1032.43886818 1026.41564435 1032.46166992 1031.39819336 C1032.59898049 1061.54324911 1031.75529202 1091.21636204 1028.44902039 1121.18983459 C1027.82044738 1126.95292322 1027.37122528 1132.72840014 1026.93261719 1138.50854492 C1026.24442947 1146.73366001 1025.08601857 1154.81716442 1023.71386719 1162.95385742 C1022.98340209 1167.35376829 1022.47141974 1171.76249561 1021.99511719 1176.19604492 C1021.28679423 1182.6872546 1020.18290961 1189.01231298 1018.77636719 1195.39526367 C1018.05545241 1198.86148484 1017.58597208 1202.34430518 1017.11230469 1205.85229492 C1015.96485657 1214.06678234 1014.32300817 1222.14543985 1012.62011719 1230.25854492 C1012.30451115 1231.77675435 1011.98900081 1233.29498367 1011.67358398 1234.81323242 C1009.8676654 1243.47050888 1007.98796608 1252.10358793 1005.89355469 1260.69604492 C1005.02892243 1264.30494477 1004.23292217 1267.92253001 1003.45043945 1271.54980469 C1002.1420667 1277.60434433 1000.8303127 1283.53158541 998.69091797 1289.35839844 C998.00039986 1291.43019504 997.52362341 1293.45627839 997.08496094 1295.59448242 C996.02577836 1300.47998701 994.64586236 1305.230717 993.18261719 1310.00854492 C992.91908447 1310.87769531 992.65555176 1311.7468457 992.3840332 1312.64233398 C990.35844078 1319.30525829 988.29775253 1325.95716664 986.20214844 1332.59838867 C985.39170884 1335.16923609 984.59871238 1337.74452193 983.81933594 1340.32495117 C981.38348653 1348.34516276 978.67201203 1356.21981817 975.73095703 1364.0690918 C973.16321901 1370.92939676 970.74520631 1377.83641613 968.39208984 1384.77319336 C966.87231058 1389.1902501 965.13986942 1393.28449442 962.99511719 1397.44604492 C962.54341102 1398.72587906 962.12368154 1400.01770194 961.74511719 1401.32104492 C960.07344544 1406.54833594 957.84134668 1411.4950704 955.61547852 1416.50341797 C953.97934963 1420.18805449 952.39424438 1423.87507501 950.93261719 1427.63354492 C949.0073994 1432.54161088 946.79494552 1437.30238937 944.55761719 1442.07495117 C942.00054356 1447.59183752 939.55068812 1453.15471086 937.13574219 1458.73510742 C933.42618625 1467.270593 929.46295338 1475.55259615 925.00292969 1483.71948242 C922.85656442 1487.6618288 920.85888661 1491.67245435 918.87011719 1495.69604492 C915.72910335 1502.03355143 912.43984167 1508.26725545 908.99511719 1514.44604492 C908.57617188 1515.21174805 908.15722656 1515.97745117 907.72558594 1516.76635742 C905.59073613 1520.65652819 903.37696639 1524.4752948 901.05761719 1528.25854492 C898.22010876 1532.92693925 895.82074206 1537.74719456 893.48730469 1542.68432617 C891.92134975 1545.58257262 890.05305626 1547.87944544 887.99511719 1550.44604492 C886.61683419 1552.76566013 885.28776195 1555.08069981 883.99511719 1557.44604492 C882.64598036 1559.8655445 881.28926061 1562.28074913 879.93261719 1564.69604492 C879.59423828 1565.30706055 879.25585938 1565.91807617 878.90722656 1566.54760742 C877.18709488 1569.5952682 875.47406109 1572.00730011 872.99511719 1574.44604492 C871.92632571 1576.2518402 870.90879959 1578.08855206 869.93261719 1579.94604492 C868.37742164 1582.89023192 866.84389522 1585.67287787 864.99511719 1588.44604492 C864.33511719 1588.44604492 863.67511719 1588.44604492 862.99511719 1588.44604492 C862.71539063 1589.19241211 862.43566406 1589.9387793 862.14746094 1590.70776367 C861.1202943 1593.14859016 860.04863387 1595.08617343 858.55761719 1597.25854492 C857.77644531 1598.40516602 857.77644531 1598.40516602 856.97949219 1599.57495117 C855.99722656 1600.99614258 855.99722656 1600.99614258 854.99511719 1602.44604492 C853.59263954 1604.4790086 852.19081016 1606.51241489 850.78979492 1608.54638672 C849.81733801 1609.95677761 848.84295449 1611.36584246 847.86645508 1612.7734375 C845.89838522 1615.62045118 844.00814753 1618.42326418 842.28808594 1621.43041992 C841.86140625 1622.09557617 841.43472656 1622.76073242 840.99511719 1623.44604492 C840.33511719 1623.44604492 839.67511719 1623.44604492 838.99511719 1623.44604492 C838.74503906 1624.16920898 838.49496094 1624.89237305 838.23730469 1625.63745117 C836.88578653 1628.69324223 835.26129207 1630.82625493 833.12011719 1633.38354492 C830.15419633 1636.94152223 827.55928122 1640.59001199 824.99511719 1644.44604492 C823.39008072 1646.57067794 821.77273595 1648.67195743 820.12011719 1650.75854492 C819.65323486 1651.35103027 819.18635254 1651.94351562 818.70532227 1652.55395508 C814.20162064 1658.24075154 809.58745944 1663.83613102 804.94287109 1669.40820312 C801.55012607 1673.49315459 798.33500787 1677.64534161 795.26782227 1681.98168945 C794.63783325 1682.70654541 794.63783325 1682.70654541 793.99511719 1683.44604492 C793.33511719 1683.44604492 792.67511719 1683.44604492 791.99511719 1683.44604492 C791.76824219 1684.16791992 791.54136719 1684.88979492 791.30761719 1685.63354492 C790.03989202 1688.35009885 788.73439229 1689.83376796 786.56152344 1691.84448242 C783.67593046 1694.79483933 781.2661269 1698.15801116 778.76464844 1701.43432617 C778.18070313 1702.09819336 777.59675781 1702.76206055 776.99511719 1703.44604492 C776.33511719 1703.44604492 775.67511719 1703.44604492 774.99511719 1703.44604492 C774.7339209 1704.02942627 774.47272461 1704.61280762 774.20361328 1705.21386719 C772.92219054 1707.58074559 771.51941742 1709.22198165 769.65917969 1711.16088867 C768.68078125 1712.19052734 768.68078125 1712.19052734 767.68261719 1713.2409668 C767.00199219 1713.94801758 766.32136719 1714.65506836 765.62011719 1715.38354492 C764.2772596 1716.78685682 762.93606907 1718.19176616 761.59667969 1719.59838867 C760.96793945 1720.25822754 760.33919922 1720.91806641 759.69140625 1721.59790039 C758.26716161 1723.1496465 756.94190115 1724.79143218 755.64355469 1726.44995117 C754.82757812 1727.43801758 754.82757812 1727.43801758 753.99511719 1728.44604492 C753.33511719 1728.44604492 752.67511719 1728.44604492 751.99511719 1728.44604492 C751.59292969 1729.40510742 751.59292969 1729.40510742 751.18261719 1730.38354492 C749.99511719 1732.44604492 749.99511719 1732.44604492 746.99511719 1733.44604492 C746.66511719 1734.10604492 746.33511719 1734.76604492 745.99511719 1735.44604492 C745.66511719 1736.10604492 745.33511719 1736.76604492 744.99511719 1737.44604492 C744.00511719 1737.77604492 743.01511719 1738.10604492 741.99511719 1738.44604492 C741.66511719 1739.10604492 741.33511719 1739.76604492 740.99511719 1740.44604492 C740.66511719 1741.10604492 740.33511719 1741.76604492 739.99511719 1742.44604492 C739.00511719 1742.77604492 738.01511719 1743.10604492 736.99511719 1743.44604492 C736.87136719 1744.02354492 736.74761719 1744.60104492 736.62011719 1745.19604492 C735.67642028 1748.59335379 733.62372183 1750.18422233 730.99511719 1752.44604492 C729.66405097 1752.78831909 728.3311164 1753.12356235 726.99511719 1753.44604492 C726.29574187 1754.76251611 725.62782585 1756.09626643 724.99511719 1757.44604492 C724.00511719 1757.77604492 723.01511719 1758.10604492 721.99511719 1758.44604492 C721.66511719 1759.10604492 721.33511719 1759.76604492 720.99511719 1760.44604492 C720.66511719 1761.10604492 720.33511719 1761.76604492 719.99511719 1762.44604492 C719.00511719 1762.77604492 718.01511719 1763.10604492 716.99511719 1763.44604492 C716.66511719 1764.10604492 716.33511719 1764.76604492 715.99511719 1765.44604492 C715.66511719 1766.10604492 715.33511719 1766.76604492 714.99511719 1767.44604492 C714.00511719 1767.77604492 713.01511719 1768.10604492 711.99511719 1768.44604492 C711.32384491 1769.77706549 710.65797978 1771.11081633 709.99511719 1772.44604492 C707.99902344 1774.45385742 707.99902344 1774.45385742 705.55761719 1776.57104492 C702.66281624 1779.10346904 699.77441349 1781.63329059 696.95996094 1784.25463867 C696.46488037 1784.71402832 695.9697998 1785.17341797 695.4597168 1785.64672852 C694.05328727 1786.95445712 692.6491519 1788.26465173 691.24511719 1789.57495117 C688.99511719 1791.44604492 688.99511719 1791.44604492 686.99511719 1791.44604492 C686.99511719 1792.10604492 686.99511719 1792.76604492 686.99511719 1793.44604492 C685.36078964 1794.9237371 683.66035351 1796.32873812 681.93261719 1797.69604492 C678.53591087 1800.40553102 675.18198071 1803.12404637 671.93261719 1806.00854492 C668.99511719 1808.44604492 668.99511719 1808.44604492 666.99511719 1808.44604492 C666.66511719 1809.43604492 666.33511719 1810.42604492 665.99511719 1811.44604492 C663.94634057 1813.19875556 661.89791741 1814.83108866 659.74511719 1816.44604492 C654.81711079 1820.22002851 650.0077476 1824.07935343 645.30761719 1828.13354492 C639.75582915 1832.89641675 633.95968587 1837.2097922 627.99511719 1841.44604492 C626.65786549 1842.44079901 625.32423301 1843.44044614 623.99511719 1844.44604492 C622.66244772 1845.44692946 621.32904096 1846.44683265 619.99511719 1847.44604492 C619.04894531 1848.1550293 618.10277344 1848.86401367 617.12792969 1849.59448242 C616.13535156 1850.32924805 615.14277344 1851.06401367 614.12011719 1851.82104492 C613.19457031 1852.5094043 612.26902344 1853.19776367 611.31542969 1853.90698242 C608.99511719 1855.44604492 608.99511719 1855.44604492 606.99511719 1855.44604492 C606.99511719 1856.10604492 606.99511719 1856.76604492 606.99511719 1857.44604492 C604.97558594 1858.89135742 604.97558594 1858.89135742 602.18261719 1860.57104492 C597.05130101 1863.72266621 592.26519185 1867.16261406 587.50292969 1870.84448242 C584.92081515 1872.49349638 583.01075191 1873.06773949 579.99511719 1873.44604492 C579.43824219 1872.74479492 578.88136719 1872.04354492 578.30761719 1871.32104492 C576.71268028 1869.33815039 575.08538889 1867.38099716 573.43261719 1865.44604492 C571.31402402 1862.83854563 569.6851211 1860.33313493 567.99511719 1857.44604492 C566.67716421 1855.61444864 565.33920554 1853.80056954 563.98339844 1851.99682617 C562.99511719 1850.44604492 562.99511719 1850.44604492 562.99511719 1848.44604492 C562.33511719 1848.44604492 561.67511719 1848.44604492 560.99511719 1848.44604492 C559.94127934 1846.81288738 558.95080642 1845.13850936 557.99511719 1843.44604492 C554.93278203 1838.86705562 551.82762865 1834.32399773 548.24511719 1830.13354492 C546.16672347 1827.65101909 544.62554655 1825.23136175 542.99511719 1822.44604492 C541.67716421 1820.61444864 540.33920554 1818.80056954 538.98339844 1816.99682617 C537.99511719 1815.44604492 537.99511719 1815.44604492 537.99511719 1813.44604492 C537.33511719 1813.44604492 536.67511719 1813.44604492 535.99511719 1813.44604492 C534.94127934 1811.81288738 533.95080642 1810.13850936 532.99511719 1808.44604492 C529.93278203 1803.86705562 526.82762865 1799.32399773 523.24511719 1795.13354492 C521.16672347 1792.65101909 519.62554655 1790.23136175 517.99511719 1787.44604492 C516.67716421 1785.61444864 515.33920554 1783.80056954 513.98339844 1781.99682617 C512.99511719 1780.44604492 512.99511719 1780.44604492 512.99511719 1778.44604492 C512.33511719 1778.44604492 511.67511719 1778.44604492 510.99511719 1778.44604492 C509.94127934 1776.81288738 508.95080642 1775.13850936 507.99511719 1773.44604492 C504.93278203 1768.86705562 501.82762865 1764.32399773 498.24511719 1760.13354492 C496.16672347 1757.65101909 494.62554655 1755.23136175 492.99511719 1752.44604492 C491.67716421 1750.61444864 490.33920554 1748.80056954 488.98339844 1746.99682617 C487.99511719 1745.44604492 487.99511719 1745.44604492 487.99511719 1743.44604492 C487.33511719 1743.44604492 486.67511719 1743.44604492 485.99511719 1743.44604492 C484.94127934 1741.81288738 483.95080642 1740.13850936 482.99511719 1738.44604492 C479.93278203 1733.86705562 476.82762865 1729.32399773 473.24511719 1725.13354492 C471.16672347 1722.65101909 469.62554655 1720.23136175 467.99511719 1717.44604492 C466.67716421 1715.61444864 465.33920554 1713.80056954 463.98339844 1711.99682617 C462.99511719 1710.44604492 462.99511719 1710.44604492 462.99511719 1708.44604492 C462.33511719 1708.44604492 461.67511719 1708.44604492 460.99511719 1708.44604492 C459.94127934 1706.81288738 458.95080642 1705.13850936 457.99511719 1703.44604492 C454.93278203 1698.86705562 451.82762865 1694.32399773 448.24511719 1690.13354492 C446.16672347 1687.65101909 444.62554655 1685.23136175 442.99511719 1682.44604492 C441.67716421 1680.61444864 440.33920554 1678.80056954 438.98339844 1676.99682617 C437.99511719 1675.44604492 437.99511719 1675.44604492 437.99511719 1673.44604492 C437.33511719 1673.44604492 436.67511719 1673.44604492 435.99511719 1673.44604492 C434.94127934 1671.81288738 433.95080642 1670.13850936 432.99511719 1668.44604492 C429.93278203 1663.86705562 426.82762865 1659.32399773 423.24511719 1655.13354492 C421.16672347 1652.65101909 419.62554655 1650.23136175 417.99511719 1647.44604492 C416.67716421 1645.61444864 415.33920554 1643.80056954 413.98339844 1641.99682617 C412.99511719 1640.44604492 412.99511719 1640.44604492 412.99511719 1638.44604492 C412.33511719 1638.44604492 411.67511719 1638.44604492 410.99511719 1638.44604492 C409.94127934 1636.81288738 408.95080642 1635.13850936 407.99511719 1633.44604492 C404.93278203 1628.86705562 401.82762865 1624.32399773 398.24511719 1620.13354492 C396.16672347 1617.65101909 394.62554655 1615.23136175 392.99511719 1612.44604492 C391.67716421 1610.61444864 390.33920554 1608.80056954 388.98339844 1606.99682617 C387.99511719 1605.44604492 387.99511719 1605.44604492 387.99511719 1603.44604492 C387.33511719 1603.44604492 386.67511719 1603.44604492 385.99511719 1603.44604492 C384.94127934 1601.81288738 383.95080642 1600.13850936 382.99511719 1598.44604492 C379.93278203 1593.86705562 376.82762865 1589.32399773 373.24511719 1585.13354492 C371.16672347 1582.65101909 369.62554655 1580.23136175 367.99511719 1577.44604492 C366.67716421 1575.61444864 365.33920554 1573.80056954 363.98339844 1571.99682617 C362.99511719 1570.44604492 362.99511719 1570.44604492 362.99511719 1568.44604492 C362.33511719 1568.44604492 361.67511719 1568.44604492 360.99511719 1568.44604492 C359.94127934 1566.81288738 358.95080642 1565.13850936 357.99511719 1563.44604492 C354.93278203 1558.86705562 351.82762865 1554.32399773 348.24511719 1550.13354492 C345.99511719 1547.44604492 345.99511719 1547.44604492 344.65136719 1545.19604492 C342.68171805 1541.92568409 340.480798 1538.84894501 338.24511719 1535.75854492 C337.34887334 1534.5127464 336.45304207 1533.26665096 335.55761719 1532.02026367 C335.120625 1531.41230957 334.68363281 1530.80435547 334.23339844 1530.17797852 C332.04366233 1527.11528373 329.90083146 1524.02010505 327.76074219 1520.92260742 C326.25730553 1518.81380468 324.71923835 1516.74335103 323.15917969 1514.67651367 C320.05731529 1510.55606927 317.07857625 1506.35762636 314.12011719 1502.13354492 C310.12306365 1496.44817634 306.09026886 1490.79398051 301.98730469 1485.18432617 C299.63613842 1481.95262508 297.31431964 1478.70072032 294.99511719 1475.44604492 C292.01492583 1471.26463672 289.02108511 1467.09454933 285.99511719 1462.94604492 C278.79376902 1453.0604267 271.73138798 1443.09569717 264.82885742 1432.99951172 C262.11050781 1429.03454282 259.32665037 1425.14276091 256.40917969 1421.32104492 C254.60698877 1418.93139951 252.85781951 1416.50798204 251.12011719 1414.07104492 C250.52457031 1413.23831055 249.92902344 1412.40557617 249.31542969 1411.54760742 C247.99511719 1409.44604492 247.99511719 1409.44604492 247.99511719 1407.44604492 C247.33511719 1407.44604492 246.67511719 1407.44604492 245.99511719 1407.44604492 C244.44433594 1405.28588867 244.44433594 1405.28588867 242.68261719 1402.38354492 C240.57353943 1398.95960279 238.45303917 1395.61394256 236.05761719 1392.38354492 C233.99511719 1389.44604492 233.99511719 1389.44604492 233.99511719 1387.44604492 C233.00511719 1387.11604492 232.01511719 1386.78604492 230.99511719 1386.44604492 C229.20605469 1384.04760742 229.20605469 1384.04760742 227.37011719 1381.07104492 C226.75910156 1380.09393555 226.14808594 1379.11682617 225.51855469 1378.11010742 C223.99511719 1375.44604492 223.99511719 1375.44604492 222.99511719 1372.44604492 C222.33511719 1372.44604492 221.67511719 1372.44604492 220.99511719 1372.44604492 C219.44433594 1370.28588867 219.44433594 1370.28588867 217.68261719 1367.38354492 C215.57353943 1363.95960279 213.45303917 1360.61394256 211.05761719 1357.38354492 C208.99511719 1354.44604492 208.99511719 1354.44604492 208.99511719 1352.44604492 C208.00511719 1352.11604492 207.01511719 1351.78604492 205.99511719 1351.44604492 C204.20605469 1349.04760742 204.20605469 1349.04760742 202.37011719 1346.07104492 C201.75910156 1345.09393555 201.14808594 1344.11682617 200.51855469 1343.11010742 C198.99511719 1340.44604492 198.99511719 1340.44604492 197.99511719 1337.44604492 C197.33511719 1337.44604492 196.67511719 1337.44604492 195.99511719 1337.44604492 C194.44433594 1335.28588867 194.44433594 1335.28588867 192.68261719 1332.38354492 C190.57353943 1328.95960279 188.45303917 1325.61394256 186.05761719 1322.38354492 C183.99511719 1319.44604492 183.99511719 1319.44604492 183.99511719 1317.44604492 C183.00511719 1317.11604492 182.01511719 1316.78604492 180.99511719 1316.44604492 C179.20605469 1314.04760742 179.20605469 1314.04760742 177.37011719 1311.07104492 C176.75910156 1310.09393555 176.14808594 1309.11682617 175.51855469 1308.11010742 C173.99511719 1305.44604492 173.99511719 1305.44604492 172.99511719 1302.44604492 C172.33511719 1302.44604492 171.67511719 1302.44604492 170.99511719 1302.44604492 C169.44433594 1300.28588867 169.44433594 1300.28588867 167.68261719 1297.38354492 C165.57353943 1293.95960279 163.45303917 1290.61394256 161.05761719 1287.38354492 C158.99511719 1284.44604492 158.99511719 1284.44604492 158.99511719 1282.44604492 C158.00511719 1282.11604492 157.01511719 1281.78604492 155.99511719 1281.44604492 C154.20605469 1279.04760742 154.20605469 1279.04760742 152.37011719 1276.07104492 C151.75910156 1275.09393555 151.14808594 1274.11682617 150.51855469 1273.11010742 C148.99511719 1270.44604492 148.99511719 1270.44604492 147.99511719 1267.44604492 C147.33511719 1267.44604492 146.67511719 1267.44604492 145.99511719 1267.44604492 C144.44433594 1265.28588867 144.44433594 1265.28588867 142.68261719 1262.38354492 C140.57353943 1258.95960279 138.45303917 1255.61394256 136.05761719 1252.38354492 C133.99511719 1249.44604492 133.99511719 1249.44604492 133.99511719 1247.44604492 C133.00511719 1247.11604492 132.01511719 1246.78604492 130.99511719 1246.44604492 C129.20605469 1244.04760742 129.20605469 1244.04760742 127.37011719 1241.07104492 C126.75910156 1240.09393555 126.14808594 1239.11682617 125.51855469 1238.11010742 C123.99511719 1235.44604492 123.99511719 1235.44604492 122.99511719 1232.44604492 C122.33511719 1232.44604492 121.67511719 1232.44604492 120.99511719 1232.44604492 C119.44433594 1230.28588867 119.44433594 1230.28588867 117.68261719 1227.38354492 C115.57353943 1223.95960279 113.45303917 1220.61394256 111.05761719 1217.38354492 C108.99511719 1214.44604492 108.99511719 1214.44604492 108.99511719 1212.44604492 C108.00511719 1212.11604492 107.01511719 1211.78604492 105.99511719 1211.44604492 C104.20605469 1209.04760742 104.20605469 1209.04760742 102.37011719 1206.07104492 C101.75910156 1205.09393555 101.14808594 1204.11682617 100.51855469 1203.11010742 C98.99511719 1200.44604492 98.99511719 1200.44604492 97.99511719 1197.44604492 C97.33511719 1197.44604492 96.67511719 1197.44604492 95.99511719 1197.44604492 C94.44433594 1195.28588867 94.44433594 1195.28588867 92.68261719 1192.38354492 C90.57353943 1188.95960279 88.45303917 1185.61394256 86.05761719 1182.38354492 C83.99511719 1179.44604492 83.99511719 1179.44604492 83.99511719 1177.44604492 C83.00511719 1177.11604492 82.01511719 1176.78604492 80.99511719 1176.44604492 C79.20605469 1174.04760742 79.20605469 1174.04760742 77.37011719 1171.07104492 C76.75910156 1170.09393555 76.14808594 1169.11682617 75.51855469 1168.11010742 C73.99511719 1165.44604492 73.99511719 1165.44604492 72.99511719 1162.44604492 C72.33511719 1162.44604492 71.67511719 1162.44604492 70.99511719 1162.44604492 C69.44433594 1160.28588867 69.44433594 1160.28588867 67.68261719 1157.38354492 C65.57353943 1153.95960279 63.45303917 1150.61394256 61.05761719 1147.38354492 C58.99511719 1144.44604492 58.99511719 1144.44604492 58.99511719 1142.44604492 C58.00511719 1142.11604492 57.01511719 1141.78604492 55.99511719 1141.44604492 C54.20605469 1139.04760742 54.20605469 1139.04760742 52.37011719 1136.07104492 C51.75910156 1135.09393555 51.14808594 1134.11682617 50.51855469 1133.11010742 C48.99511719 1130.44604492 48.99511719 1130.44604492 47.99511719 1127.44604492 C47.33511719 1127.44604492 46.67511719 1127.44604492 45.99511719 1127.44604492 C44.44433594 1125.28588867 44.44433594 1125.28588867 42.68261719 1122.38354492 C40.57353943 1118.95960279 38.45303917 1115.61394256 36.05761719 1112.38354492 C33.99511719 1109.44604492 33.99511719 1109.44604492 33.99511719 1107.44604492 C33.00511719 1107.11604492 32.01511719 1106.78604492 30.99511719 1106.44604492 C29.20605469 1104.04760742 29.20605469 1104.04760742 27.37011719 1101.07104492 C26.75910156 1100.09393555 26.14808594 1099.11682617 25.51855469 1098.11010742 C23.99511719 1095.44604492 23.99511719 1095.44604492 22.99511719 1092.44604492 C22.33511719 1092.44604492 21.67511719 1092.44604492 20.99511719 1092.44604492 C19.44433594 1090.28588867 19.44433594 1090.28588867 17.68261719 1087.38354492 C15.57353943 1083.95960279 13.45303917 1080.61394256 11.05761719 1077.38354492 C8.99511719 1074.44604492 8.99511719 1074.44604492 8.99511719 1072.44604492 C8.00511719 1072.11604492 7.01511719 1071.78604492 5.99511719 1071.44604492 C4.20605469 1069.04760742 4.20605469 1069.04760742 2.37011719 1066.07104492 C1.75910156 1065.09393555 1.14808594 1064.11682617 0.51855469 1063.11010742 C-1.00488281 1060.44604492 -1.00488281 1060.44604492 -2.00488281 1057.44604492 C-2.66488281 1057.44604492 -3.32488281 1057.44604492 -4.00488281 1057.44604492 C-5.55566406 1055.28588867 -5.55566406 1055.28588867 -7.31738281 1052.38354492 C-9.42646057 1048.95960279 -11.54696083 1045.61394256 -13.94238281 1042.38354492 C-16.00488281 1039.44604492 -16.00488281 1039.44604492 -16.00488281 1037.44604492 C-16.99488281 1037.11604492 -17.98488281 1036.78604492 -19.00488281 1036.44604492 C-20.79394531 1034.04760742 -20.79394531 1034.04760742 -22.62988281 1031.07104492 C-23.24089844 1030.09393555 -23.85191406 1029.11682617 -24.48144531 1028.11010742 C-26.00488281 1025.44604492 -26.00488281 1025.44604492 -27.00488281 1022.44604492 C-27.66488281 1022.44604492 -28.32488281 1022.44604492 -29.00488281 1022.44604492 C-30.55566406 1020.28588867 -30.55566406 1020.28588867 -32.31738281 1017.38354492 C-34.42646057 1013.95960279 -36.54696083 1010.61394256 -38.94238281 1007.38354492 C-41.00488281 1004.44604492 -41.00488281 1004.44604492 -41.00488281 1002.44604492 C-41.99488281 1002.11604492 -42.98488281 1001.78604492 -44.00488281 1001.44604492 C-45.79394531 999.04760742 -45.79394531 999.04760742 -47.62988281 996.07104492 C-48.24089844 995.09393555 -48.85191406 994.11682617 -49.48144531 993.11010742 C-51.00488281 990.44604492 -51.00488281 990.44604492 -52.00488281 987.44604492 C-52.66488281 987.44604492 -53.32488281 987.44604492 -54.00488281 987.44604492 C-55.55566406 985.28588867 -55.55566406 985.28588867 -57.31738281 982.38354492 C-59.42646057 978.95960279 -61.54696083 975.61394256 -63.94238281 972.38354492 C-66.00488281 969.44604492 -66.00488281 969.44604492 -66.00488281 967.44604492 C-66.99488281 967.11604492 -67.98488281 966.78604492 -69.00488281 966.44604492 C-70.79394531 964.04760742 -70.79394531 964.04760742 -72.62988281 961.07104492 C-73.24089844 960.09393555 -73.85191406 959.11682617 -74.48144531 958.11010742 C-76.00488281 955.44604492 -76.00488281 955.44604492 -77.00488281 952.44604492 C-77.66488281 952.44604492 -78.32488281 952.44604492 -79.00488281 952.44604492 C-80.55566406 950.28588867 -80.55566406 950.28588867 -82.31738281 947.38354492 C-84.42646057 943.95960279 -86.54696083 940.61394256 -88.94238281 937.38354492 C-91.00488281 934.44604492 -91.00488281 934.44604492 -91.00488281 932.44604492 C-91.99488281 932.11604492 -92.98488281 931.78604492 -94.00488281 931.44604492 C-95.79394531 929.04760742 -95.79394531 929.04760742 -97.62988281 926.07104492 C-98.24089844 925.09393555 -98.85191406 924.11682617 -99.48144531 923.11010742 C-101.00488281 920.44604492 -101.00488281 920.44604492 -102.00488281 917.44604492 C-102.66488281 917.44604492 -103.32488281 917.44604492 -104.00488281 917.44604492 C-105.55566406 915.28588867 -105.55566406 915.28588867 -107.31738281 912.38354492 C-109.42646057 908.95960279 -111.54696083 905.61394256 -113.94238281 902.38354492 C-116.00488281 899.44604492 -116.00488281 899.44604492 -116.00488281 897.44604492 C-116.99488281 897.11604492 -117.98488281 896.78604492 -119.00488281 896.44604492 C-120.79394531 894.04760742 -120.79394531 894.04760742 -122.62988281 891.07104492 C-123.24089844 890.09393555 -123.85191406 889.11682617 -124.48144531 888.11010742 C-126.00488281 885.44604492 -126.00488281 885.44604492 -127.00488281 882.44604492 C-127.66488281 882.44604492 -128.32488281 882.44604492 -129.00488281 882.44604492 C-130.55566406 880.28588867 -130.55566406 880.28588867 -132.31738281 877.38354492 C-134.42646057 873.95960279 -136.54696083 870.61394256 -138.94238281 867.38354492 C-141.00488281 864.44604492 -141.00488281 864.44604492 -141.00488281 862.44604492 C-141.99488281 862.11604492 -142.98488281 861.78604492 -144.00488281 861.44604492 C-145.79394531 859.04760742 -145.79394531 859.04760742 -147.62988281 856.07104492 C-148.24089844 855.09393555 -148.85191406 854.11682617 -149.48144531 853.11010742 C-151.00488281 850.44604492 -151.00488281 850.44604492 -152.00488281 847.44604492 C-152.66488281 847.44604492 -153.32488281 847.44604492 -154.00488281 847.44604492 C-155.55566406 845.28588867 -155.55566406 845.28588867 -157.31738281 842.38354492 C-159.42646057 838.95960279 -161.54696083 835.61394256 -163.94238281 832.38354492 C-166.00488281 829.44604492 -166.00488281 829.44604492 -166.00488281 827.44604492 C-166.99488281 827.11604492 -167.98488281 826.78604492 -169.00488281 826.44604492 C-170.44238281 824.46948242 -170.44238281 824.46948242 -172.00488281 821.82104492 C-175.42599544 816.24076526 -179.18513806 810.99600772 -183.09667969 805.75024414 C-191.00488281 795.12537411 -191.00488281 795.12537411 -191.00488281 792.44604492 C-191.99488281 792.11604492 -192.98488281 791.78604492 -194.00488281 791.44604492 C-195.44238281 789.46948242 -195.44238281 789.46948242 -197.00488281 786.82104492 C-200.42599544 781.24076526 -204.18513806 775.99600772 -208.09667969 770.75024414 C-216.00488281 760.12537411 -216.00488281 760.12537411 -216.00488281 757.44604492 C-216.99488281 757.11604492 -217.98488281 756.78604492 -219.00488281 756.44604492 C-220.44238281 754.46948242 -220.44238281 754.46948242 -222.00488281 751.82104492 C-224.99244995 746.94558961 -228.21297083 742.34229112 -231.62988281 737.75854492 C-234.5657148 733.81475715 -237.44881932 729.90193121 -240.00488281 725.69604492 C-241.62773065 723.05891719 -242.87757395 721.55384028 -245.00488281 719.44604492 C-246.99568502 716.82535591 -248.83225634 714.09812949 -250.69238281 711.38354492 C-251.20349609 710.65071289 -251.71460938 709.91788086 -252.24121094 709.1628418 C-252.72396484 708.46094727 -253.20671875 707.75905273 -253.70410156 707.03588867 C-254.36671997 706.07477173 -254.36671997 706.07477173 -255.04272461 705.09423828 C-256.00488281 703.44604492 -256.00488281 703.44604492 -256.00488281 701.44604492 C-256.66488281 701.44604492 -257.32488281 701.44604492 -258.00488281 701.44604492 C-259.56726704 699.20178523 -261.02080411 696.96456654 -262.44238281 694.63354492 C-263.22912455 693.3539666 -264.01938892 692.07654624 -264.81347656 690.80151367 C-265.1620874 690.23070068 -265.51069824 689.6598877 -265.86987305 689.07177734 C-266.97615657 687.36560079 -266.97615657 687.36560079 -268.6418457 685.92382812 C-270.00488281 684.44604492 -270.00488281 684.44604492 -270.00488281 681.44604492 C-270.99488281 681.11604492 -271.98488281 680.78604492 -273.00488281 680.44604492 C-275.04785156 677.79370117 -275.04785156 677.79370117 -277.19238281 674.50854492 C-278.26552734 672.88625977 -278.26552734 672.88625977 -279.36035156 671.23120117 C-281.00488281 668.44604492 -281.00488281 668.44604492 -281.00488281 666.44604492 C-281.66488281 666.44604492 -282.32488281 666.44604492 -283.00488281 666.44604492 C-284.56726704 664.20178523 -286.02080411 661.96456654 -287.44238281 659.63354492 C-288.22912455 658.3539666 -289.01938892 657.07654624 -289.81347656 655.80151367 C-290.1620874 655.23070068 -290.51069824 654.6598877 -290.86987305 654.07177734 C-291.97615657 652.36560079 -291.97615657 652.36560079 -293.6418457 650.92382812 C-295.00488281 649.44604492 -295.00488281 649.44604492 -295.00488281 646.44604492 C-295.99488281 646.11604492 -296.98488281 645.78604492 -298.00488281 645.44604492 C-300.04785156 642.79370117 -300.04785156 642.79370117 -302.19238281 639.50854492 C-303.26552734 637.88625977 -303.26552734 637.88625977 -304.36035156 636.23120117 C-306.00488281 633.44604492 -306.00488281 633.44604492 -306.00488281 631.44604492 C-306.66488281 631.44604492 -307.32488281 631.44604492 -308.00488281 631.44604492 C-309.56726704 629.20178523 -311.02080411 626.96456654 -312.44238281 624.63354492 C-313.22912455 623.3539666 -314.01938892 622.07654624 -314.81347656 620.80151367 C-315.1620874 620.23070068 -315.51069824 619.6598877 -315.86987305 619.07177734 C-316.97615657 617.36560079 -316.97615657 617.36560079 -318.6418457 615.92382812 C-320.00488281 614.44604492 -320.00488281 614.44604492 -320.00488281 611.44604492 C-320.99488281 611.11604492 -321.98488281 610.78604492 -323.00488281 610.44604492 C-325.04785156 607.79370117 -325.04785156 607.79370117 -327.19238281 604.50854492 C-328.26552734 602.88625977 -328.26552734 602.88625977 -329.36035156 601.23120117 C-331.00488281 598.44604492 -331.00488281 598.44604492 -331.00488281 596.44604492 C-331.66488281 596.44604492 -332.32488281 596.44604492 -333.00488281 596.44604492 C-334.56726704 594.20178523 -336.02080411 591.96456654 -337.44238281 589.63354492 C-338.22912455 588.3539666 -339.01938892 587.07654624 -339.81347656 585.80151367 C-340.1620874 585.23070068 -340.51069824 584.6598877 -340.86987305 584.07177734 C-342.09404261 582.31833679 -343.47157897 580.93185592 -345.00488281 579.44604492 C-346.14686798 578.00097365 -347.27077022 576.54149736 -348.37988281 575.07104492 C-352.82334571 569.32886635 -357.49645979 564.93530985 -363.43066406 560.77807617 C-363.95015625 560.33850586 -364.46964844 559.89893555 -365.00488281 559.44604492 C-365.00488281 558.78604492 -365.00488281 558.12604492 -365.00488281 557.44604492 C-365.78863281 557.19854492 -366.57238281 556.95104492 -367.37988281 556.69604492 C-370.21313956 555.71905984 -372.92981473 554.65851345 -375.69238281 553.50854492 C-377.45917126 552.81071576 -379.23009353 552.12326715 -381.00488281 551.44604492 C-381.80410156 551.14053711 -382.60332031 550.8350293 -383.42675781 550.52026367 C-399.3168564 545.31403572 -416.4725489 548.03180365 -431.33300781 555.00854492 C-433.95244379 556.40931282 -436.48381882 557.87681121 -439.00488281 559.44604492 C-439.85308594 559.91655273 -440.70128906 560.38706055 -441.57519531 560.87182617 C-444.11494934 562.51735812 -445.71997025 564.17566086 -447.62988281 566.50854492 C-449.72330023 569.051905 -451.22000167 570.58945749 -454.00488281 572.44604492 C-455.06672244 574.07401125 -456.05911482 575.74801645 -457.00488281 577.44604492 C-457.56046875 578.3715918 -458.11605469 579.29713867 -458.68847656 580.25073242 C-459.26726563 581.26393555 -459.84605469 582.27713867 -460.44238281 583.32104492 C-461.01859375 584.3084668 -461.59480469 585.29588867 -462.18847656 586.31323242 C-467.9473276 598.24795376 -468.58683303 610.44301832 -468.5126915 623.40888882 C-468.51736788 625.18637822 -468.52379405 626.96386371 -468.53179377 628.74134126 C-468.54866663 633.60676352 -468.54086155 638.47187451 -468.52888679 643.33729958 C-468.52027617 648.63748664 -468.53493156 653.93761885 -468.54659581 659.23779303 C-468.56383953 668.5204047 -468.56632609 677.80292868 -468.55908012 687.08555222 C-468.54837291 700.88838929 -468.56058136 714.69114003 -468.57745184 728.49396756 C-468.60518516 751.71404777 -468.61441287 774.93409382 -468.61299896 798.15418816 C-468.61165579 821.14314809 -468.6185898 844.13208136 -468.63657379 867.12103462 C-468.63712895 867.83549516 -468.63768411 868.54995569 -468.63825609 869.28606654 C-468.64333115 875.81174917 -468.64850791 882.33743172 -468.65380667 888.86311417 C-468.66697642 905.08382165 -468.67887099 921.30452992 -468.68989944 937.52523899 C-468.69040263 938.26382068 -468.69090581 939.00240237 -468.69142425 939.76336532 C-468.71577839 975.67410917 -468.72543907 1011.58485495 -468.73388672 1047.49560547 C-468.73682571 1059.95440677 -468.73982973 1072.41320806 -468.74310303 1084.87200928 C-468.74340745 1086.03108409 -468.74340745 1086.03108409 -468.74371803 1087.21357456 C-468.7532453 1123.14837695 -468.77322384 1159.08317132 -468.79589115 1195.01796755 C-468.7973629 1197.35144257 -468.79883014 1199.6849176 -468.80029647 1202.01839263 C-468.81002123 1217.48270715 -468.81992598 1232.94702156 -468.82995123 1248.4113359 C-468.84989668 1279.18037591 -468.86878478 1309.94941653 -468.88694627 1340.71845764 C-468.88781114 1342.18369494 -468.88867674 1343.64893223 -468.88954309 1345.11416953 C-468.93427663 1420.78297713 -468.96215048 1496.45178855 -468.9858551 1572.12060547 C-468.98618544 1573.17472502 -468.98651578 1574.22884456 -468.98685613 1575.31490713 C-468.99331589 1596.02528627 -468.99902795 1616.73566559 -469.00488281 1637.44604492 C-424.45488281 1637.44604492 -379.90488281 1637.44604492 -334.00488281 1637.44604492 C-334.00488281 1369.81604492 -334.00488281 1102.18604492 -334.00488281 826.44604492 C-333.34488281 826.44604492 -332.68488281 826.44604492 -332.00488281 826.44604492 C-330.25574609 828.87474489 -328.61375242 831.30201479 -327.00488281 833.82104492 C-326.1110762 835.2051683 -325.21532249 836.58803676 -324.31738281 837.96948242 C-323.72376953 838.89639893 -323.72376953 838.89639893 -323.11816406 839.84204102 C-321.96619842 841.60320812 -321.96619842 841.60320812 -320.00488281 843.44604492 C-320.00488281 844.43604492 -320.00488281 845.42604492 -320.00488281 846.44604492 C-319.34488281 846.44604492 -318.68488281 846.44604492 -318.00488281 846.44604492 C-316.34863281 848.45776367 -316.34863281 848.45776367 -314.50488281 851.13354492 C-313.89644531 852.00366211 -313.28800781 852.8737793 -312.66113281 853.77026367 C-311.10757797 856.28013412 -310.00323106 858.67562853 -309.00488281 861.44604492 C-308.34488281 861.44604492 -307.68488281 861.44604492 -307.00488281 861.44604492 C-305.37807069 863.68669135 -303.86700202 865.92743039 -302.37988281 868.25854492 C-301.47938513 869.64125935 -300.57702275 871.02276108 -299.67285156 872.40307617 C-299.22345215 873.08966309 -298.77405273 873.77625 -298.31103516 874.48364258 C-294.86654969 879.65874055 -291.10673841 884.61800078 -287.39941406 889.60620117 C-284.00488281 894.23683624 -284.00488281 894.23683624 -284.00488281 896.44604492 C-283.34488281 896.44604492 -282.68488281 896.44604492 -282.00488281 896.44604492 C-280.37807069 898.68669135 -278.86700202 900.92743039 -277.37988281 903.25854492 C-276.47938513 904.64125935 -275.57702275 906.02276108 -274.67285156 907.40307617 C-274.22345215 908.08966309 -273.77405273 908.77625 -273.31103516 909.48364258 C-269.86654969 914.65874055 -266.10673841 919.61800078 -262.39941406 924.60620117 C-259.00488281 929.23683624 -259.00488281 929.23683624 -259.00488281 931.44604492 C-258.34488281 931.44604492 -257.68488281 931.44604492 -257.00488281 931.44604492 C-255.37807069 933.68669135 -253.86700202 935.92743039 -252.37988281 938.25854492 C-251.47938513 939.64125935 -250.57702275 941.02276108 -249.67285156 942.40307617 C-249.22345215 943.08966309 -248.77405273 943.77625 -248.31103516 944.48364258 C-244.86654969 949.65874055 -241.10673841 954.61800078 -237.39941406 959.60620117 C-234.00488281 964.23683624 -234.00488281 964.23683624 -234.00488281 966.44604492 C-233.34488281 966.44604492 -232.68488281 966.44604492 -232.00488281 966.44604492 C-230.37807069 968.68669135 -228.86700202 970.92743039 -227.37988281 973.25854492 C-226.47938513 974.64125935 -225.57702275 976.02276108 -224.67285156 977.40307617 C-224.22345215 978.08966309 -223.77405273 978.77625 -223.31103516 979.48364258 C-219.86654969 984.65874055 -216.10673841 989.61800078 -212.39941406 994.60620117 C-209.00488281 999.23683624 -209.00488281 999.23683624 -209.00488281 1001.44604492 C-208.34488281 1001.44604492 -207.68488281 1001.44604492 -207.00488281 1001.44604492 C-205.37807069 1003.68669135 -203.86700202 1005.92743039 -202.37988281 1008.25854492 C-201.47938513 1009.64125935 -200.57702275 1011.02276108 -199.67285156 1012.40307617 C-199.22345215 1013.08966309 -198.77405273 1013.77625 -198.31103516 1014.48364258 C-194.86654969 1019.65874055 -191.10673841 1024.61800078 -187.39941406 1029.60620117 C-184.00488281 1034.23683624 -184.00488281 1034.23683624 -184.00488281 1036.44604492 C-183.34488281 1036.44604492 -182.68488281 1036.44604492 -182.00488281 1036.44604492 C-180.37807069 1038.68669135 -178.86700202 1040.92743039 -177.37988281 1043.25854492 C-176.47938513 1044.64125935 -175.57702275 1046.02276108 -174.67285156 1047.40307617 C-174.22345215 1048.08966309 -173.77405273 1048.77625 -173.31103516 1049.48364258 C-169.86654969 1054.65874055 -166.10673841 1059.61800078 -162.39941406 1064.60620117 C-159.00488281 1069.23683624 -159.00488281 1069.23683624 -159.00488281 1071.44604492 C-158.34488281 1071.44604492 -157.68488281 1071.44604492 -157.00488281 1071.44604492 C-155.41894531 1073.42260742 -155.41894531 1073.42260742 -153.62988281 1076.07104492 C-153.00339844 1076.99143555 -152.37691406 1077.91182617 -151.73144531 1078.86010742 C-149.82119694 1081.72115815 -147.91313692 1084.58366376 -146.00488281 1087.44604492 C-142.74463485 1092.15180042 -139.45742401 1096.83289227 -136.06738281 1101.44604492 C-134.00488281 1104.44604492 -134.00488281 1104.44604492 -134.00488281 1106.44604492 C-133.34488281 1106.44604492 -132.68488281 1106.44604492 -132.00488281 1106.44604492 C-130.41894531 1108.42260742 -130.41894531 1108.42260742 -128.62988281 1111.07104492 C-128.00339844 1111.99143555 -127.37691406 1112.91182617 -126.73144531 1113.86010742 C-124.82119694 1116.72115815 -122.91313692 1119.58366376 -121.00488281 1122.44604492 C-114.45310134 1131.95288247 -107.76418136 1141.3596054 -100.54785156 1150.37573242 C-98.85567659 1152.64624568 -97.44804371 1155.0107109 -96.00488281 1157.44604492 C-89.55799366 1167.0102906 -82.75502628 1176.37104382 -75.54785156 1185.37573242 C-73.85567659 1187.64624568 -72.44804371 1190.0107109 -71.00488281 1192.44604492 C-64.55799366 1202.0102906 -57.75502628 1211.37104382 -50.54785156 1220.37573242 C-48.85567659 1222.64624568 -47.44804371 1225.0107109 -46.00488281 1227.44604492 C-39.55799366 1237.0102906 -32.75502628 1246.37104382 -25.54785156 1255.37573242 C-23.85567659 1257.64624568 -22.44804371 1260.0107109 -21.00488281 1262.44604492 C-15.69319182 1270.32617384 -10.04945663 1277.99466283 -4.38769531 1285.62573242 C-1.00488281 1290.23170876 -1.00488281 1290.23170876 -1.00488281 1292.44604492 C-0.34488281 1292.44604492 0.31511719 1292.44604492 0.99511719 1292.44604492 C2.04849373 1294.07950005 3.03974547 1295.75340123 3.99511719 1297.44604492 C9.30680818 1305.32617384 14.95054337 1312.99466283 20.61230469 1320.62573242 C23.99511719 1325.23170876 23.99511719 1325.23170876 23.99511719 1327.44604492 C24.65511719 1327.44604492 25.31511719 1327.44604492 25.99511719 1327.44604492 C27.04849373 1329.07950005 28.03974547 1330.75340123 28.99511719 1332.44604492 C34.30680818 1340.32617384 39.95054337 1347.99466283 45.61230469 1355.62573242 C48.99511719 1360.23170876 48.99511719 1360.23170876 48.99511719 1362.44604492 C49.65511719 1362.44604492 50.31511719 1362.44604492 50.99511719 1362.44604492 C52.04895503 1364.07920247 53.03942795 1365.75358049 53.99511719 1367.44604492 C57.05745235 1372.02503422 60.16260572 1376.56809212 63.74511719 1380.75854492 C65.8235109 1383.24107075 67.36468782 1385.66072809 68.99511719 1388.44604492 C70.31307016 1390.2776412 71.65102884 1392.0915203 73.00683594 1393.89526367 C73.99511719 1395.44604492 73.99511719 1395.44604492 73.99511719 1397.44604492 C74.65511719 1397.44604492 75.31511719 1397.44604492 75.99511719 1397.44604492 C77.04895503 1399.07920247 78.03942795 1400.75358049 78.99511719 1402.44604492 C82.05745235 1407.02503422 85.16260572 1411.56809212 88.74511719 1415.75854492 C90.8235109 1418.24107075 92.36468782 1420.66072809 93.99511719 1423.44604492 C95.31307016 1425.2776412 96.65102884 1427.0915203 98.00683594 1428.89526367 C98.99511719 1430.44604492 98.99511719 1430.44604492 98.99511719 1432.44604492 C99.65511719 1432.44604492 100.31511719 1432.44604492 100.99511719 1432.44604492 C102.04895503 1434.07920247 103.03942795 1435.75358049 103.99511719 1437.44604492 C107.05745235 1442.02503422 110.16260572 1446.56809212 113.74511719 1450.75854492 C115.8235109 1453.24107075 117.36468782 1455.66072809 118.99511719 1458.44604492 C120.31307016 1460.2776412 121.65102884 1462.0915203 123.00683594 1463.89526367 C123.99511719 1465.44604492 123.99511719 1465.44604492 123.99511719 1467.44604492 C124.65511719 1467.44604492 125.31511719 1467.44604492 125.99511719 1467.44604492 C127.04895503 1469.07920247 128.03942795 1470.75358049 128.99511719 1472.44604492 C132.05745235 1477.02503422 135.16260572 1481.56809212 138.74511719 1485.75854492 C140.8235109 1488.24107075 142.36468782 1490.66072809 143.99511719 1493.44604492 C145.31307016 1495.2776412 146.65102884 1497.0915203 148.00683594 1498.89526367 C148.99511719 1500.44604492 148.99511719 1500.44604492 148.99511719 1502.44604492 C149.65511719 1502.44604492 150.31511719 1502.44604492 150.99511719 1502.44604492 C152.04895503 1504.07920247 153.03942795 1505.75358049 153.99511719 1507.44604492 C157.05745235 1512.02503422 160.16260572 1516.56809212 163.74511719 1520.75854492 C165.8235109 1523.24107075 167.36468782 1525.66072809 168.99511719 1528.44604492 C170.31307016 1530.2776412 171.65102884 1532.0915203 173.00683594 1533.89526367 C173.99511719 1535.44604492 173.99511719 1535.44604492 173.99511719 1537.44604492 C174.65511719 1537.44604492 175.31511719 1537.44604492 175.99511719 1537.44604492 C177.04895503 1539.07920247 178.03942795 1540.75358049 178.99511719 1542.44604492 C182.05745235 1547.02503422 185.16260572 1551.56809212 188.74511719 1555.75854492 C190.8235109 1558.24107075 192.36468782 1560.66072809 193.99511719 1563.44604492 C195.31307016 1565.2776412 196.65102884 1567.0915203 198.00683594 1568.89526367 C198.99511719 1570.44604492 198.99511719 1570.44604492 198.99511719 1572.44604492 C199.65511719 1572.44604492 200.31511719 1572.44604492 200.99511719 1572.44604492 C202.04895503 1574.07920247 203.03942795 1575.75358049 203.99511719 1577.44604492 C207.05745235 1582.02503422 210.16260572 1586.56809212 213.74511719 1590.75854492 C215.8235109 1593.24107075 217.36468782 1595.66072809 218.99511719 1598.44604492 C220.31307016 1600.2776412 221.65102884 1602.0915203 223.00683594 1603.89526367 C223.99511719 1605.44604492 223.99511719 1605.44604492 223.99511719 1607.44604492 C224.65511719 1607.44604492 225.31511719 1607.44604492 225.99511719 1607.44604492 C227.04895503 1609.07920247 228.03942795 1610.75358049 228.99511719 1612.44604492 C232.05745235 1617.02503422 235.16260572 1621.56809212 238.74511719 1625.75854492 C240.8235109 1628.24107075 242.36468782 1630.66072809 243.99511719 1633.44604492 C245.31307016 1635.2776412 246.65102884 1637.0915203 248.00683594 1638.89526367 C248.99511719 1640.44604492 248.99511719 1640.44604492 248.99511719 1642.44604492 C249.65511719 1642.44604492 250.31511719 1642.44604492 250.99511719 1642.44604492 C252.04895503 1644.07920247 253.03942795 1645.75358049 253.99511719 1647.44604492 C257.05745235 1652.02503422 260.16260572 1656.56809212 263.74511719 1660.75854492 C265.8235109 1663.24107075 267.36468782 1665.66072809 268.99511719 1668.44604492 C270.31307016 1670.2776412 271.65102884 1672.0915203 273.00683594 1673.89526367 C273.99511719 1675.44604492 273.99511719 1675.44604492 273.99511719 1677.44604492 C274.65511719 1677.44604492 275.31511719 1677.44604492 275.99511719 1677.44604492 C277.04895503 1679.07920247 278.03942795 1680.75358049 278.99511719 1682.44604492 C282.05745235 1687.02503422 285.16260572 1691.56809212 288.74511719 1695.75854492 C290.8235109 1698.24107075 292.36468782 1700.66072809 293.99511719 1703.44604492 C295.31307016 1705.2776412 296.65102884 1707.0915203 298.00683594 1708.89526367 C298.99511719 1710.44604492 298.99511719 1710.44604492 298.99511719 1712.44604492 C299.65511719 1712.44604492 300.31511719 1712.44604492 300.99511719 1712.44604492 C302.04895503 1714.07920247 303.03942795 1715.75358049 303.99511719 1717.44604492 C307.05745235 1722.02503422 310.16260572 1726.56809212 313.74511719 1730.75854492 C315.8235109 1733.24107075 317.36468782 1735.66072809 318.99511719 1738.44604492 C320.31307016 1740.2776412 321.65102884 1742.0915203 323.00683594 1743.89526367 C323.99511719 1745.44604492 323.99511719 1745.44604492 323.99511719 1747.44604492 C324.65511719 1747.44604492 325.31511719 1747.44604492 325.99511719 1747.44604492 C327.04895503 1749.07920247 328.03942795 1750.75358049 328.99511719 1752.44604492 C332.05745235 1757.02503422 335.16260572 1761.56809212 338.74511719 1765.75854492 C340.8235109 1768.24107075 342.36468782 1770.66072809 343.99511719 1773.44604492 C345.31307016 1775.2776412 346.65102884 1777.0915203 348.00683594 1778.89526367 C348.99511719 1780.44604492 348.99511719 1780.44604492 348.99511719 1782.44604492 C349.65511719 1782.44604492 350.31511719 1782.44604492 350.99511719 1782.44604492 C352.04895503 1784.07920247 353.03942795 1785.75358049 353.99511719 1787.44604492 C357.05745235 1792.02503422 360.16260572 1796.56809212 363.74511719 1800.75854492 C365.99511719 1803.44604492 365.99511719 1803.44604492 367.33886719 1805.69604492 C369.30851632 1808.96640575 371.50943638 1812.04314483 373.74511719 1815.13354492 C374.64136103 1816.37934345 375.5371923 1817.62543889 376.43261719 1818.87182617 C376.86960937 1819.47978027 377.30660156 1820.08773438 377.75683594 1820.71411133 C379.94657205 1823.77680612 382.08940292 1826.87198479 384.22949219 1829.96948242 C385.73292884 1832.07828517 387.27099603 1834.14873881 388.83105469 1836.21557617 C391.93291909 1840.33602058 394.91165813 1844.53446348 397.87011719 1848.75854492 C401.86717073 1854.4439135 405.89996552 1860.09810934 410.00292969 1865.70776367 C412.35409596 1868.93946476 414.67591473 1872.19136952 416.99511719 1875.44604492 C419.97530854 1879.62745313 422.96914926 1883.79754051 425.99511719 1887.94604492 C433.19581976 1897.83077691 440.25955602 1907.79348683 447.15917969 1917.89038086 C449.89592151 1921.88374984 452.7124467 1925.79075565 455.64746094 1929.64135742 C457.27086098 1931.81530183 458.8314757 1934.02376634 460.37011719 1936.25854492 C460.87285156 1936.98686523 461.37558594 1937.71518555 461.89355469 1938.46557617 C462.99511719 1940.44604492 462.99511719 1940.44604492 462.99511719 1943.44604492 C454.40469525 1947.80320605 445.73419391 1951.95861253 436.99511719 1956.00854492 C435.81433594 1956.55961914 434.63355469 1957.11069336 433.41699219 1957.6784668 C426.86267934 1960.72102502 420.27322376 1963.6201299 413.58984375 1966.3671875 C410.47082209 1967.66404079 407.42274255 1969.06277645 404.37011719 1970.50854492 C397.07316568 1973.9010634 389.77282429 1976.8921967 382.12011719 1979.38354492 C378.21601693 1980.65865459 374.44949234 1982.06136325 370.68261719 1983.69604492 C362.83613946 1987.04844215 354.7464255 1989.71623249 346.67871094 1992.48120117 C342.82519218 1993.80262551 338.99171445 1995.16848476 335.16699219 1996.57104492 C331.40673872 1997.94617548 327.64451863 1999.23512063 323.80761719 2000.38354492 C320.24489855 2001.45868486 316.68530339 2002.53865067 313.13964844 2003.66870117 C305.20972855 2006.1918575 297.26731875 2008.49808461 289.20214844 2010.55151367 C286.08187431 2011.358065 286.08187431 2011.358065 283.52246094 2012.44213867 C280.31940015 2013.71445185 277.09256423 2014.50112368 273.74511719 2015.32104492 C273.03822754 2015.49466553 272.33133789 2015.66828613 271.60302734 2015.84716797 C265.44831912 2017.35218115 259.28338281 2018.81440785 253.11230469 2020.25073242 C249.1145863 2021.18130609 245.12102272 2022.12863811 241.12792969 2023.07885742 C201.26158685 2032.5286572 201.26158685 2032.5286572 182.26855469 2034.98901367 C178.53034438 2035.51093564 174.82999446 2036.19435652 171.12011719 2036.88354492 C162.97852205 2038.37718098 154.7960633 2039.40162112 146.57958984 2040.38891602 C141.52939909 2040.99718879 136.51023229 2041.65034341 131.49511719 2042.50854492 C123.81039851 2043.73088609 116.06723159 2044.25948072 108.31347656 2044.84838867 C103.46477604 2045.22820633 98.63087382 2045.68098723 93.79418945 2046.19067383 C67.87815874 2048.80568401 42.02008208 2048.94235024 15.99023438 2048.89208984 C11.0076412 2048.88292202 6.02551776 2048.88979591 1.04296875 2048.91259766 C-29.102087 2049.04990823 -58.77519993 2048.20621975 -88.74867249 2044.89994812 C-94.51176111 2044.27137512 -100.28723803 2043.82215301 -106.06738281 2043.38354492 C-114.29376045 2042.69525157 -122.37850819 2041.53615982 -130.51660156 2040.16479492 C-134.89467272 2039.4381127 -139.28109157 2038.92261381 -143.69238281 2038.44604492 C-150.48482522 2037.70132185 -157.1346818 2036.57281019 -163.83300781 2035.22729492 C-167.24802058 2034.55726898 -170.67574393 2034.03786173 -174.11816406 2033.52807617 C-181.11314984 2032.46762065 -188.02023579 2031.08940634 -194.94238281 2029.63354492 C-196.20219971 2029.3707373 -197.4620166 2029.10792969 -198.76000977 2028.8371582 C-208.18541339 2026.85858168 -217.58308945 2024.77342543 -226.96582031 2022.60229492 C-230.32007114 2021.8267456 -233.67837533 2021.07714651 -237.04394531 2020.35229492 C-250.80680065 2017.38432451 -250.80680065 2017.38432451 -256.92114258 2015.14086914 C-258.9782131 2014.45493795 -260.98706873 2013.981932 -263.11035156 2013.54760742 C-268.24067287 2012.43599407 -273.23493247 2010.97319849 -278.25488281 2009.44604492 C-279.12628906 2009.1856543 -279.99769531 2008.92526367 -280.89550781 2008.65698242 C-287.41294582 2006.68982888 -287.41294582 2006.68982888 -290.45019531 2005.43896484 C-293.09369088 2004.41152825 -295.66319855 2003.75316066 -298.42675781 2003.12182617 C-305.52691189 2001.39021367 -312.36382548 1999.05320124 -319.25488281 1996.63354492 C-320.54240348 1996.18524431 -321.83000184 1995.73716681 -323.11767578 1995.28930664 C-331.05188293 1992.52155119 -338.94892645 1989.66951493 -346.79785156 1986.66870117 C-349.66696577 1985.57487322 -352.54810263 1984.5333345 -355.44238281 1983.50854492 C-362.42059299 1980.98922131 -369.24332976 1978.08206917 -376.09277344 1975.23608398 C-378.49310772 1974.24432176 -380.90332864 1973.27887932 -383.31738281 1972.32104492 C-392.22515281 1968.76997445 -401.01820275 1965.04032703 -409.70410156 1960.97338867 C-415.1987625 1958.43088876 -420.73763415 1955.99110693 -426.29394531 1953.58666992 C-434.82943089 1949.87711399 -443.11143405 1945.91388112 -451.27832031 1941.45385742 C-455.22066669 1939.30749215 -459.23129224 1937.30981435 -463.25488281 1935.32104492 C-469.59238932 1932.18003108 -475.82609334 1928.89076941 -482.00488281 1925.44604492 C-482.77058594 1925.02709961 -483.53628906 1924.6081543 -484.32519531 1924.17651367 C-488.21536608 1922.04166386 -492.03413269 1919.82789412 -495.81738281 1917.50854492 C-500.55841072 1914.63271765 -505.45121788 1912.16177289 -510.43847656 1909.74291992 C-513.00488281 1908.44604492 -513.00488281 1908.44604492 -516.00488281 1906.44604492 C-516.00488281 1905.78604492 -516.00488281 1905.12604492 -516.00488281 1904.44604492 C-517.27332031 1904.07479492 -517.27332031 1904.07479492 -518.56738281 1903.69604492 C-527.99251337 1900.26872472 -536.48453963 1893.83326431 -544.75488281 1888.25854492 C-548.41442871 1885.79906633 -552.14717304 1883.58009713 -556.00488281 1881.44604492 C-556.00488281 1880.78604492 -556.00488281 1880.12604492 -556.00488281 1879.44604492 C-556.75125 1879.16631836 -557.49761719 1878.8865918 -558.26660156 1878.59838867 C-560.70742805 1877.57122203 -562.64501132 1876.49956161 -564.81738281 1875.00854492 C-565.96400391 1874.22737305 -565.96400391 1874.22737305 -567.13378906 1873.43041992 C-568.55498047 1872.4481543 -568.55498047 1872.4481543 -570.00488281 1871.44604492 C-572.03784649 1870.04356727 -574.07125278 1868.64173789 -576.10522461 1867.24072266 C-577.5156155 1866.26826575 -578.92468035 1865.29388223 -580.33227539 1864.31738281 C-583.17928907 1862.34931295 -585.98210207 1860.45907527 -588.98925781 1858.73901367 C-589.65441406 1858.31233398 -590.31957031 1857.8856543 -591.00488281 1857.44604492 C-591.00488281 1856.78604492 -591.00488281 1856.12604492 -591.00488281 1855.44604492 C-591.72804688 1855.1959668 -592.45121094 1854.94588867 -593.19628906 1854.68823242 C-596.25208012 1853.33671426 -598.38509282 1851.7122198 -600.94238281 1849.57104492 C-604.50005255 1846.60538045 -608.14348944 1844.00224793 -612.00488281 1841.44604492 C-619.26982868 1836.09041465 -626.26201415 1830.4601131 -633.09960938 1824.57299805 C-637.60014346 1820.72165847 -642.26685331 1817.11967967 -647.04394531 1813.61791992 C-648.39914103 1812.60572659 -649.70737176 1811.53119737 -651.00488281 1810.44604492 C-651.00488281 1809.78604492 -651.00488281 1809.12604492 -651.00488281 1808.44604492 C-651.72675781 1808.21916992 -652.44863281 1807.99229492 -653.19238281 1807.75854492 C-655.90893674 1806.49081976 -657.39260585 1805.18532003 -659.40332031 1803.01245117 C-662.35367722 1800.12685819 -665.71684905 1797.71705464 -668.99316406 1795.21557617 C-669.65703125 1794.63163086 -670.32089844 1794.04768555 -671.00488281 1793.44604492 C-671.00488281 1792.78604492 -671.00488281 1792.12604492 -671.00488281 1791.44604492 C-671.58826416 1791.18484863 -672.17164551 1790.92365234 -672.77270508 1790.65454102 C-675.13958348 1789.37311828 -676.78081954 1787.97034515 -678.71972656 1786.11010742 C-679.40615234 1785.4578418 -680.09257813 1784.80557617 -680.79980469 1784.13354492 C-681.50685547 1783.45291992 -682.21390625 1782.77229492 -682.94238281 1782.07104492 C-684.34569472 1780.72818734 -685.75060405 1779.3869968 -687.15722656 1778.04760742 C-687.81706543 1777.41886719 -688.4769043 1776.79012695 -689.15673828 1776.14233398 C-690.70848439 1774.71808934 -692.35027007 1773.39282889 -694.00878906 1772.09448242 C-694.99685547 1771.27850586 -694.99685547 1771.27850586 -696.00488281 1770.44604492 C-696.00488281 1769.78604492 -696.00488281 1769.12604492 -696.00488281 1768.44604492 C-696.64425781 1768.17791992 -697.28363281 1767.90979492 -697.94238281 1767.63354492 C-700.00488281 1766.44604492 -700.00488281 1766.44604492 -701.00488281 1763.44604492 C-701.66488281 1763.11604492 -702.32488281 1762.78604492 -703.00488281 1762.44604492 C-705.00488281 1761.44604492 -705.00488281 1761.44604492 -706.00488281 1758.44604492 C-707.32826913 1757.75984461 -708.66438229 1757.09818031 -710.00488281 1756.44604492 C-714.37209245 1753.14637542 -717.85881839 1749.4876015 -721.39160156 1745.31323242 C-722.96254443 1743.43234407 -722.96254443 1743.43234407 -724.71191406 1741.82885742 C-726.00488281 1740.44604492 -726.00488281 1740.44604492 -726.00488281 1738.44604492 C-726.64425781 1738.17791992 -727.28363281 1737.90979492 -727.94238281 1737.63354492 C-730.00488281 1736.44604492 -730.00488281 1736.44604492 -731.00488281 1733.44604492 C-731.66488281 1733.11604492 -732.32488281 1732.78604492 -733.00488281 1732.44604492 C-735.00488281 1731.44604492 -735.00488281 1731.44604492 -736.00488281 1728.44604492 C-737.33590338 1727.77477264 -738.66965422 1727.10890752 -740.00488281 1726.44604492 C-742.01269531 1724.44995117 -742.01269531 1724.44995117 -744.12988281 1722.00854492 C-746.66230693 1719.11374397 -749.19212848 1716.22534122 -751.81347656 1713.41088867 C-752.27286621 1712.91580811 -752.73225586 1712.42072754 -753.20556641 1711.91064453 C-754.51329501 1710.504215 -755.82348962 1709.10007964 -757.13378906 1707.69604492 C-759.00488281 1705.44604492 -759.00488281 1705.44604492 -759.00488281 1703.44604492 C-759.66488281 1703.44604492 -760.32488281 1703.44604492 -761.00488281 1703.44604492 C-762.48257499 1701.81171738 -763.88757601 1700.11128124 -765.25488281 1698.38354492 C-767.96436891 1694.9868386 -770.68288426 1691.63290845 -773.56738281 1688.38354492 C-776.00488281 1685.44604492 -776.00488281 1685.44604492 -776.00488281 1683.44604492 C-776.57078125 1683.23592773 -777.13667969 1683.02581055 -777.71972656 1682.80932617 C-780.77459126 1680.98685133 -782.51619245 1678.46346993 -784.56738281 1675.63354492 C-788.1214673 1670.86022965 -791.80107247 1666.26094309 -795.69238281 1661.75854492 C-808.00488281 1647.41627467 -808.00488281 1647.41627467 -808.00488281 1643.44604492 C-808.99488281 1643.11604492 -809.98488281 1642.78604492 -811.00488281 1642.44604492 C-812.05369841 1640.80965756 -813.04433976 1639.13575934 -814.00488281 1637.44604492 C-815.95671954 1634.81999861 -817.93994519 1632.22329827 -819.95214844 1629.64331055 C-823.00488281 1625.65821395 -823.00488281 1625.65821395 -823.00488281 1623.44604492 C-823.66488281 1623.44604492 -824.32488281 1623.44604492 -825.00488281 1623.44604492 C-826.45019531 1621.42651367 -826.45019531 1621.42651367 -828.12988281 1618.63354492 C-830.61281847 1614.61036495 -833.18845154 1610.74329565 -836.00488281 1606.94604492 C-847.00488281 1592.0144043 -847.00488281 1592.0144043 -847.00488281 1588.44604492 C-847.66488281 1588.44604492 -848.32488281 1588.44604492 -849.00488281 1588.44604492 C-850.37207031 1586.46948242 -850.37207031 1586.46948242 -851.87988281 1583.82104492 C-854.13728636 1579.93178338 -856.49210286 1576.17714242 -859.00488281 1572.44604492 C-860.17690082 1570.63700066 -861.34301168 1568.82412274 -862.50488281 1567.00854492 C-863.07207031 1566.12295898 -863.63925781 1565.23737305 -864.22363281 1564.32495117 C-865.85373214 1561.69033888 -867.40643538 1559.02245802 -868.93359375 1556.32714844 C-870.88040211 1552.90869849 -872.88381113 1549.52338237 -874.87988281 1546.13354492 C-875.32114502 1545.38226318 -875.76240723 1544.63098145 -876.21704102 1543.85693359 C-878.50525658 1539.96684121 -880.82447277 1536.10081404 -883.19238281 1532.25854492 C-886.26476837 1527.18736308 -888.81805741 1521.88401393 -891.39160156 1516.54760742 C-892.76630542 1513.90471429 -894.22303189 1511.80617463 -896.00488281 1509.44604492 C-897.04129479 1507.46466908 -898.03742639 1505.46198839 -899.00488281 1503.44604492 C-902.70528078 1495.96990152 -906.4103266 1488.50839127 -910.37402344 1481.16748047 C-914.67134192 1473.2009274 -918.48421278 1465.1134942 -922.09082031 1456.81323242 C-923.89987417 1452.65222452 -925.81298222 1448.54636829 -927.75488281 1444.44604492 C-930.00474579 1439.67943868 -932.07771028 1434.88230046 -933.97753906 1429.96557617 C-935.21635722 1426.92740998 -936.60636614 1423.97646933 -938.00488281 1421.00854492 C-940.28165254 1416.13545884 -942.2382095 1411.25456945 -944.01269531 1406.18041992 C-945.06303612 1403.28577991 -946.23578542 1400.46642576 -947.44238281 1397.63354492 C-950.56775806 1390.21434106 -953.20316034 1382.63584609 -955.84228516 1375.03393555 C-956.74950471 1372.42090513 -957.65811129 1369.80836198 -958.56738281 1367.19604492 C-958.86926514 1366.32705566 -959.17114746 1365.45806641 -959.48217773 1364.56274414 C-960.95374088 1360.35193382 -962.46747563 1356.18637465 -964.19238281 1352.07104492 C-966.19135205 1347.22608558 -967.54877461 1342.24232279 -968.94628906 1337.19604492 C-970.02307702 1333.38159311 -971.18445076 1329.59942194 -972.37988281 1325.82104492 C-980.8138391 1299.04480045 -980.8138391 1299.04480045 -984.00488281 1285.44604492 C-984.35190113 1283.99927718 -984.69962007 1282.55267739 -985.04785156 1281.10620117 C-986.12665789 1276.61483508 -987.19151176 1272.12025992 -988.25292969 1267.62475586 C-988.77836435 1265.40360025 -989.3058761 1263.18293544 -989.83496094 1260.96264648 C-995.24870521 1238.23582068 -1000.25521562 1215.51569013 -1003.70507812 1192.40161133 C-1004.11911049 1189.70096046 -1004.59403373 1187.01185242 -1005.06738281 1184.32104492 C-1005.96792801 1178.99158891 -1006.58657278 1173.63973554 -1007.18481445 1168.27001953 C-1007.71607043 1163.60734078 -1008.37172368 1158.98023345 -1009.11254883 1154.34643555 C-1010.6915866 1144.43396944 -1011.70457667 1134.55610394 -1012.43823242 1124.54736328 C-1012.80073577 1119.78451976 -1013.24316307 1115.03810126 -1013.7434082 1110.2878418 C-1016.36109999 1084.35702565 -1016.5012239 1058.4860477 -1016.45092773 1032.44116211 C-1016.44175991 1027.45856894 -1016.4486338 1022.47644549 -1016.47143555 1017.49389648 C-1016.60874612 987.34884074 -1015.76505764 957.67572781 -1012.45878601 927.70225525 C-1011.83021301 921.93916662 -1011.3809909 916.16368971 -1010.94238281 910.38354492 C-1010.25408946 902.15716728 -1009.09499771 894.07241955 -1007.72363281 885.93432617 C-1006.99695059 881.55625502 -1006.4814517 877.16983617 -1006.00488281 872.75854492 C-1005.31894365 866.50225654 -1004.32352863 860.36272925 -1003.11035156 854.18798828 C-1002.30259685 850.07629244 -1001.60728697 845.96759357 -1001.00488281 841.82104492 C-1000.15279477 836.08365208 -998.97629277 830.45181793 -997.72363281 824.78979492 C-997.08246694 821.80697977 -996.52317537 818.82714177 -996.00488281 815.82104492 C-995.15536995 811.01181921 -994.0001709 806.31925454 -992.78613281 801.59057617 C-991.37467927 795.90947567 -990.21742133 790.17224354 -989.00488281 784.44604492 C-985.12218121 766.13043191 -985.12218121 766.13043191 -982.70019531 759.53173828 C-982.01419097 757.47396611 -981.54090658 755.46452723 -981.10644531 753.34057617 C-979.99483196 748.21025486 -978.53203638 743.21599527 -977.00488281 738.19604492 C-976.74449219 737.32463867 -976.48410156 736.45323242 -976.21582031 735.55541992 C-974.24866677 729.03798191 -974.24866677 729.03798191 -972.99780273 726.00073242 C-971.97036614 723.35723685 -971.31199855 720.78772918 -970.68066406 718.02416992 C-968.94905156 710.92401584 -966.61203913 704.08710225 -964.19238281 697.19604492 C-963.7440822 695.90852426 -963.2960047 694.62092589 -962.84814453 693.33325195 C-960.08038908 685.3990448 -957.22835282 677.50200128 -954.22753906 669.65307617 C-953.13371111 666.78396196 -952.09217239 663.9028251 -951.06738281 661.00854492 C-948.5480592 654.03033475 -945.64090706 647.20759797 -942.79492188 640.3581543 C-941.80315965 637.95782002 -940.83771721 635.5475991 -939.87988281 633.13354492 C-936.54935054 624.77178305 -933.08144027 616.48411248 -929.31347656 608.30932617 C-927.15611932 603.58889974 -925.05818271 598.84198552 -922.96948242 594.09082031 C-918.63360382 584.23027503 -914.1467444 574.55389513 -908.97753906 565.10229492 C-906.84085576 561.18450989 -904.85707187 557.19610845 -902.87988281 553.19604492 C-899.73886371 546.85854121 -896.44960737 540.62483453 -893.00488281 534.44604492 C-892.5859375 533.6803418 -892.16699219 532.91463867 -891.73535156 532.12573242 C-889.53442541 528.11515588 -887.25086026 524.1712417 -884.87988281 520.25854492 C-883.31820883 517.67821558 -881.85465456 515.14558842 -880.50488281 512.44604492 C-877.40983276 506.25594482 -873.69780181 500.42014558 -869.81738281 494.69604492 C-868.19442893 492.29726036 -866.80404388 490.04436705 -865.50488281 487.44604492 C-863.86060376 484.15748682 -861.897611 481.26562483 -859.82519531 478.23510742 C-858.3825619 476.0247206 -857.01951587 473.80693854 -855.68457031 471.53198242 C-855.28318848 470.84869873 -854.88180664 470.16541504 -854.46826172 469.46142578 C-853.66486577 468.08563042 -852.86756314 466.70625716 -852.07666016 465.32324219 C-851.10655463 463.66483175 -850.0618366 462.05050078 -849.00488281 460.44604492 C-848.34488281 460.44604492 -847.68488281 460.44604492 -847.00488281 460.44604492 C-846.72644531 459.7009668 -846.44800781 458.95588867 -846.16113281 458.18823242 C-845.11976142 455.71849351 -844.02094401 453.76580793 -842.50488281 451.57104492 C-841.98152344 450.80405273 -841.45816406 450.03706055 -840.91894531 449.24682617 C-840.28730469 448.32256836 -839.65566406 447.39831055 -839.00488281 446.44604492 C-837.29071401 443.88742687 -835.58561359 441.32279337 -833.87988281 438.75854492 C-832.64458594 436.90512522 -831.40905424 435.05194212 -830.16796875 433.20239258 C-829.39109395 432.02925292 -828.62866673 430.8464199 -827.88085938 429.65454102 C-826.97123823 428.21942643 -825.99387348 426.82766063 -825.00488281 425.44604492 C-824.34488281 425.44604492 -823.68488281 425.44604492 -823.00488281 425.44604492 C-822.75480469 424.72288086 -822.50472656 423.9997168 -822.24707031 423.25463867 C-820.89555215 420.19884761 -819.27105769 418.06583492 -817.12988281 415.50854492 C-814.16421834 411.95087519 -811.56108583 408.3074383 -809.00488281 404.44604492 C-803.57868445 397.08537299 -797.86171771 390.00741977 -791.91870117 383.0612793 C-787.54715392 377.9435231 -783.28795304 372.72795837 -779.44238281 367.19995117 C-778.96800781 366.62116211 -778.49363281 366.04237305 -778.00488281 365.44604492 C-777.34488281 365.44604492 -776.68488281 365.44604492 -776.00488281 365.44604492 C-775.66457031 364.36323242 -775.66457031 364.36323242 -775.31738281 363.25854492 C-774.04965765 360.541991 -772.74415792 359.05832189 -770.57128906 357.04760742 C-767.68569608 354.09725051 -765.27589253 350.73407868 -762.77441406 347.45776367 C-761.89849609 346.46196289 -761.89849609 346.46196289 -761.00488281 345.44604492 C-760.34488281 345.44604492 -759.68488281 345.44604492 -759.00488281 345.44604492 C-758.74368652 344.86266357 -758.48249023 344.27928223 -758.21337891 343.67822266 C-756.93195617 341.31134426 -755.52918304 339.67010819 -753.66894531 337.73120117 C-753.01667969 337.04477539 -752.36441406 336.35834961 -751.69238281 335.65112305 C-751.01175781 334.94407227 -750.33113281 334.23702148 -749.62988281 333.50854492 C-748.28702523 332.10523302 -746.94583469 330.70032368 -745.60644531 329.29370117 C-744.97770508 328.6338623 -744.34896484 327.97402344 -743.70117188 327.29418945 C-742.27692723 325.74244335 -740.95166678 324.10065766 -739.65332031 322.44213867 C-739.10933594 321.78342773 -738.56535156 321.1247168 -738.00488281 320.44604492 C-737.34488281 320.44604492 -736.68488281 320.44604492 -736.00488281 320.44604492 C-735.73675781 319.80666992 -735.46863281 319.16729492 -735.19238281 318.50854492 C-734.00488281 316.44604492 -734.00488281 316.44604492 -731.00488281 315.44604492 C-730.67488281 314.78604492 -730.34488281 314.12604492 -730.00488281 313.44604492 C-729.00488281 311.44604492 -729.00488281 311.44604492 -726.00488281 310.44604492 C-725.3186825 309.1226586 -724.6570182 307.78654545 -724.00488281 306.44604492 C-720.70521331 302.07883528 -717.04643939 298.59210934 -712.87207031 295.05932617 C-710.99118196 293.4883833 -710.99118196 293.4883833 -709.38769531 291.73901367 C-708.00488281 290.44604492 -708.00488281 290.44604492 -706.00488281 290.44604492 C-705.73675781 289.80666992 -705.46863281 289.16729492 -705.19238281 288.50854492 C-704.00488281 286.44604492 -704.00488281 286.44604492 -701.00488281 285.44604492 C-700.67488281 284.78604492 -700.34488281 284.12604492 -700.00488281 283.44604492 C-699.00488281 281.44604492 -699.00488281 281.44604492 -696.00488281 280.44604492 C-695.33361053 279.11502435 -694.66774541 277.78127352 -694.00488281 276.44604492 C-692.00878906 274.43823242 -692.00878906 274.43823242 -689.56738281 272.32104492 C-686.67258186 269.7886208 -683.78417911 267.25879925 -680.96972656 264.63745117 C-680.474646 264.17806152 -679.97956543 263.71867187 -679.46948242 263.24536133 C-678.06305289 261.93763272 -676.65891753 260.62743812 -675.25488281 259.31713867 C-673.00488281 257.44604492 -673.00488281 257.44604492 -671.00488281 257.44604492 C-671.00488281 256.78604492 -671.00488281 256.12604492 -671.00488281 255.44604492 C-669.37055527 253.96835275 -667.67011913 252.56335173 -665.94238281 251.19604492 C-662.54567649 248.48655883 -659.19174634 245.76804347 -655.94238281 242.88354492 C-653.00488281 240.44604492 -653.00488281 240.44604492 -651.00488281 240.44604492 C-650.67488281 239.45604492 -650.34488281 238.46604492 -650.00488281 237.44604492 C-647.95610619 235.69333429 -645.90768304 234.06100118 -643.75488281 232.44604492 C-638.82687642 228.67206134 -634.01751322 224.81273642 -629.31738281 220.75854492 C-623.76559477 215.9956731 -617.96945149 211.68229764 -612.00488281 207.44604492 C-610.66763112 206.45129084 -609.33399863 205.45164371 -608.00488281 204.44604492 C-606.67221334 203.44516038 -605.33880658 202.44525719 -604.00488281 201.44604492 C-602.585625 200.38256836 -602.585625 200.38256836 -601.13769531 199.29760742 C-600.14511719 198.5628418 -599.15253906 197.82807617 -598.12988281 197.07104492 C-596.7415625 196.03850586 -596.7415625 196.03850586 -595.32519531 194.98510742 C-593.00488281 193.44604492 -593.00488281 193.44604492 -591.00488281 193.44604492 C-591.00488281 192.78604492 -591.00488281 192.12604492 -591.00488281 191.44604492 C-589.03170347 190.03274008 -587.0584118 188.73258644 -585.00488281 187.44604492 C-583.83071831 186.67216377 -582.65888746 185.89473181 -581.48925781 185.11401367 C-580.88251221 184.71110107 -580.2757666 184.30818848 -579.65063477 183.89306641 C-579.02503662 183.47742432 -578.39943848 183.06178223 -577.75488281 182.63354492 C-577.10028076 182.19921143 -576.44567871 181.76487793 -575.77124023 181.31738281 C-571.12278054 178.22202331 -566.55833543 175.02845833 -562.05566406 171.72338867 C-560.01047193 170.44952614 -558.36091344 169.87683156 -556.00488281 169.44604492 C-556.00488281 168.78604492 -556.00488281 168.12604492 -556.00488281 167.44604492 C-553.77441406 165.82495117 -553.77441406 165.82495117 -550.81738281 164.00854492 C-549.85445312 163.41170898 -548.89152344 162.81487305 -547.89941406 162.19995117 C-546.09559993 161.10695179 -544.28880722 160.01883445 -542.47753906 158.93823242 C-539.83044277 157.34077462 -537.23007967 155.68116439 -534.62988281 154.00854492 C-531.58184207 152.06073279 -528.54131095 150.14153534 -525.37988281 148.38354492 C-521.89688744 146.38404758 -518.61443363 144.19430301 -515.31347656 141.91088867 C-512.63313639 140.21016521 -509.8485096 138.85521195 -507.00488281 137.44604492 C-505.12132713 136.35653722 -503.24643474 135.25193347 -501.37988281 134.13354492 C-496.23671628 131.10137958 -490.98979345 128.41391784 -485.62988281 125.78979492 C-482.55727747 124.21691362 -479.84183903 122.40489564 -477.00488281 120.44604492 C-475.01474219 119.42656452 -473.01291605 118.42981447 -471.00488281 117.44604492 C-463.52873941 113.74564695 -456.06722916 110.04060113 -448.72631836 106.0769043 C-440.76345092 101.78157392 -432.67947972 97.97055998 -424.38378906 94.36401367 C-418.98264377 92.0154298 -413.66163907 89.50496118 -408.33691406 86.98901367 C-404.91933762 85.40643138 -401.46902726 83.92356952 -398.00488281 82.44604492 C-396.22984375 81.6474707 -396.22984375 81.6474707 -394.41894531 80.83276367 C-386.70636877 77.36311904 -378.97356406 74.23327895 -370.94091797 71.57568359 C-367.50073152 70.41788813 -364.28989777 69.13509544 -361.06738281 67.45776367 C-356.84888537 65.28098818 -352.51910779 63.87845219 -348.00488281 62.44604492 C-346.33756792 61.87619891 -344.67226502 61.30043952 -343.00878906 60.71948242 C-341.69515381 60.2614624 -341.69515381 60.2614624 -340.35498047 59.79418945 C-339.43507324 59.47305176 -338.51516602 59.15191406 -337.56738281 58.82104492 C-336.58817871 58.48057129 -335.60897461 58.14009766 -334.60009766 57.78930664 C-329.07605118 55.86846678 -323.55603499 53.93676149 -318.04003906 51.99291992 C-315.73667257 51.18557427 -313.43328756 50.37828142 -311.12988281 49.57104492 C-310.05552979 49.18996582 -308.98117676 48.80888672 -307.87426758 48.41625977 C-302.64312799 46.58813142 -297.51158748 45.00776601 -292.08251953 43.89819336 C-288.65577286 43.15244309 -285.34082791 42.0816807 -282.00488281 41.00854492 C-281.3077417 40.78827637 -280.61060059 40.56800781 -279.89233398 40.34106445 C-276.34920177 39.2168768 -272.8264039 38.04693214 -269.31738281 36.82104492 C-264.6721022 35.23986287 -259.90998159 34.22773294 -255.11816406 33.19213867 C-251.99253369 32.4905078 -251.99253369 32.4905078 -248.96972656 31.43432617 C-246.06843873 30.46723023 -243.25098849 29.8014756 -240.25488281 29.19604492 C-234.48419255 27.99457629 -228.74431977 26.69442721 -223.00585938 25.34741211 C-204.01058182 20.89670605 -184.9213841 17.09567589 -165.71972656 13.65551758 C-164.27546543 13.39665861 -162.8314421 13.13646826 -161.38769531 12.87475586 C-152.22943934 11.22022188 -143.08404193 9.92004846 -133.83544922 8.88623047 C-129.18411731 8.35172751 -124.56843288 7.66080778 -119.94238281 6.94604492 C-110.67441061 5.57896135 -101.41565813 4.70131041 -92.07495117 4.01269531 C-87.32469719 3.6493505 -82.59061004 3.20658709 -77.8527832 2.70751953 C-51.91993 0.09003102 -26.04689135 -0.05030005 0 0 Z M349.99511719 547.44604492 C349.99511719 817.38604492 349.99511719 1087.32604492 349.99511719 1365.44604492 C394.54511719 1365.44604492 439.09511719 1365.44604492 484.99511719 1365.44604492 C484.99511719 1095.50604492 484.99511719 825.56604492 484.99511719 547.44604492 C440.44511719 547.44604492 395.89511719 547.44604492 349.99511719 547.44604492 Z " fill="#000000" transform="translate(1016.0048828125,-0.446044921875)"/>
</svg>
