<?xml version="1.0" encoding="UTF-8"?>
<svg version="1.1" xmlns="http://www.w3.org/2000/svg" width="400" height="400">
<path d="M0 0 C11.65463278 11.65463278 14.76885212 23.1272124 14.96484375 39.15234375 C14.72995561 69.17475738 4.7153924 99.65864002 -8.59765625 126.40234375 C-9.01660156 127.25119141 -9.43554688 128.10003906 -9.8671875 128.97460938 C-15.36610867 140.02791635 -21.1719057 150.5196782 -28.59765625 160.40234375 C-25.64207966 162.09244348 -23.50850163 162.6579702 -20.11328125 162.66796875 C-19.25992187 162.67054688 -18.4065625 162.673125 -17.52734375 162.67578125 C-16.64304687 162.66804687 -15.75875 162.6603125 -14.84765625 162.65234375 C-13.54441406 162.66394531 -13.54441406 162.66394531 -12.21484375 162.67578125 C-6.65088504 162.65907267 -1.95297398 161.88006779 3.40234375 160.40234375 C7.93814605 159.81041811 11.31735107 159.87091876 15.46484375 161.90234375 C17.63477297 164.70225242 18.25522562 166.69575312 18.00390625 170.25390625 C16.26634234 176.45949164 10.81633355 180.36617797 5.58984375 183.65234375 C-6.85678676 190.59228319 -17.99736286 192.73112495 -32.16015625 192.52734375 C-33.35962891 192.51832031 -34.55910156 192.50929688 -35.79492188 192.5 C-38.72937934 192.47661787 -41.66340859 192.44384655 -44.59765625 192.40234375 C-44.69788086 193.36720703 -44.79810547 194.33207031 -44.90136719 195.32617188 C-51.9754927 262.99402019 -51.9754927 262.99402019 -68.84765625 277.21484375 C-79.75393356 285.23635488 -93.02223987 286.58525747 -106.09765625 284.77734375 C-116.22307033 282.74094762 -123.1719987 275.94833242 -128.8125 267.60546875 C-137.46496278 252.32489296 -135.74260223 231.54650456 -136.16015625 214.52734375 C-136.20348683 212.85676331 -136.24710493 211.1861903 -136.29101562 209.515625 C-136.39653301 205.4779423 -136.49819743 201.44018004 -136.59765625 197.40234375 C-137.12512451 197.74225342 -137.65259277 198.08216309 -138.19604492 198.43237305 C-138.89963135 198.88008057 -139.60321777 199.32778809 -140.328125 199.7890625 C-141.02059326 200.23209717 -141.71306152 200.67513184 -142.42651367 201.1315918 C-153.09048517 207.3731269 -168.17638295 207.07775024 -179.91015625 204.15234375 C-184.76300588 202.54728634 -188.79194542 200.67910958 -192.03515625 196.58984375 C-192.88746489 193.27531014 -192.37779722 190.70294015 -191.59765625 187.40234375 C-189.49873162 184.73686013 -187.74088548 183.93149192 -184.46484375 183.2265625 C-183.66240234 183.04150146 -182.85996094 182.85644043 -182.03320312 182.66577148 C-180.76573242 182.38068726 -180.76573242 182.38068726 -179.47265625 182.08984375 C-170.15209878 179.8218531 -163.49627619 177.26717034 -157.59765625 169.40234375 C-165.51765625 166.92734375 -165.51765625 166.92734375 -173.59765625 164.40234375 C-178.12313418 168.84842733 -182.4752568 173.33386425 -186.62109375 178.1328125 C-205.43883324 199.73974263 -205.43883324 199.73974263 -212.7265625 200.67578125 C-220.925317 201.01794436 -226.61752366 198.59949943 -232.98046875 193.48828125 C-242.21874188 184.87633172 -247.34118786 173.52056094 -251.97265625 161.96484375 C-252.43889404 160.80815186 -252.90513184 159.65145996 -253.38549805 158.4597168 C-269.80393952 116.85906817 -289.26072943 58.79434496 -272.16015625 14.6953125 C-265.9467636 0.90934755 -255.61536486 -10.1413622 -241.44921875 -15.87109375 C-217.83315623 -24.09298218 -192.9868057 -19.21654698 -169.86328125 -11.90234375 C-169.11014648 -11.67361572 -168.35701172 -11.4448877 -167.58105469 -11.20922852 C-166.04382368 -10.73523003 -164.52038296 -10.21639236 -163.00390625 -9.6796875 C-159.11925459 -9.54725619 -156.14404075 -11.5653047 -152.84765625 -13.41015625 C-143.31641787 -18.70221012 -135.01785571 -19.93365783 -124.16015625 -19.84765625 C-123.18755859 -19.85539062 -122.21496094 -19.863125 -121.21289062 -19.87109375 C-116.43710349 -19.8583328 -112.03316026 -19.58015854 -107.3671875 -18.53125 C-102.77798098 -17.51122376 -99.36860056 -17.67383583 -94.72265625 -18.41015625 C-93.32706299 -18.61363264 -91.93122613 -18.81544487 -90.53515625 -19.015625 C-89.23578125 -19.20769531 -87.93640625 -19.39976563 -86.59765625 -19.59765625 C-56.87100068 -23.12390493 -23.40987369 -20.59364828 0 0 Z " fill="#20222D" transform="translate(329.59765625,75.59765625)"/>
<path d="M0 0 C3.46166407 2.87630979 6.74735287 5.89093322 10 9 C11.03060547 9.91845703 11.03060547 9.91845703 12.08203125 10.85546875 C20.91671984 19.02799133 28.00431925 30.65547929 32 42 C32 42.99 32 43.98 32 45 C31.02160156 45.02578125 30.04320312 45.0515625 29.03515625 45.078125 C19.16550196 45.50513069 10.22430121 46.56929018 3 54 C-2.73490998 61.77231221 -1.57771108 70.495995 -0.23046875 79.578125 C0.92927976 86.26993593 2.87585222 92.57995736 5.0625 99 C5.46025635 100.17554443 5.8580127 101.35108887 6.26782227 102.56225586 C11.95860029 119.03850923 19.3386835 134.28366056 28.11132812 149.32446289 C29 151 29 151 30 154 C29.0925 154.45375 28.185 154.9075 27.25 155.375 C21.87497122 158.90752483 20.31150419 165.99932637 19 172 C18.85639898 173.67702373 18.75248744 175.35765059 18.67578125 177.0390625 C17.90914691 191.23394913 16.48092924 205.24353728 14.51644897 219.32000732 C14.25740667 221.176218 14.00264058 223.03303092 13.75234985 224.89044189 C11.9155765 238.42281517 10.113892 250.94379179 0 261 C-10.40449705 268.81173653 -21.36677333 270.23772572 -34 269 C-41.49965334 267.24452559 -46.2910257 261.30397786 -50.25390625 255.0078125 C-57.81762708 240.21529575 -56.1526266 218.36502586 -55.921875 202.14453125 C-55.90933182 201.13622253 -55.89678864 200.12791382 -55.88386536 199.08905029 C-55.82973272 194.93906003 -55.77226147 190.7896734 -55.67773438 186.64038086 C-55.61101736 183.55829314 -55.57638342 180.47717041 -55.546875 177.39453125 C-55.51793152 176.46735794 -55.48898804 175.54018463 -55.45916748 174.58491516 C-55.4331055 168.23056099 -56.7780572 163.84646547 -61 159 C-64.9105343 155.85086737 -69.01694798 154.48615142 -74 154 C-73.68938096 145.45797643 -70.7175787 138.09351218 -67.79638672 130.16357422 C-60.43795644 110.17264561 -53.38893468 84.84784236 -62 64 C-65.19603979 57.60792041 -68.52062672 53.99047997 -75 51 C-75.99 50.505 -75.99 50.505 -77 50 C-89.55048214 49.1026213 -99.30837817 50.44693448 -111 55 C-111.66 55 -112.32 55 -113 55 C-114.45110024 34.07997157 -106.14097898 13.97596024 -93.25 -2.1953125 C-67.68728378 -29.60149383 -26.63839428 -20.41517966 0 0 Z " fill="#6D77AB" transform="translate(258,83)"/>
<path d="M0 0 C-1.69539085 3.55343738 -3.78991935 6.35403157 -6.25 9.4375 C-16.12660123 22.22938775 -21.37206534 38.30357965 -23.12890625 54.265625 C-23.21402969 55.03803528 -23.29915314 55.81044556 -23.38685608 56.60626221 C-24.3723699 66.48359691 -24.09572488 76.3599675 -23.88354492 86.27001953 C-23.69325522 95.9269878 -23.98525364 104.56295938 -26.30786133 113.97949219 C-27.25373498 118.10730483 -27.4592703 122.03067328 -27.375 126.25 C-27.36484863 127.01376953 -27.35469727 127.77753906 -27.34423828 128.56445312 C-27.05826224 138.98373518 -23.85096329 148.91082955 -16.46484375 156.59765625 C-16.00207031 157.01917969 -15.53929687 157.44070312 -15.0625 157.875 C-14.381875 158.57625 -13.70125 159.2775 -13 160 C-13.31050405 163.40864443 -14.66897337 164.9812041 -17.125 167.25 C-19.60469642 169.62449718 -21.95077521 172.02006744 -24.1875 174.625 C-27.46019039 178.41090774 -30.80768854 182.1223655 -34.1875 185.8125 C-34.69885498 186.37598145 -35.21020996 186.93946289 -35.73706055 187.52001953 C-42.28301495 194.64063104 -42.28301495 194.64063104 -46.6875 195.5625 C-55.10149655 194.13370813 -61.01604236 187.51543763 -66 181 C-67.8227719 178.07857569 -69.31001543 175.06307905 -70.75 171.9375 C-71.16483643 171.04828857 -71.57967285 170.15907715 -72.00708008 169.24291992 C-90.52653703 128.346793 -111.66617176 68.97033195 -97.12109375 24.30078125 C-96.20358719 22.10106887 -95.1735158 20.07347554 -94 18 C-93.5565625 17.17113281 -93.113125 16.34226562 -92.65625 15.48828125 C-86.13818289 3.89097568 -77.27044042 -3.14004052 -64.625 -7.375 C-42.77311919 -13.0517386 -20.91160906 -6.28629322 0 0 Z " fill="#6D77AB" transform="translate(161,73)"/>
<path d="M0 0 C9.30528775 6.97545703 14.90172529 14.88405303 17.40234375 26.25390625 C17.78509649 29.6022522 17.83360623 32.88646915 17.77734375 36.25390625 C17.76574219 37.16833496 17.75414062 38.08276367 17.7421875 39.02490234 C16.85303657 76.71574857 0.28128819 122.03812035 -23.59765625 151.25390625 C-24.58765625 150.92390625 -25.57765625 150.59390625 -26.59765625 150.25390625 C-25.79650563 145.63059956 -24.24180145 141.52242379 -22.53515625 137.16796875 C-20.33933173 130.34261421 -20.47500766 123.5552945 -20.53515625 116.45703125 C-20.53894287 115.42761414 -20.54272949 114.39819702 -20.54663086 113.33758545 C-20.56287015 108.9606832 -20.59093842 104.58387677 -20.61816406 100.20703125 C-20.6363932 96.99870242 -20.6483983 93.79038932 -20.66015625 90.58203125 C-20.66845459 89.61082336 -20.67675293 88.63961548 -20.68530273 87.63897705 C-20.70540043 81.93453914 -20.42084655 76.34269319 -19.83747864 70.66740417 C-17.92725018 51.44345907 -23.72927942 34.89796123 -35.66015625 19.81640625 C-36.96440962 18.28849479 -38.27633199 16.76707923 -39.59765625 15.25390625 C-40.37302734 14.26390625 -40.37302734 14.26390625 -41.1640625 13.25390625 C-49.99848664 2.27176497 -62.30210634 -5.22459387 -74.59765625 -11.74609375 C-74.59765625 -12.07609375 -74.59765625 -12.40609375 -74.59765625 -12.74609375 C-50.90641393 -18.2223786 -20.27118943 -13.62589725 0 0 Z " fill="#6D77AA" transform="translate(318.59765625,77.74609375)"/>
<path d="M0 0 C5.15301532 4.80948096 8.48422772 11.7086398 8.95776367 18.80053711 C9.14907136 38.61631138 6.46154939 55.45630442 -1.3125 73.75 C-4.11276289 80.43298035 -5.54622094 87.58845255 -7.1875 94.625 C-18.254488 93.37036684 -27.557903 90.07273334 -35.1875 81.625 C-40.32679004 74.0455696 -42.57726536 66.85192287 -42.5625 57.75 C-42.56378906 56.90703369 -42.56507813 56.06406738 -42.56640625 55.19555664 C-42.47753721 49.83867234 -41.73488823 45.22594796 -40.1875 40.0625 C-36.93097547 28.85959694 -37.84349896 17.18343492 -38.1875 5.625 C-35.93907909 4.64206733 -33.68890453 3.66355534 -31.4375 2.6875 C-30.80328125 2.40970703 -30.1690625 2.13191406 -29.515625 1.84570312 C-21.16021599 -1.76627056 -8.67249728 -4.10498205 0 0 Z " fill="#6D77AA" transform="translate(183.1875,141.375)"/>
<path d="M0 0 C0.02749868 1.83324547 0.04661673 3.6666171 0.0625 5.5 C0.07410156 6.5209375 0.08570313 7.541875 0.09765625 8.59375 C0 12 0 12 -0.50439453 15.54345703 C-1.15506919 20.60533006 -1.08833134 25.61553273 -1.02734375 30.7109375 C-1.01469758 32.78124833 -1.00233662 34.85156092 -0.99023438 36.921875 C-0.96546331 40.14947134 -0.93747956 43.37697347 -0.90405273 46.60449219 C-0.87363344 49.74414629 -0.85601224 52.88368202 -0.83984375 56.0234375 C-0.82638412 56.97479584 -0.8129245 57.92615417 -0.79905701 58.90634155 C-0.7706844 66.58487303 -1.2802365 74.14373563 -5 81 C-7.9194448 77.47684285 -9.82439638 73.5551044 -11.75 69.4375 C-12.09708008 68.69588623 -12.44416016 67.95427246 -12.80175781 67.19018555 C-20.89413393 49.55668445 -29.86961329 28.72577498 -28 9 C-25.92985571 4.16966332 -23.03763563 1.79846945 -18.3515625 -0.31640625 C-12.3269732 -2.06774035 -6.03908931 -1.33839277 0 0 Z " fill="#6C76A9" transform="translate(292,137)"/>
<path d="M0 0 C5.77249279 1.07622747 9.47999473 1.93999243 13 7 C13.92370098 11.03812642 13.5479416 13.99941099 11.5625 17.625 C2.03698079 26.45353 -7.90851702 29.59388506 -20.8359375 29.30078125 C-26.17399199 28.79333656 -31.20091802 27.39954099 -36 25 C-36 24.34 -36 23.68 -36 23 C-34.96101562 22.76925781 -33.92203125 22.53851563 -32.8515625 22.30078125 C-20.68831374 19.50275212 -10.50843248 16.69951629 -3 6 C-1.82831168 4.02068366 -0.90193523 2.12220053 0 0 Z " fill="#6B74A7" transform="translate(182,244)"/>
<path d="M0 0 C1.5778125 0.51046875 1.5778125 0.51046875 3.1875 1.03125 C7.64678727 2.16434759 11.67189724 2.34187035 16.25 2.3125 C17.50200195 2.31056641 17.50200195 2.31056641 18.77929688 2.30859375 C24.47146802 2.22027457 29.55097878 1.50789333 34.96875 -0.34375 C37 -1 37 -1 40 -1 C37.52486879 4.95057452 32.01427345 7.6327007 26.34765625 10.203125 C14.06103501 14.92739257 2.02452927 15.58399871 -11 15 C-11.66 14.67 -12.32 14.34 -13 14 C-13.21705048 8.46521283 -12.71388003 4.85646671 -9.875 0.125 C-6.71620091 -1.77027946 -3.42208937 -0.76365417 0 0 Z " fill="#6C76A9" transform="translate(298,245)"/>
<path d="M0 0 C-0.71157526 4.89424934 -2.74752347 8.03895522 -5.4296875 12.109375 C-9.60643486 19.79791492 -10.59332726 27.42246527 -11.1875 36.0625 C-11.26935547 37.11888672 -11.35121094 38.17527344 -11.43554688 39.26367188 C-11.63386926 41.84186282 -11.8217955 44.42035391 -12 47 C-13.32 47 -14.64 47 -16 47 C-16.55201692 29.92836573 -15.02560917 14.57022264 -3.33203125 1.1796875 C-2 0 -2 0 0 0 Z " fill="#232632" transform="translate(82,85)"/>
<path d="M0 0 C-0.15625 1.828125 -0.15625 1.828125 -1 4 C-3.40625 5.421875 -3.40625 5.421875 -6.5 6.75 C-16.92656694 11.74734865 -22.58231699 17.99162097 -27.90698242 28.07202148 C-28.95703125 30 -28.95703125 30 -31 33 C-32.32 33 -33.64 33 -35 33 C-31.9276075 21.3249085 -24.00805307 11.46967729 -14 5 C-5.27296588 0 -5.27296588 0 0 0 Z " fill="#242633" transform="translate(193,72)"/>
<path d="M0 0 C4.2762426 0.02732423 7.12681442 0.9818858 10.8125 3.25 C10.5 5.625 10.5 5.625 9.8125 8.25 C5.79522339 10.92818441 2.53223745 10.93882655 -2.1875 10.25 C-4.8125 8.5625 -4.8125 8.5625 -6.1875 6.25 C-5.83012368 1.12760601 -4.94776625 0.09945259 0 0 Z " fill="#22242F" transform="translate(172.1875,144.75)"/>
<path d="M0 0 C0.33 1.32 0.66 2.64 1 4 C0.10539062 4.09796875 -0.78921875 4.1959375 -1.7109375 4.296875 C-13.67567939 5.42610937 -13.67567939 5.42610937 -24 11 C-25.66617115 11.04063832 -27.33388095 11.042721 -29 11 C-29 10.01 -29 9.02 -29 8 C-19.03157931 2.79481481 -11.32480187 -0.41015379 0 0 Z " fill="#262937" transform="translate(114,72)"/>
<path d="M0 0 C1.50433594 0.01353516 1.50433594 0.01353516 3.0390625 0.02734375 C3.80992187 0.03894531 4.58078125 0.05054688 5.375 0.0625 C5.95703125 2.453125 5.95703125 2.453125 6.375 5.0625 C4.86156345 7.0804154 3.62560133 7.93719934 1.375 9.0625 C-4.86114663 9.51603794 -4.86114663 9.51603794 -7.625 7.875 C-8.625 6.0625 -8.625 6.0625 -8.4375 3.4375 C-6.96873642 -0.85580892 -4.04553728 -0.04704113 0 0 Z " fill="#21242F" transform="translate(277.625,142.9375)"/>
<path d="M0 0 C3.49754669 1.1658489 3.66824761 1.72545457 5.375 4.8125 C9.06439069 10.96148449 13.487783 13.44618941 20 16 C19.67 16.99 19.34 17.98 19 19 C12.53706026 18.73071084 8.62844586 16.4931677 4 12 C1.9673929 9.49648156 0.12482008 7.03639956 -1 4 C-0.62109375 1.7578125 -0.62109375 1.7578125 0 0 Z " fill="#262937" transform="translate(213,328)"/>
<path d="M0 0 C2.72943537 -0.05416741 5.45778564 -0.09375225 8.1875 -0.125 C9.34088867 -0.15013672 9.34088867 -0.15013672 10.51757812 -0.17578125 C14.8149434 -0.21266851 18.07901831 0.0041496 22 2 C22 2.99 22 3.98 22 5 C14.74 4.67 7.48 4.34 0 4 C0 2.68 0 1.36 0 0 Z " fill="#232633" transform="translate(200,70)"/>
<path d="M0 0 C1.32 0 2.64 0 4 0 C4.33 4.95 4.66 9.9 5 15 C3.68 15 2.36 15 1 15 C-0.32286246 10.03926578 -0.08893197 5.08888488 0 0 Z " fill="#262936" transform="translate(209,309)"/>
<path d="M0 0 C0.99 0.33 1.98 0.66 3 1 C2.01 4.63 1.02 8.26 0 12 C-0.99 12 -1.98 12 -3 12 C-2.88601335 10.37419034 -2.75844341 8.74932843 -2.625 7.125 C-2.55539063 6.22007813 -2.48578125 5.31515625 -2.4140625 4.3828125 C-2 2 -2 2 0 0 Z " fill="#222430" transform="translate(157,108)"/>
</svg>
