<?xml version="1.0" encoding="UTF-8"?>
<svg version="1.1" xmlns="http://www.w3.org/2000/svg" width="480" height="480">
<path d="M0 0 C2.57696821 2.10026363 5.12306068 4.23156989 7.6640625 6.375 C9.32709737 7.71286045 10.99278028 9.04745667 12.6640625 10.375 C16.60407392 8.68367802 19.73449551 6.04636754 23.0390625 3.375 C48.11557101 -16.53773181 76.36025161 -34.43426136 109.6640625 -32.625 C123.14348875 -30.71783897 135.23891641 -23.91551109 143.6015625 -13.125 C155.22895852 4.11562168 157.88792183 24.06865572 157.9140625 44.375 C157.91706863 45.50417343 157.91706863 45.50417343 157.9201355 46.65615845 C157.92816829 59.00156998 157.06644744 70.99554428 155.02783203 83.18896484 C154.5194584 86.24398328 154.09156991 89.30773807 153.6640625 92.375 C154.74558594 92.74109375 155.82710938 93.1071875 156.94140625 93.484375 C166.78206957 96.91251059 176.26047675 100.88133832 185.6640625 105.375 C186.68878662 105.8606543 187.71351074 106.34630859 188.76928711 106.84667969 C198.4715484 111.55622587 207.49393968 117.1312257 215.9140625 123.875 C216.50904541 124.34929443 217.10402832 124.82358887 217.71704102 125.31225586 C230.01953952 135.22752603 239.98553851 147.69287143 243.6640625 163.375 C245.32102189 178.80980713 243.18909276 192.42442611 233.5859375 205.0234375 C232.95171875 205.79945313 232.3175 206.57546875 231.6640625 207.375 C231.02984375 208.17164063 230.395625 208.96828125 229.7421875 209.7890625 C211.92845227 230.88427527 182.94525273 245.92212516 156.6640625 253.375 C155.6740625 253.375 154.6840625 253.375 153.6640625 253.375 C153.77476074 253.92623535 153.88545898 254.4774707 153.99951172 255.04541016 C160.9215563 289.98696921 164.8324696 327.49882083 145.6640625 359.375 C138.53658385 369.88035402 126.97057918 376.7084725 114.6640625 379.375 C77.43624205 382.20623569 47.24413449 363.4256618 19.6640625 340.375 C18.0005606 339.03772031 16.33478909 337.70324253 14.6640625 336.375 C11.92406286 337.65078673 9.69987881 339.02888547 7.40625 340.9921875 C6.79015869 341.51071289 6.17406738 342.02923828 5.53930664 342.56347656 C4.87922607 343.1200293 4.21914551 343.67658203 3.5390625 344.25 C-22.91250797 366.07917301 -51.29163241 381.63549397 -86.3359375 379.375 C-98.79316575 377.40316066 -110.26632595 369.07535954 -117.62890625 359.03125 C-128.72795539 341.76041838 -131.75644845 323.03096063 -131.7109375 302.8125 C-131.71261429 301.75489975 -131.71261429 301.75489975 -131.71432495 300.67593384 C-131.70210244 284.85400172 -130.38268481 268.71844824 -126.3359375 253.375 C-128.25792969 253.00375 -128.25792969 253.00375 -130.21875 252.625 C-135.49269737 251.44706252 -140.27323523 249.54157618 -145.2109375 247.375 C-146.11787354 246.97982178 -147.02480957 246.58464355 -147.95922852 246.17749023 C-174.51773928 234.42215948 -202.83485722 218.72650022 -214.3359375 190.375 C-218.18757019 179.29477497 -218.04627495 164.91504549 -213.6484375 154.02734375 C-198.12947715 122.66611138 -163.58377517 104.92636873 -131.8125 94.046875 C-129.3359375 93.375 -129.3359375 93.375 -126.3359375 93.375 C-126.50984009 92.35515015 -126.50984009 92.35515015 -126.68725586 91.31469727 C-127.21862677 88.18940781 -127.74605635 85.06346509 -128.2734375 81.9375 C-128.54704102 80.33358398 -128.54704102 80.33358398 -128.82617188 78.69726562 C-133.75124019 49.41549581 -135.42436257 14.12278718 -118.0859375 -11.625 C-110.14966599 -22.34825649 -99.15550958 -29.88903826 -85.890625 -32.34375 C-53.59647764 -35.89906898 -24.41996017 -19.41720845 0 0 Z M-92.3359375 -7.625 C-92.9340625 -7.28210938 -93.5321875 -6.93921875 -94.1484375 -6.5859375 C-102.61968978 -0.72413347 -107.11603926 11.89756569 -109.3359375 21.5625 C-112.79831217 41.7149654 -112.49355602 66.98718985 -105.3359375 86.375 C-97.02552447 85.51349069 -88.88841011 83.75231164 -80.71105957 82.07763672 C-72.62208691 80.42773445 -64.75375075 79.15792162 -56.50268555 78.59521484 C-47.37545676 78.06545697 -47.37545676 78.06545697 -39.796875 73.46875 C-37.32229071 70.57286479 -35.33361544 67.44569442 -33.41845703 64.16015625 C-31.81992114 61.52405015 -29.88370582 59.2279106 -27.8984375 56.875 C-27.17785156 55.99972656 -26.45726562 55.12445313 -25.71484375 54.22265625 C-18.62314102 45.73357367 -11.43319419 37.35149475 -3.8828125 29.265625 C-2.12485824 27.52414802 -2.12485824 27.52414802 -2.3359375 25.375 C-5.77892975 22.11811544 -9.59148932 19.2763626 -13.3359375 16.375 C-13.90860352 15.92882324 -14.48126953 15.48264648 -15.07128906 15.02294922 C-27.73669093 5.2290696 -41.19784203 -3.19572525 -56.3359375 -8.625 C-57.20089844 -8.94339844 -58.06585938 -9.26179688 -58.95703125 -9.58984375 C-69.56465291 -13.01013186 -82.69850014 -13.92949027 -92.3359375 -7.625 Z M29.6640625 25.375 C31.26155996 29.19822426 33.70943279 31.75633378 36.5390625 34.75 C37.54328582 35.8292248 38.54583137 36.9100127 39.546875 37.9921875 C40.06411133 38.55131836 40.58134766 39.11044922 41.11425781 39.68652344 C43.58791808 42.3815194 46.01589996 45.11267203 48.4140625 47.875 C49.14737793 48.71538818 49.14737793 48.71538818 49.89550781 49.57275391 C52.9374474 53.13336074 55.71660598 56.80612996 58.40625 60.640625 C59.05110352 61.54748047 59.69595703 62.45433594 60.36035156 63.38867188 C61.6191843 65.1746209 62.85425992 66.97762288 64.06152344 68.79882812 C66.91244199 72.83014358 69.04078801 75.72589578 74.01171875 76.76953125 C75.89367449 76.9905807 77.77829119 77.18929369 79.6640625 77.375 C81.71327905 77.69164914 83.75574629 78.04029718 85.79949951 78.39041138 C88.09957435 78.78436281 90.40171514 79.1628901 92.70507812 79.53710938 C93.49052002 79.66496826 94.27596191 79.79282715 95.08520508 79.92456055 C96.67392725 80.18229199 98.26279394 80.43913425 99.85180664 80.69506836 C108.64593956 82.11453289 117.32999012 83.62485946 125.97143555 85.82641602 C128.61660534 86.36533129 130.97337053 86.47758129 133.6640625 86.375 C134.14810516 83.75081903 134.62635748 81.12578403 135.1015625 78.5 C135.23626953 77.77296875 135.37097656 77.0459375 135.50976562 76.296875 C139.93571153 51.68429777 141.50231234 22.50175106 127.7890625 0.625 C123.08366439 -6.11040777 117.86771886 -10.13758671 109.6640625 -11.625 C78.24760052 -14.38614671 52.50728755 6.35396812 29.6640625 25.375 Z M12.6640625 42.375 C7.30514428 47.47108299 2.53627002 52.85135901 -2.0859375 58.62109375 C-4.87085953 62.02972228 -7.81388505 65.27183227 -10.8046875 68.5 C-12.54172427 70.40044961 -12.54172427 70.40044961 -13.3359375 73.375 C4.4840625 73.375 22.3040625 73.375 40.6640625 73.375 C38.73982265 69.52652029 36.50275562 66.59584599 33.7265625 63.375 C33.24437256 62.81192139 32.76218262 62.24884277 32.26538086 61.66870117 C28.79446542 57.63794253 25.28541059 53.64083014 21.7265625 49.6875 C20.41365234 48.22763672 20.41365234 48.22763672 19.07421875 46.73828125 C16.95163398 44.65697852 15.39487098 43.45845302 12.6640625 42.375 Z M-20.3359375 94.375 C-21.3062793 94.41093262 -22.27662109 94.44686523 -23.27636719 94.48388672 C-28.35472231 94.7291692 -28.35472231 94.7291692 -32.640625 97.2109375 C-33.15882813 98.04882812 -33.67703125 98.88671875 -34.2109375 99.75 C-35.17386719 101.25046875 -35.17386719 101.25046875 -36.15625 102.78125 C-36.49946289 103.34972656 -36.84267578 103.91820312 -37.19628906 104.50390625 C-38.44979945 106.56194044 -39.75926976 108.57699676 -41.078125 110.59375 C-48.64267555 122.24303312 -55.6352412 134.21138057 -62.3359375 146.375 C-62.93245117 147.45346191 -63.52896484 148.53192383 -64.14355469 149.64306641 C-65.99973717 153.02186075 -67.82811641 156.41427046 -69.6484375 159.8125 C-70.23036865 160.87291504 -70.8122998 161.93333008 -71.41186523 163.02587891 C-71.93981689 164.0266748 -72.46776855 165.0274707 -73.01171875 166.05859375 C-73.48520752 166.94087646 -73.95869629 167.82315918 -74.4465332 168.73217773 C-75.8752997 172.97768895 -74.88468082 176.06581009 -73.19116211 180.10620117 C-72.71171143 181.03408447 -72.23226074 181.96196777 -71.73828125 182.91796875 C-71.19204102 183.97854492 -70.64580078 185.03912109 -70.08300781 186.13183594 C-69.48584961 187.26395508 -68.88869141 188.39607422 -68.2734375 189.5625 C-67.81366516 190.44113708 -67.81366516 190.44113708 -67.34460449 191.33752441 C-57.44189204 210.24061426 -46.7507714 229.00385644 -34.3359375 246.375 C-33.81515625 247.30570313 -33.294375 248.23640625 -32.7578125 249.1953125 C-28.8028699 252.75476084 -24.4909713 252.24125914 -19.3359375 252.375 C-17.46301025 252.46056152 -17.46301025 252.46056152 -15.55224609 252.54785156 C-11.21045439 252.74392211 -6.86788312 252.87837505 -2.5234375 253 C-1.74324249 253.02245789 -0.96304749 253.04491577 -0.15921021 253.0680542 C15.48045109 253.49974283 31.03993775 253.25148422 46.6640625 252.375 C47.69974365 252.33906738 48.7354248 252.30313477 49.80249023 252.26611328 C55.33007207 252.0668581 55.33007207 252.0668581 60.06640625 249.5390625 C60.57300781 248.70117188 61.07960938 247.86328125 61.6015625 247 C62.23449219 245.9996875 62.86742187 244.999375 63.51953125 243.96875 C63.85645996 243.40027344 64.19338867 242.83179688 64.54052734 242.24609375 C65.77973791 240.18235847 67.08455516 238.17068085 68.40234375 236.15625 C75.97335788 224.51045422 82.96313571 212.53903783 89.6640625 200.375 C90.26057617 199.29653809 90.85708984 198.21807617 91.47167969 197.10693359 C93.32786217 193.72813925 95.15624141 190.33572954 96.9765625 186.9375 C97.55849365 185.87708496 98.1404248 184.81666992 98.73999023 183.72412109 C99.26794189 182.7233252 99.79589355 181.7225293 100.33984375 180.69140625 C100.81333252 179.80912354 101.28682129 178.92684082 101.7746582 178.01782227 C103.23875694 173.667323 102.16590306 170.55564596 100.41162109 166.4284668 C99.62005615 164.89186401 99.62005615 164.89186401 98.8125 163.32421875 C97.91785034 161.58265503 97.91785034 161.58265503 97.00512695 159.8059082 C96.35069816 158.55761955 95.69531961 157.30982843 95.0390625 156.0625 C94.70659515 155.42516937 94.37412781 154.78783875 94.03158569 154.13119507 C78.55494477 122.82687036 78.55494477 122.82687036 57.6640625 95.375 C48.96609408 93.45750689 39.36972103 93.99065351 30.4765625 93.75 C29.67213715 93.72754211 28.86771179 93.70508423 28.03890991 93.6819458 C11.88741532 93.24921855 -4.20187012 93.46856335 -20.3359375 94.375 Z M-72.5625 100.65234375 C-73.56765152 100.84855064 -73.56765152 100.84855064 -74.59310913 101.04872131 C-76.71679271 101.46472242 -78.83881683 101.88860664 -80.9609375 102.3125 C-82.39313238 102.59359255 -83.82542332 102.87419611 -85.2578125 103.15429688 C-92.83210392 104.60586937 -92.83210392 104.60586937 -100.3359375 106.375 C-99.71052142 112.97453984 -97.65673939 118.93471861 -95.5234375 125.1875 C-95.00813477 126.73147461 -95.00813477 126.73147461 -94.48242188 128.30664062 C-92.3089421 134.75367913 -89.93695011 141.08841971 -87.3359375 147.375 C-85.39655573 144.88495082 -83.75774467 142.45870386 -82.34765625 139.63671875 C-81.97761475 138.90960693 -81.60757324 138.18249512 -81.22631836 137.43334961 C-80.82936768 136.65096924 -80.43241699 135.86858887 -80.0234375 135.0625 C-74.41613178 124.18177178 -68.03820173 113.80078789 -61.57592773 103.41186523 C-60.31988538 101.41214768 -60.31988538 101.41214768 -59.3359375 99.375 C-63.9279079 99.23114348 -68.0594401 99.76394326 -72.5625 100.65234375 Z M86.6640625 99.375 C90.17028089 105.38994934 93.67917463 111.40328534 97.19921875 117.41015625 C98.375 119.41927083 99.55078125 121.42838542 100.7265625 123.4375 C101.31244141 124.43587891 101.89832031 125.43425781 102.50195312 126.46289062 C106.34532185 133.03628819 110.05686955 139.66909891 113.6640625 146.375 C116.55152455 144.93126898 116.65355526 143.1706435 117.72265625 140.16015625 C118.30176758 138.54077148 118.30176758 138.54077148 118.89257812 136.88867188 C119.49102539 135.1803418 119.49102539 135.1803418 120.1015625 133.4375 C120.69420898 131.78137695 120.69420898 131.78137695 121.29882812 130.09179688 C125.83499751 118.50415892 125.83499751 118.50415892 127.6640625 106.375 C123.27143738 105.3810682 118.87449272 104.40766431 114.4765625 103.4375 C113.25001953 103.15970703 112.02347656 102.88191406 110.75976562 102.59570312 C102.72155512 100.83535623 94.88408466 99.76807515 86.6640625 99.375 Z M-177.3359375 141.375 C-178.29886719 142.20386719 -179.26179688 143.03273437 -180.25390625 143.88671875 C-188.98919078 151.96184682 -195.48482344 161.14066317 -196.2109375 173.375 C-195.41403067 186.34284757 -188.13574247 195.91531205 -178.890625 204.3515625 C-163.72759767 217.52054788 -142.91162045 228.69124764 -123.3359375 233.375 C-122.3459375 233.045 -121.3559375 232.715 -120.3359375 232.375 C-119.31575796 229.96525235 -118.49841564 227.66770508 -117.734375 225.17578125 C-117.49628616 224.43693192 -117.25819733 223.69808258 -117.01289368 222.93684387 C-116.50148842 221.34855144 -115.99512085 219.75862997 -115.49325562 218.16729736 C-114.18932439 214.03408715 -112.85140112 209.91215828 -111.50390625 205.79296875 C-111.10432457 204.5711792 -111.10432457 204.5711792 -110.69667053 203.32470703 C-108.15982134 195.66673223 -105.18377906 188.24428824 -101.83935547 180.8996582 C-101.49146973 180.11034912 -101.14358398 179.32104004 -100.78515625 178.5078125 C-100.47924561 177.84668457 -100.17333496 177.18555664 -99.8581543 176.50439453 C-98.67794753 171.69197591 -100.62769398 167.25301161 -102.5234375 162.8671875 C-102.97098389 161.81055908 -103.41853027 160.75393066 -103.87963867 159.6652832 C-104.36021729 158.53823975 -104.8407959 157.41119629 -105.3359375 156.25 C-111.21146737 142.20352399 -115.90443705 127.94133699 -120.3359375 113.375 C-138.66142259 113.375 -163.89424637 129.68570712 -177.3359375 141.375 Z M147.6640625 113.375 C147.18948608 114.83800537 147.18948608 114.83800537 146.70532227 116.33056641 C145.22269886 120.89043995 143.72689306 125.44592494 142.2265625 130 C141.95727936 130.81856476 141.68799622 131.63712952 141.41055298 132.48049927 C137.77055288 143.50785739 133.94477701 154.34026381 129.16821289 164.93798828 C128.82008545 165.73060059 128.47195801 166.52321289 128.11328125 167.33984375 C127.65441528 168.33939087 127.65441528 168.33939087 127.1862793 169.35913086 C126.08487338 173.61079455 127.99657799 177.48381066 129.6328125 181.3828125 C130.035 182.35702148 130.4371875 183.33123047 130.8515625 184.33496094 C131.2846875 185.37942383 131.7178125 186.42388672 132.1640625 187.5 C137.29260661 200.05673336 141.63377148 212.81233602 145.76953125 225.72558594 C146.64488266 228.31819334 147.6231241 230.8448777 148.6640625 233.375 C167.97053344 230.52201948 190.0348966 217.95650487 204.6640625 205.375 C205.62957031 204.54484375 206.59507812 203.7146875 207.58984375 202.859375 C216.31867012 194.78019065 222.81301197 185.60826642 223.5390625 173.375 C222.74215567 160.40715243 215.46386747 150.83468795 206.21875 142.3984375 C192.13426949 130.16616264 166.6753144 113.375 147.6640625 113.375 Z M-87.3359375 199.375 C-96.22919353 219.33568304 -96.22919353 219.33568304 -100.3359375 240.375 C-96.42763424 241.22082106 -92.51729484 242.05647044 -88.60498047 242.88354492 C-86.63529935 243.30201285 -84.66723299 243.72805861 -82.69921875 244.15429688 C-74.90853092 245.79548238 -67.2891461 246.95205588 -59.3359375 247.375 C-60.68298951 243.78513854 -62.28857109 240.56641253 -64.2421875 237.26953125 C-65.10408691 235.80592163 -65.10408691 235.80592163 -65.98339844 234.31274414 C-66.59473633 233.28141357 -67.20607422 232.25008301 -67.8359375 231.1875 C-72.80912848 222.75014902 -77.68690077 214.27827063 -82.31445312 205.64575195 C-84.15257992 201.87584894 -84.15257992 201.87584894 -87.3359375 199.375 Z M113.6640625 199.375 C113.34356934 199.98158447 113.02307617 200.58816895 112.69287109 201.21313477 C105.82854405 214.15871653 98.70708964 226.86941002 90.98388672 239.32446289 C90.41814941 240.23703857 89.85241211 241.14961426 89.26953125 242.08984375 C88.76574951 242.89542725 88.26196777 243.70101074 87.74291992 244.53100586 C86.57989815 246.16278624 86.57989815 246.16278624 86.6640625 247.375 C96.18658044 246.9196405 105.18863189 245.4160723 114.4765625 243.3125 C116.39178711 242.89000977 116.39178711 242.89000977 118.34570312 242.45898438 C121.45366881 241.77220544 124.55960916 241.0774535 127.6640625 240.375 C127.09716723 235.71369812 126.19766393 231.48004657 124.703125 227.03125 C124.31382812 225.86722656 123.92453125 224.70320313 123.5234375 223.50390625 C123.11609375 222.30636719 122.70875 221.10882813 122.2890625 219.875 C121.88945312 218.67746094 121.48984375 217.47992188 121.078125 216.24609375 C119.1485647 210.51453799 117.17341402 204.87938398 114.6640625 199.375 C114.3340625 199.375 114.0040625 199.375 113.6640625 199.375 Z M-105.3359375 260.375 C-113.76295095 283.2012147 -114.64045853 316.46861003 -104.66992188 338.80664062 C-100.65989201 347.17173161 -96.14061687 353.55272253 -87.3359375 357.25 C-71.60538166 362.13922682 -55.99313998 356.66229425 -41.80859375 349.625 C-26.95966196 341.46063888 -13.26029182 331.41184823 -1.3359375 319.375 C-2.09777344 318.63636719 -2.85960937 317.89773438 -3.64453125 317.13671875 C-9.5054992 311.39972181 -15.01410413 305.58247809 -20.125 299.15234375 C-22.47540806 296.19979935 -24.89981966 293.3196148 -27.3359375 290.4375 C-31.59446984 285.34722306 -35.59515694 280.11870498 -39.5234375 274.7734375 C-42.20651192 271.11920603 -42.20651192 271.11920603 -46.41088867 269.76831055 C-47.73249613 269.59130386 -49.05529772 269.42308201 -50.37890625 269.26171875 C-51.85020135 269.06616713 -53.32147321 268.87044063 -54.79272461 268.67456055 C-55.56566864 268.57476898 -56.33861267 268.47497742 -57.13497925 268.37216187 C-71.37960548 266.52535649 -85.36691349 264.19947655 -99.32592773 260.75463867 C-101.65009742 260.25127154 -101.65009742 260.25127154 -105.3359375 260.375 Z M122.81640625 261.546875 C121.6665625 261.79703369 120.51671875 262.04719238 119.33203125 262.30493164 C118.10097656 262.5755542 116.86992187 262.84617676 115.6015625 263.125 C103.97676716 265.64139681 92.43113515 267.5589012 80.58959961 268.81738281 C74.25651322 269.5290554 74.25651322 269.5290554 68.7734375 272.51953125 C68.07734375 273.46183594 67.38125 274.40414063 66.6640625 275.375 C65.66262293 276.57866642 64.65709481 277.77893798 63.6484375 278.9765625 C62.56762039 280.31553974 61.48959823 281.6567768 60.4140625 283 C59.25523877 284.43492041 58.09638452 285.86981618 56.9375 287.3046875 C55.02337296 289.6827787 53.11237314 292.06329816 51.203125 294.4453125 C46.39620148 300.39756797 41.36423009 306.05966905 36.14453125 311.6484375 C31.63365197 315.92871148 31.63365197 315.92871148 29.6640625 321.375 C33.10732683 324.63214194 36.92196294 327.47017385 40.6640625 330.375 C41.50710938 331.03628906 41.50710938 331.03628906 42.3671875 331.7109375 C62.31666985 347.25715573 84.6846536 360.19586676 110.6640625 358.375 C114.08340712 357.54043193 116.73762291 356.31179301 119.6640625 354.375 C120.28539062 353.97410156 120.90671875 353.57320313 121.546875 353.16015625 C131.79018931 345.51092803 135.30210163 331.75416047 137.24072266 319.7487793 C137.96208027 313.99996676 138.00191205 308.2874979 137.9765625 302.5 C137.97454834 301.24509766 137.97253418 299.99019531 137.97045898 298.69726562 C137.83317815 285.74847698 136.33766744 273.04217683 133.6640625 260.375 C129.85648015 260.2443498 126.52986995 260.71672653 122.81640625 261.546875 Z M-13.3359375 273.375 C-11.41169765 277.22347971 -9.17463062 280.15415401 -6.3984375 283.375 C-5.91624756 283.93807861 -5.43405762 284.50115723 -4.93725586 285.08129883 C-1.46634042 289.11205747 2.04271441 293.10916986 5.6015625 297.0625 C6.91447266 298.52236328 6.91447266 298.52236328 8.25390625 300.01171875 C10.37649102 302.09302148 11.93325402 303.29154698 14.6640625 304.375 C20.02298072 299.27891701 24.79185498 293.89864099 29.4140625 288.12890625 C32.19898453 284.72027772 35.14201005 281.47816773 38.1328125 278.25 C39.86984927 276.34955039 39.86984927 276.34955039 40.6640625 273.375 C22.8440625 273.375 5.0240625 273.375 -13.3359375 273.375 Z " fill="#7FDEEA" transform="translate(226.3359375,66.625)"/>
<path d="M0 0 C8.80288754 6.34043826 15.4186507 14.72648904 17.58203125 25.4921875 C18.92007691 37.90936834 17.85729499 48.88109459 10.39453125 59.2421875 C3.58210875 67.3274193 -4.72289951 73.55522767 -15.48876953 74.71533203 C-28.40007937 75.61089799 -39.16843729 74.04490094 -49.3515625 65.46484375 C-57.86959925 57.33325857 -62.42046403 48.68416257 -62.88867188 36.85693359 C-63.04371176 24.34263074 -60.22647828 14.71931927 -51.41796875 5.4921875 C-37.63784493 -7.66275112 -16.31305228 -10.17259803 0 0 Z " fill="#7FDEE9" transform="translate(262.41796875,205.5078125)"/>
</svg>
