<?xml version="1.0" encoding="UTF-8"?>
<svg version="1.1" xmlns="http://www.w3.org/2000/svg" width="293" height="300">
<path d="M0 0 C3.95164778 1.95633845 6.33134069 4.96060759 8 9 C8.24609566 11.00707626 8.24609566 11.00707626 8.24050903 13.16351318 C8.24463303 14.39602058 8.24463303 14.39602058 8.24884033 15.65342712 C8.2380545 16.99238792 8.2380545 16.99238792 8.22705078 18.35839844 C8.22734283 19.30507889 8.22763489 20.25175934 8.22793579 21.22712708 C8.22654302 24.35463645 8.21098416 27.48190727 8.1953125 30.609375 C8.19158219 32.77842071 8.1887353 34.94746811 8.18673706 37.11651611 C8.17910207 42.82444921 8.15945465 48.53228047 8.1373291 54.24017334 C8.11686784 60.06504946 8.10773474 65.88994205 8.09765625 71.71484375 C8.0762087 83.1432739 8.0420743 94.57162848 8 106 C8.95249791 105.99446924 8.95249791 105.99446924 9.9242382 105.98882675 C25.40806039 105.90031192 40.891794 105.83421106 56.37580681 105.79275131 C63.86391182 105.77216639 71.35184747 105.74412425 78.83984375 105.69824219 C85.3698956 105.65824908 91.89982473 105.63253763 98.42999566 105.62364602 C101.88455477 105.61845221 105.33876295 105.60633134 108.79320908 105.57707977 C112.65891621 105.54461425 116.52428671 105.54404856 120.39013672 105.54589844 C122.08947105 105.52432678 122.08947105 105.52432678 123.82313538 105.50231934 C132.2183449 105.54564331 139.57031056 107.16315895 146.375 112.3125 C151.90800232 117.97724047 155.28114519 124.83792628 155.3125 132.8125 C155.32925781 133.78832031 155.34601563 134.76414063 155.36328125 135.76953125 C154.49433349 143.49662586 151.11724829 148.65960577 146.125 154.4375 C144.94695625 155.8418552 143.77124402 157.24816891 142.59765625 158.65625 C141.99840332 159.37296875 141.39915039 160.0896875 140.78173828 160.828125 C137.94223651 164.28937572 135.25541426 167.86182564 132.5625 171.4375 C127.56640125 178.03937943 122.38535869 184.46003344 117.09667969 190.82910156 C111.60132195 197.45360036 106.28684068 204.20878968 101 211 C94.6749286 219.10900634 88.27162732 227.14376568 81.76611328 235.10888672 C77.60182094 240.22247456 73.58016832 245.42714592 69.58203125 250.671875 C66.6935253 254.42704544 63.69002126 258.08583839 60.6875 261.75 C56.096321 267.35593545 51.63138728 273.04118643 47.25 278.8125 C43.51708131 283.71822374 39.78164893 288.61815781 35.9375 293.4375 C35.26589844 294.28183594 34.59429687 295.12617188 33.90234375 295.99609375 C31.32727566 298.70863981 29.36317667 299.80362949 25.66796875 300.3359375 C19.55299973 300.43223622 15.89495621 299.77319541 11 296 C8.63243278 291.69028512 8.65292882 287.29902953 8.57348633 282.49707031 C8.55208084 281.6524826 8.53067535 280.8078949 8.50862122 279.93771362 C8.44047598 277.15131312 8.38595049 274.36483432 8.33203125 271.578125 C8.28830392 269.63383536 8.24391637 267.68956047 8.19889832 265.74530029 C8.1065768 261.67014682 8.02071975 257.59492469 7.93969727 253.51953125 C7.83589596 248.31323133 7.71851718 243.10734977 7.59654713 237.9014473 C7.50354989 233.88480114 7.41662295 229.86804157 7.33160973 225.85121918 C7.29051575 223.93277301 7.24784576 222.01435989 7.20353127 220.09598541 C7.14250768 217.40424352 7.08937651 214.71245512 7.03833008 212.02050781 C7.01917542 211.23785553 7.00002075 210.45520325 6.98028564 209.64883423 C6.89095635 204.34743606 7.32856216 199.26064667 8 194 C7.38653811 194.0088409 6.77307623 194.01768181 6.14102459 194.02679062 C-8.82554414 194.24105282 -23.79221808 194.4323242 -38.75938892 194.59840012 C-45.99758167 194.67926248 -53.23552792 194.76773987 -60.47338867 194.87451172 C-66.78614532 194.96761684 -73.09889013 195.04605992 -79.41203898 195.10732102 C-82.75111628 195.14022343 -86.0894372 195.18236129 -89.42826271 195.2377243 C-93.16684205 195.29846932 -96.90485659 195.33329433 -100.64379883 195.36230469 C-101.73569016 195.38603653 -102.82758148 195.40976837 -103.95256042 195.43421936 C-113.50895439 195.46118483 -122.68530655 193.11777936 -130.20703125 186.9453125 C-136.29872004 180.33602924 -138.69151501 172.83950863 -138.50390625 163.984375 C-137.2268149 156.42082625 -134.08381436 151.3017733 -129.125 145.5625 C-127.95610251 144.16853427 -126.78950857 142.77263429 -125.625 141.375 C-125.026875 140.65957031 -124.42875 139.94414062 -123.8125 139.20703125 C-120.82142401 135.56488053 -117.97242113 131.81735476 -115.125 128.0625 C-114.5769873 127.3418335 -114.02897461 126.62116699 -113.46435547 125.87866211 C-112.42843784 124.51575427 -111.3930843 123.15241742 -110.35839844 121.78857422 C-105.4202402 115.2866067 -100.32044837 108.94101522 -95.1328125 102.63671875 C-93.30371449 100.37547121 -91.54047896 98.08865215 -89.8125 95.75 C-88.05745294 93.37496349 -86.25775627 91.09657108 -84.3125 88.875 C-81.39929427 85.53160585 -78.66475889 82.05759978 -75.9375 78.5625 C-71.84996543 73.32611675 -67.70114616 68.1456574 -63.5 63 C-58.97792298 57.45779561 -54.51263113 51.87708718 -50.11132812 46.23852539 C-47.68199667 43.12939017 -45.23277814 40.03859666 -42.75390625 36.96875 C-41.93998413 35.95953491 -41.93998413 35.95953491 -41.10961914 34.92993164 C-40.06585553 33.63793181 -39.0196157 32.34792699 -37.97045898 31.06030273 C-35.86339478 28.44997366 -33.9823551 25.96988336 -32.28125 23.06640625 C-31.8584375 22.38449219 -31.435625 21.70257812 -31 21 C-30.34 21 -29.68 21 -29 21 C-28.72526855 20.41428223 -28.45053711 19.82856445 -28.16748047 19.22509766 C-26.26752247 15.60397319 -23.67010698 12.56096126 -21.125 9.375 C-20.59519531 8.694375 -20.06539063 8.01375 -19.51953125 7.3125 C-19.00003906 6.66023437 -18.48054688 6.00796875 -17.9453125 5.3359375 C-17.24172607 4.44720947 -17.24172607 4.44720947 -16.52392578 3.54052734 C-11.99978001 -1.03290422 -6.03154244 -0.86414284 0 0 Z " fill="#30AE75" transform="translate(138,0)"/>
<path d="M0 0 C3.91005465 1.93574698 6.47337183 4.93492978 8 9 C8.18481188 11.53935314 8.26138648 13.96645695 8.24050903 16.5043335 C8.24221788 17.26320838 8.24392673 18.02208327 8.24568737 18.80395436 C8.2489831 21.34823994 8.23797725 23.89226213 8.22705078 26.43652344 C8.22648669 28.2597503 8.2268032 30.08297762 8.22793579 31.90620422 C8.22851037 36.85832846 8.21673906 41.81035609 8.20278788 46.76245785 C8.19029802 51.93678741 8.18911139 57.11111911 8.18673706 62.28546143 C8.18051716 72.08494776 8.16409943 81.88438955 8.14403808 91.68385625 C8.12169495 102.83971601 8.11068964 113.99557789 8.10064721 125.15145445 C8.07973366 148.10099434 8.04454776 171.05049468 8 194 C-7.5862079 194.22462059 -23.17253218 194.42544816 -38.75938892 194.59840012 C-45.99758167 194.67926248 -53.23552792 194.76773987 -60.47338867 194.87451172 C-66.78614532 194.96761684 -73.09889013 195.04605992 -79.41203898 195.10732102 C-82.75111628 195.14022343 -86.0894372 195.18236129 -89.42826271 195.2377243 C-93.16684205 195.29846932 -96.90485659 195.33329433 -100.64379883 195.36230469 C-101.73569016 195.38603653 -102.82758148 195.40976837 -103.95256042 195.43421936 C-113.50895439 195.46118483 -122.68530655 193.11777936 -130.20703125 186.9453125 C-136.29872004 180.33602924 -138.69151501 172.83950863 -138.50390625 163.984375 C-137.2268149 156.42082625 -134.08381436 151.3017733 -129.125 145.5625 C-127.95610251 144.16853427 -126.78950857 142.77263429 -125.625 141.375 C-125.026875 140.65957031 -124.42875 139.94414062 -123.8125 139.20703125 C-120.82142401 135.56488053 -117.97242113 131.81735476 -115.125 128.0625 C-114.5769873 127.3418335 -114.02897461 126.62116699 -113.46435547 125.87866211 C-112.42843784 124.51575427 -111.3930843 123.15241742 -110.35839844 121.78857422 C-105.4202402 115.2866067 -100.32044837 108.94101522 -95.1328125 102.63671875 C-93.30371449 100.37547121 -91.54047896 98.08865215 -89.8125 95.75 C-88.05745294 93.37496349 -86.25775627 91.09657108 -84.3125 88.875 C-81.39929427 85.53160585 -78.66475889 82.05759978 -75.9375 78.5625 C-71.84996543 73.32611675 -67.70114616 68.1456574 -63.5 63 C-58.97792298 57.45779561 -54.51263113 51.87708718 -50.11132812 46.23852539 C-47.68199667 43.12939017 -45.23277814 40.03859666 -42.75390625 36.96875 C-41.93998413 35.95953491 -41.93998413 35.95953491 -41.10961914 34.92993164 C-40.06585553 33.63793181 -39.0196157 32.34792699 -37.97045898 31.06030273 C-35.86339478 28.44997366 -33.9823551 25.96988336 -32.28125 23.06640625 C-31.8584375 22.38449219 -31.435625 21.70257812 -31 21 C-30.34 21 -29.68 21 -29 21 C-28.72526855 20.41428223 -28.45053711 19.82856445 -28.16748047 19.22509766 C-26.26752247 15.60397319 -23.67010698 12.56096126 -21.125 9.375 C-20.59519531 8.694375 -20.06539063 8.01375 -19.51953125 7.3125 C-19.00003906 6.66023437 -18.48054688 6.00796875 -17.9453125 5.3359375 C-17.24172607 4.44720947 -17.24172607 4.44720947 -16.52392578 3.54052734 C-11.99978001 -1.03290422 -6.03154244 -0.86414284 0 0 Z " fill="#3ECF8E" transform="translate(138,0)"/>
<path d="M0 0 C0.66 0.33 1.32 0.66 2 1 C0.43905326 3.0428701 -1.12370929 5.08430858 -2.6875 7.125 C-3.12255859 7.69476563 -3.55761719 8.26453125 -4.00585938 8.8515625 C-5.32794159 10.57516598 -6.66112944 12.2894109 -8 14 C-8.4429541 14.57202148 -8.8859082 15.14404297 -9.34228516 15.73339844 C-12.65010684 19.88336895 -12.65010684 19.88336895 -16 21 C-14.63612885 18.04638063 -13.05802423 15.65655493 -10.99609375 13.14453125 C-10.42052734 12.44005859 -9.84496094 11.73558594 -9.25195312 11.00976562 C-8.35379883 9.92211914 -8.35379883 9.92211914 -7.4375 8.8125 C-6.83486328 8.07580078 -6.23222656 7.33910156 -5.61132812 6.58007812 C-1.20746971 1.20746971 -1.20746971 1.20746971 0 0 Z " fill="#3ED290" transform="translate(267,172)"/>
<path d="M0 0 C0.66 0.33 1.32 0.66 2 1 C0.44209679 3.06611241 -1.12109677 5.12784639 -2.6875 7.1875 C-3.12255859 7.76564453 -3.55761719 8.34378906 -4.00585938 8.93945312 C-6.78251635 12.57995893 -9.69105244 15.83414207 -13 19 C-13 15.6525634 -12.66537951 15.20731462 -10.6640625 12.71484375 C-9.93316406 11.79541992 -9.93316406 11.79541992 -9.1875 10.85742188 C-8.671875 10.22384766 -8.15625 9.59027344 -7.625 8.9375 C-7.11710938 8.30005859 -6.60921875 7.66261719 -6.0859375 7.00585938 C-4.13066466 4.56434105 -2.2137015 2.2137015 0 0 Z " fill="#3ED28F" transform="translate(240,206)"/>
<path d="M0 0 C0.66 0.33 1.32 0.66 2 1 C0.26606473 4.96747902 -2.31871573 8.27514474 -4.9375 11.6875 C-5.38029297 12.28111328 -5.82308594 12.87472656 -6.27929688 13.48632812 C-9.6412508 17.88041693 -9.6412508 17.88041693 -13 19 C-11.2782754 15.00559892 -8.61051014 11.76257721 -5.9375 8.375 C-2.67807651 4.37877222 -2.67807651 4.37877222 0 0 Z " fill="#3ED290" transform="translate(288,144)"/>
<path d="M0 0 C0.66 0.33 1.32 0.66 2 1 C-0.11866825 3.81732115 -2.24597694 6.62799805 -4.375 9.4375 C-4.97828125 10.23994141 -5.5815625 11.04238281 -6.203125 11.86914062 C-6.78320312 12.63291016 -7.36328125 13.39667969 -7.9609375 14.18359375 C-8.49509277 14.89056396 -9.02924805 15.59753418 -9.57958984 16.32592773 C-11 18 -11 18 -13 19 C-12.12710261 14.6490692 -9.77446551 11.78302398 -7.0625 8.375 C-6.60681641 7.78976563 -6.15113281 7.20453125 -5.68164062 6.6015625 C-3.87345161 4.29301078 -2.07521261 2.07521261 0 0 Z " fill="#3DD08E" transform="translate(221,230)"/>
<path d="M0 0 C0.66 0 1.32 0 2 0 C2 6.6 2 13.2 2 20 C1.34 20.33 0.68 20.66 0 21 C-0.88826175 13.81191259 -1.01202288 7.17757765 0 0 Z " fill="#259965" transform="translate(146,193)"/>
<path d="M0 0 C0.66 0.33 1.32 0.66 2 1 C-0.97 4.96 -0.97 4.96 -4 9 C-4.66 8.34 -5.32 7.68 -6 7 C-4.02 4.69 -2.04 2.38 0 0 Z " fill="#3AC787" transform="translate(186,274)"/>
<path d="" fill="#3BCC92" transform="translate(0,0)"/>
</svg>
