<?xml version="1.0" encoding="UTF-8"?>
<svg version="1.1" xmlns="http://www.w3.org/2000/svg" width="480" height="480">
<path d="M0 0 C1.18628242 -0.00855011 1.18628242 -0.00855011 2.39653015 -0.01727295 C4.06813237 -0.02667753 5.73975276 -0.03323875 7.41137695 -0.03710938 C9.90416319 -0.04670163 12.39608254 -0.07771993 14.88867188 -0.109375 C29.08479781 -0.20392554 43.29314863 1.08390399 56.76171875 5.890625 C57.86036255 6.27190552 57.86036255 6.27190552 58.98120117 6.66088867 C83.91324028 15.62440343 103.06162825 32.19265559 121.32421875 50.890625 C131.56909386 61.37747101 141.62326701 71.14890764 154.63671875 78.203125 C155.33023437 78.58339844 156.02375 78.96367187 156.73828125 79.35546875 C173.11772418 87.48384399 191.75008028 86.67420178 208.73046875 81.20703125 C217.54013585 77.85703942 226.23547372 72.65785738 232.88671875 65.92578125 C234.63671875 64.203125 234.63671875 64.203125 236.63671875 64.203125 C236.89839844 63.61402344 237.16007812 63.02492188 237.4296875 62.41796875 C238.70094625 60.08527066 240.03902406 58.59958132 241.94921875 56.765625 C242.56539063 56.1675 243.1815625 55.569375 243.81640625 54.953125 C244.41710937 54.375625 245.0178125 53.798125 245.63671875 53.203125 C246.61832418 52.22640318 247.59784569 51.24757733 248.57421875 50.265625 C249.25484375 49.585 249.93546875 48.904375 250.63671875 48.203125 C250.08799162 53.86069096 249.01920174 58.80871073 247.07421875 64.140625 C246.67614014 65.23697266 246.67614014 65.23697266 246.27001953 66.35546875 C235.0476658 96.54017608 216.92180184 120.0225813 187.59667969 134.30712891 C173.39117996 140.80117275 157.08270299 144.31380594 141.4921875 144.40625 C140.33919914 144.41480011 140.33919914 144.41480011 139.16291809 144.42352295 C137.53839469 144.43292554 135.91385263 144.43948795 134.28930664 144.44335938 C131.86893762 144.45294784 129.44946298 144.48396621 127.02929688 144.515625 C88.61754456 144.77740421 56.50507804 129.40681269 29.19958496 102.80291748 C25.12823993 98.76070948 21.10867319 94.66623244 17.09570312 90.56616211 C-0.29088918 72.8288555 -17.92270823 59.63488491 -43.55078125 58.828125 C-61.88521602 59.14423594 -77.57899597 66.24359304 -91.36328125 78.203125 C-92.20761719 78.86183594 -93.05195312 79.52054687 -93.921875 80.19921875 C-96.16238114 82.03822619 -97.98888818 83.87659729 -99.86328125 86.078125 C-100.45238281 86.76648438 -101.04148437 87.45484375 -101.6484375 88.1640625 C-102.21433594 88.83695312 -102.78023438 89.50984375 -103.36328125 90.203125 C-103.87761719 90.81414062 -104.39195313 91.42515625 -104.921875 92.0546875 C-106.07465475 93.43279814 -107.21989922 94.81720739 -108.36328125 96.203125 C-109.44286069 92.94595596 -109.27928344 91.05551432 -108.2109375 87.81640625 C-107.93330566 86.96884766 -107.65567383 86.12128906 -107.36962891 85.24804688 C-106.90242432 83.89549805 -106.90242432 83.89549805 -106.42578125 82.515625 C-105.9469751 81.11473633 -105.9469751 81.11473633 -105.45849609 79.68554688 C-98.91379982 61.00821063 -90.12737223 45.57782261 -76.36328125 31.203125 C-75.77933594 30.56761719 -75.19539063 29.93210937 -74.59375 29.27734375 C-56.12911914 9.7748882 -26.24569057 0.1510152 0 0 Z " fill="#00ACC1" transform="translate(109.36328125,239.796875)"/>
<path d="M0 0 C0.79322662 -0.00570007 1.58645325 -0.01140015 2.40371704 -0.01727295 C4.07951547 -0.02667659 5.755332 -0.03323838 7.43115234 -0.03710938 C9.9349215 -0.04671524 12.43783264 -0.07774051 14.94140625 -0.109375 C53.03562861 -0.36089734 85.01275644 15.27180759 112.03869629 41.60333252 C116.11004132 45.64554052 120.12960806 49.74001756 124.14257812 53.84008789 C141.33190986 71.37615487 158.9976206 84.86319401 184.4140625 85.515625 C204.76209671 85.15981238 223.20440907 76.41849619 237.6015625 62.203125 C240.01786394 59.60297454 242.32627745 56.92698169 244.6015625 54.203125 C245.11332031 53.5946875 245.62507813 52.98625 246.15234375 52.359375 C247.30810255 50.97897576 248.45584685 49.59187124 249.6015625 48.203125 C250.68114194 51.46029404 250.51756469 53.35073568 249.44921875 56.58984375 C249.17158691 57.43740234 248.89395508 58.28496094 248.60791016 59.15820312 C248.29644043 60.05990234 247.9849707 60.96160156 247.6640625 61.890625 C247.18525635 63.29151367 247.18525635 63.29151367 246.69677734 64.72070312 C240.15208107 83.39803937 231.36565348 98.82842739 217.6015625 113.203125 C217.01761719 113.83863281 216.43367188 114.47414063 215.83203125 115.12890625 C199.00420813 132.9025555 171.65088361 142.99830002 147.63006592 144.31085205 C145.48730877 144.36690157 143.34658216 144.39396891 141.203125 144.40625 C140.40989838 144.41195007 139.61667175 144.41765015 138.79940796 144.42352295 C137.12360953 144.43292659 135.447793 144.43948838 133.77197266 144.44335938 C131.2682035 144.45296524 128.76529236 144.48399051 126.26171875 144.515625 C88.04383773 144.76772464 56.27770098 129.2241876 29.16497803 102.80319214 C25.09345018 98.7608866 21.07365565 94.66637416 17.06054688 90.56616211 C-0.18927363 72.9683862 -18.28985766 59.6319655 -43.7734375 58.890625 C-64.15601674 59.28025614 -80.37335951 68.16483418 -95.3984375 81.203125 C-96.60176892 82.46070497 -97.77389572 83.74962221 -98.8984375 85.078125 C-99.47722656 85.75617188 -100.05601562 86.43421875 -100.65234375 87.1328125 C-101.22855469 87.81601563 -101.80476563 88.49921875 -102.3984375 89.203125 C-103.54359209 90.53704133 -104.68937695 91.87041697 -105.8359375 93.203125 C-106.6815625 94.193125 -107.5271875 95.183125 -108.3984375 96.203125 C-109.4824685 92.9366893 -109.3093577 91.0322842 -108.24609375 87.78125 C-107.96846191 86.92861572 -107.69083008 86.07598145 -107.40478516 85.19750977 C-107.09331543 84.29186279 -106.7818457 83.38621582 -106.4609375 82.453125 C-106.1417334 81.515896 -105.8225293 80.57866699 -105.49365234 79.61303711 C-99.1643595 61.56425472 -89.78005807 44.95577017 -76.3984375 31.203125 C-75.52251953 30.25179687 -75.52251953 30.25179687 -74.62890625 29.28125 C-56.18074586 9.75298654 -26.23985025 0.15034305 0 0 Z " fill="#00ACC1" transform="translate(229.3984375,95.796875)"/>
</svg>
